<svg xmlns="http://www.w3.org/2000/svg" style="border: 0 !important; clip: rect(0 0 0 0) !important; height: 1px !important; margin: -1px !important; overflow: hidden !important; padding: 0 !important; position: absolute !important; width: 1px !important;" class="root-svg-symbols-element">
    <symbol id="arrow-right" viewBox="0 0 23 28">
      <title>arrow-right</title><path fill="currentColor" d="M23 15a2.01 2.01 0 0 1-.578 1.422L12.25 26.594c-.375.359-.891.578-1.422.578s-1.031-.219-1.406-.578L8.25 25.422c-.375-.375-.594-.891-.594-1.422s.219-1.047.594-1.422L12.828 18h-11C.703 18 0 17.062 0 16v-2c0-1.062.703-2 1.828-2h11L8.25 7.406a1.96 1.96 0 0 1 0-2.812l1.172-1.172c.375-.375.875-.594 1.406-.594s1.047.219 1.422.594l10.172 10.172c.375.359.578.875.578 1.406z"/>
    </symbol>
    <symbol id="beard" viewBox="0 0 93 134">
      <path fill="currentColor" d="M41.4 134h9.8c15.9 0 28.9-13.1 28.9-29.2 0-12.7-.3-25.4 0-38 0 .3-2.4 2.6-2.7 3.1-1 1.6-1.4 3.2-2 5-.9 3-.7 7.1-3.2 8.7-6.4 4-12.3-6-16.7-8.3-2.8-1.5-6-1.7-9-1.7h-.6c-3.1 0-6.3.3-9 1.7-4.4 2.4-10.3 12.3-16.7 8.3-2.6-1.6-2.3-5.7-3.2-8.7-.5-1.7-1-3.4-2-5-.3-.5-2.7-2.7-2.7-3.1.3 12.6 0 25.4 0 38 .1 16.1 13.2 29.2 29.1 29.2zm1.3-55.8c0 2.1 1.7 3.8 3.8 3.8 2.1 0 3.8-1.7 3.8-3.8h2.9c0 3.7-3 6.8-6.7 6.8s-6.7-3-6.7-6.8h2.9zM7 52.7c-3.9 0-7 3.2-7 7 0 3.9 3.1 7 7 7v-14zm86 7c0-3.9-3.1-7-7-7v14.1c3.9 0 7-3.2 7-7.1z"/><path fill="currentColor" d="M51.9 68.3c2.2 2.2 5.1 3.4 8.2 3.4h5.6c3.1 0 6.1-1.2 8.3-3.3 2.4-2.3 3.8-5.5 3.8-8.9v-5c0-2.9-2.3-5.2-5.1-5.2H54.2c-2.9 0-4.8 3-5.5 5.6h-4.4c-.7-2.6-2.6-5.6-5.5-5.6H20.3c-2.8 0-5.1 2.3-5.1 5.2v5c0 3.3 1.4 6.6 3.8 8.9 2.3 2.2 5.2 3.4 8.3 3.4h5.6c3.1 0 6-1.2 8.2-3.4 2.3-2.2 3.5-5.2 3.5-8.4v-.6h3.7v.6c.1 3.1 1.3 6.1 3.6 8.3zm.8-11.1c0-1.3 1.1-3.2 1.5-3.5h18.5c.4 0 .8.4.8.8v5c0 2.2-.9 4.2-2.4 5.7-1.4 1.4-3.3 2.1-5.3 2.1h-5.6c-1.9 0-3.8-.8-5.2-2.1-1.4-1.4-2.2-3.3-2.2-5.3v-2.7zm-12.4 2.7c0 2-.8 3.9-2.2 5.3-1.4 1.4-3.2 2.1-5.1 2.1h-5.6c-2 0-3.9-.8-5.3-2.2-1.6-1.5-2.4-3.5-2.4-5.7v-5c0-.5.4-.8.8-.8h18.4c.5.2 1.6 2.2 1.6 3.5v2.8z"/><path fill="currentColor" d="M31.5 56.7c-3.7 0-6.6 3-6.6 6.7h2.5c0-2.3 1.8-4.1 4.1-4.1s4.1 1.9 4.1 4.1h2.5c0-3.7-3-6.7-6.6-6.7zm30.1 2.5c2.3 0 4.1 1.9 4.1 4.1h2.5c0-3.7-3-6.7-6.6-6.7-3.7 0-6.6 3-6.6 6.7h2.5c0-2.2 1.8-4.1 4.1-4.1zm-42.8-26c.5-1.2 1.1-2.4 2-3.3 3.2-2.8 8-.3 11.9 1.3 2.9 1.2 6.1 1.8 9.1 1.1s5.8-2.8 6.7-5.8c8.3 9.6 17.8 5.4 21.2 1.6 2.3 6.8 5 13.4 7.9 19.9 1.5-3.9 3.1-7.8 3.5-11.9.4-4.1-.5-8.6-3.3-11.7C80.8 15 75.5 3.7 66.4 0c1.2 2.6-.9 5.8-3.6 6.8s-5.7.5-8.5.2c-10.2-1.2-22.2.6-27.5 9.5-1.7-4.1-7.9-4.5-11.3-1.7-3.4 2.8-4.5 7.6-4.7 12.1-.3 6.4 1 12.9 3.5 18.8 1.3-4.4 2.8-8.5 4.5-12.5z"/>
    </symbol>
    <symbol id="bedrock" viewBox="0 0 126 126">
      <path d="M0 96.6v27.3l2.1 2.1h121.8l2.1-2.1V96.6l-1.8-1.8-59.4 9.9-1.8-1.8V84L2.5 94.1 0 96.6zm126-67.2V2.1L123.9 0H2.1L0 2.1v27.3l1.8 1.8 59.4-9.9 1.8 1.8V42l60.5-10.1 2.5-2.5zm-2.5 44.5l2.5-2.5V54.6l-1.8-1.8L63 63v21l60.5-10.1zM63 42v21L1.8 73.2 0 71.4V54.6l2.5-2.5L63 42z" fill="currentColor"/>
    </symbol>
    <symbol id="briefcase" viewBox="0 0 28 28">
      <path fill="currentColor" d="M10 4h8V2h-8v2zm18 10v7.5c0 1.375-1.125 2.5-2.5 2.5h-23A2.507 2.507 0 0 1 0 21.5V14h10.5v2.5c0 .547.453 1 1 1h5c.547 0 1-.453 1-1V14H28zm-12 0v2h-4v-2h4zm12-7.5v6H0v-6C0 5.125 1.125 4 2.5 4H8V1.5A1.5 1.5 0 0 1 9.5 0h9A1.5 1.5 0 0 1 20 1.5V4h5.5C26.875 4 28 5.125 28 6.5z"/>
    </symbol>
    <symbol id="clock" viewBox="0 0 24 28">
      <path fill="currentColor" d="M14 8.5v7c0 .281-.219.5-.5.5h-5a.494.494 0 0 1-.5-.5v-1c0-.281.219-.5.5-.5H12V8.5c0-.281.219-.5.5-.5h1c.281 0 .5.219.5.5zm6.5 5.5c0-4.688-3.813-8.5-8.5-8.5S3.5 9.313 3.5 14s3.813 8.5 8.5 8.5 8.5-3.813 8.5-8.5zm3.5 0c0 6.625-5.375 12-12 12S0 20.625 0 14 5.375 2 12 2s12 5.375 12 12z"/>
    </symbol>
    <symbol id="fb" viewBox="0 0 12 22">
      <path fill="currentColor" d="M11.5 0H8.7C5.4 0 3.3 2.1 3.3 5.4v2.5H.5c-.3 0-.5.2-.5.5V12c0 .2.2.4.5.4h2.9v9.1c0 .2.2.4.5.4h3.8c.1.1.3-.1.3-.3v-9.1h3.4c.3 0 .5-.2.5-.4V8.5c0-.1 0-.2-.1-.3-.1-.1-.2-.1-.3-.1H8V5.8c0-1 .2-1.5 1.6-1.5h1.9c.2 0 .5-.2.5-.4V.5c0-.3-.2-.5-.5-.5z"/>
    </symbol>
    <symbol id="fly" viewBox="0 0 25 23">
      <path fill="currentColor" d="M0 5.2l9.4 5.2s5.6-3.4 5.9-3c.3.4-4.7 4.6-4.7 4.6l2 10.6L25 .4 0 5.2z"/>
    </symbol>
    <symbol id="group" viewBox="0 0 30 28">
      <path fill="currentColor" d="M9.266 14a5.532 5.532 0 0 0-4.141 2H3.031C1.468 16 0 15.25 0 13.516 0 12.25-.047 8 1.937 8c.328 0 1.953 1.328 4.062 1.328.719 0 1.406-.125 2.078-.359A7.624 7.624 0 0 0 7.999 10c0 1.422.453 2.828 1.266 4zM26 23.953C26 26.484 24.328 28 21.828 28H8.172C5.672 28 4 26.484 4 23.953 4 20.422 4.828 15 9.406 15c.531 0 2.469 2.172 5.594 2.172S20.063 15 20.594 15C25.172 15 26 20.422 26 23.953zM10 4c0 2.203-1.797 4-4 4S2 6.203 2 4s1.797-4 4-4 4 1.797 4 4zm11 6c0 3.313-2.688 6-6 6s-6-2.688-6-6 2.688-6 6-6 6 2.688 6 6zm9 3.516C30 15.25 28.531 16 26.969 16h-2.094a5.532 5.532 0 0 0-4.141-2A7.066 7.066 0 0 0 22 10a7.6 7.6 0 0 0-.078-1.031A6.258 6.258 0 0 0 24 9.328C26.109 9.328 27.734 8 28.062 8c1.984 0 1.937 4.25 1.937 5.516zM28 4c0 2.203-1.797 4-4 4s-4-1.797-4-4 1.797-4 4-4 4 1.797 4 4z"/>
    </symbol>
    <symbol id="hand" viewBox="276.8 62.4 36.2 78.1">
      <path fill="currentColor" d="M302.5 94.9c1.6-1.5 2.7-3.2 3.9-4.9.8-1.2 1.8-2.3 3.8-3 2.5-.8 3.4-2.3 2.6-4.2-.2-.4-.4-.8-.2-1.3.9-2.3-1.4-4.4-1.5-6.6-.1-.8-1.1-1.9-1.5-2.9-.8-2.3-4.1-3.3-7.3-2.4-2.3.6-4.4 1.4-6.2 2.6-.4.3-.7.9-1.5.5-.7-.3-.4-.8-.3-1.2.6-2.1 1.3-4.1.3-6.3-.7-1.5-1.6-2.8-4.2-2.8-2.7 0-3 1.6-3.4 2.9-1 3-2.6 5.8-4 8.6-1.5 2.9-2.3 5.8-2 8.9.5 5.3 2.6 10.6.1 15.9-.9 2.1-.3 4.4-.5 6.6l-2.1 18.6c-.5 4.8-1 9.6-1.6 14.4-.1.8.5 1.2 1.5 1.3 1.4.2 1.3-.6 1.3-1.1.2-2.2.4-4.5.7-6.7 1-8.6 2-17.2 2.9-25.8.1-.7.3-1.1 1.5-.9 5.2.7 10.5.6 15.7.9 1.9.1 2.4.6 2.4 1.7v7.7c-1 4.8.4 10.2.3 15.6-.1 2.6.7 5.2.9 7.9.1 1 .6 1.7 2.2 1.5 1.8-.2.5-1.1.5-1.6-.3-3.2-.9-6.4-1-9.6-.2-6.6 0-13.1-.1-19.7-.1-4.2 0-8.5-1.6-12.6-.1-.3-.2-.6-.8-.6-2.7.2-1.5-.8-.8-1.4zm-.1-9.1c2.6-1.4 5.7-1.3 8.5-2.7-1 2.6-3 3.2-8.5 2.7zm7.9-7.1c.9 2.2-.4 3.2-2.9 3.7-1.9.4-3.8.7-5.7 1-.9.1-1.8-.2-1.9-.8-.1-.6.9-.5 1.4-.6 3-1.2 6.3-1.7 9.1-3.3zm-1.6-3c.3.5.3 1.1-.4 1.6-2.7 1.8-6.3 2.5-9.8 3-1.1.2-1.7-.6-2-1.3-.2-.5-.5-1 .4-1.1 3.5-.6 6.5-2.3 9.8-2.6.8.1 1.7-.2 2 .4zm-14-.9c3-1.5 6-3 9.1-3.7 1.7 0 2.7.3 2.9 1.1.2.6-.3 1.3-1.4 1.4-3.1.5-5.4 2-8.2 2.9-.6.2-1.3.9-1.9.2-.4-.5-1.4-1.4-.5-1.9zm8.1 24.6c-.2.5-.1 1-.1 1 0 .9-.1 1.3 0 1.7.4 1.5-.7 2-2.8 2-5 0-9.9-.9-14.9-.2-1.2.2-1.4-.4-1.4-1.1.1-1.3.2-2.6.2-3.9 0-.5.1-.7 1.1-.8 5.4-.6 10.8.2 16.3-.1 1.2 0 2.1.3 1.6 1.4zm-4.1-3.8c-.4.5-1.1.5-1.7.5-3.7 0-7.4-.7-11.1 0-1.3.2-1.7-.3-1.5-1.1 1.2-4.3-.2-8.6-.7-12.8-.4-4.1 2.1-7.6 3.8-11.3 3.7-.1 1.7-3.3 4.8-3.9.3 1.7-.5 3.4-.9 5s0 2.9 1 4.4c.7 1 .7 2.2.9 3.4.4 2.5-.3 4.8-1.4 7.1-.2.5.2.9 1 1 .8.1 1.3-.1 1.6-.6.5-.8.9-1.7 1.4-2.7 1.5 1.8 3.2 3.1 6.4 3 1.3 0 2 .9 1.6 1.8-1.1 2.2-3.6 4.1-5.2 6.2z"/>
    </symbol>
    <symbol id="icon-bem" viewBox="0 0 38 32">
      <path fill="currentColor" d="M22.955 22.368c.032-2.542-.014-5.068-.06-7.593-.034-2.855-2.227-5.088-5.02-5.149-2.62-.015-5.319-.014-7.923.048-.33-.012-.503-.057-.508-.465-.018-2.777-.036-5.554-.07-8.409C6.597.818 3.742.852.948.792.618.78.54.797.545 1.205c.075 8.817.055 17.573.13 26.39.251.028.486-.022.738.007 5.476-.019 10.873-.021 16.349-.04 2.933-.051 5.228-2.338 5.194-5.193zm15.061 5.06c-4.911-.019-9.728.023-14.639.004-.33-.012-.391.083-.403.413.048 1.38.001 2.699-.029 4.096 5.068-.014 10.136-.028 15.125-.025.251.028.235-.05.263-.301-.048-1.38-.018-2.777.013-4.174-.078.017-.251-.028-.33-.012z"/>
    </symbol>
    <symbol id="icon-bootstrap" viewBox="0 0 31 32">
      <path fill="currentColor" d="M11.783 17.027l-.045 5.522 5.522.045c.912.018 1.688-.177 2.203-.687s.782-1.22.749-2.07c.018-.912-.278-1.563-.725-2.028-.509-.515-1.27-.72-2.182-.738l-5.522-.045zm-.008-7.109l-.054 4.897 5.122.03c.737-.021 1.401-.204 1.866-.651.527-.397.743-1.045.773-1.845.018-.912-.216-1.513-.651-1.865s-1.084-.569-1.933-.536l-5.122-.03zm14.06-9.1L5.57.673C2.784.681.459 2.917.468 5.703L.272 26.03c.008 2.786 2.244 5.111 5.03 5.102l20.265.145c2.786-.008 5.111-2.244 5.102-5.03l.258-20.276C30.919 3.185 28.633.922 25.835.818zm-3.276 11.038c-.018.912-.222 1.673-.726 2.295-.441.672-1.081 1.081-1.895 1.451 1.11.281 1.957.761 2.44 1.564.595.791.814 1.791.832 3.041a7.52 7.52 0 0 1-.362 1.972c-.278.598-.619 1.146-1.146 1.542s-1.229.755-2.055 1.012c-.826.257-1.839.364-2.976.37l-8.196-.049.13-17.703 8.596.064c1.599.059 2.884.379 3.816 1.135 1.095.681 1.613 1.821 1.542 3.308z"/>
    </symbol>
    <symbol id="icon-chrome" viewBox="0 0 30 30">
      <path d="M29.924 16.448c-.598 6.122-4.973 11.353-11.096 13.003a15.03 15.03 0 0 1-4.031.518c-.063-.001-.135.025-.216-.06.196-.341.396-.691.599-1.04 1.515-2.61 3.031-5.219 4.544-7.831.11-.188.243-.347.405-.494 3.333-3 3.281-8.286-.104-11.221-.067-.058-.13-.12-.274-.255 1.543 0 2.982.004 4.421-.001 1.439-.004 2.879-.012 4.319-.032.241-.003.362.071.451.298a15.197 15.197 0 0 1 .982 7.115zm-1.882-8.616c-3.368.001-6.737-.005-10.105.007-.408.002-.78-.105-1.165-.194-4.128-.949-8.115 1.493-9.152 5.603l-.076.294-2.592-4.418c-.554-.946-1.098-1.899-1.666-2.837-.134-.22-.128-.362.032-.561C5.657 2.832 8.647.978 12.304.277c6.328-1.212 12.604 1.628 15.879 7.122.074.123.139.251.209.377-.125.091-.242.056-.35.056zM8.894 14.839c.014-3.346 2.799-6.096 6.158-6.08 3.389.016 6.151 2.755 6.143 6.091-.008 3.414-2.743 6.126-6.171 6.121-3.393-.005-6.145-2.757-6.13-6.132zm-1.502 1.273c.097.168.165.34.208.531.826 3.619 4.216 6.129 7.925 5.868a7.917 7.917 0 0 0 2.183-.475c-.001.171-.084.256-.138.35-1.392 2.421-2.79 4.838-4.174 7.263-.132.231-.276.28-.517.244C6.521 28.934 1.446 24.094.272 17.799c-.672-3.607-.1-7.035 1.702-10.247.06-.109.128-.213.196-.317.01-.016.036-.021.082-.046.428.74.857 1.48 1.284 2.221 1.285 2.234 2.569 4.469 3.856 6.702z" fill="currentColor" fill-rule="evenodd"/>
    </symbol>
    <symbol id="icon-css3" viewBox="0 0 22 31">
      <path d="M21.266 9.379c-.168 2.105-.34 4.21-.508 6.316-.149 1.879-.293 3.759-.442 5.639-.169 2.135-.345 4.27-.507 6.406-.015.189-.073.265-.256.315-2.792.758-5.581 1.525-8.37 2.292a.698.698 0 0 1-.4.001c-2.803-.823-5.607-1.641-8.412-2.456-.155-.045-.216-.11-.23-.28-.059-.73-.138-1.459-.21-2.189-.186-1.892-.374-3.784-.559-5.676-.184-1.873-.365-3.745-.548-5.618C.614 11.98.408 9.831.186 7.684c-.046-.455-.03-.92-.181-1.363A95.421 95.421 0 0 1 0 5.786c.107-.007.214-.021.321-.02l20.867.189c.059.001.118.004.177.002.125-.006.17.036.158.174-.09 1.082-.17 2.165-.257 3.248zm-3.738.896l-13.132-.106c-.246-.003-.493.004-.738-.01-.161-.008-.217.023-.198.208.065.669.158 1.336.24 2.004.03.244.13.275.333.277 1.899.023 3.797.054 5.696.082.27.005.54.006.81.008.001.029.003.057.003.086-.088.04-.177.081-.267.12l-5.95 2.537c-.148.062-.283.106-.257.326.093.786.172 1.574.248 2.362.015.145.076.179.208.178.796-.005 1.593 0 2.389-.006 2.41-.017 4.821.053 7.231.076.157.002.203.052.194.208a290.76 290.76 0 0 0-.173 3.106c-.009.172-.093.226-.242.269-.912.26-1.818.535-2.73.79-.137.038-.237.164-.405.129a303.948 303.948 0 0 0-3.129-.634c-.195-.039-.274-.129-.289-.333-.039-.553-.12-1.103-.15-1.656-.014-.255-.112-.315-.341-.314-.679.005-1.358.002-2.036-.019-.231-.007-.3.053-.283.292a49.32 49.32 0 0 0 .374 3.573c.035.242.127.329.345.387 1.765.463 3.526.936 5.288 1.408.243.065.475.068.72.005 1.759-.456 3.519-.91 5.283-1.345.289-.072.357-.215.374-.484.062-.985.149-1.968.223-2.952.119-1.575.229-3.15.355-4.724.023-.281-.042-.368-.34-.368-1.787-.001-3.574-.025-5.421-.042.301-.133.554-.247.809-.357 1.621-.703 3.241-1.405 4.863-2.104.19-.082.303-.177.313-.423.032-.709.099-1.418.164-2.124.039-.427.049-.427-.382-.43zm-.52-6.05c-.61-.015-1.22-.014-1.83-.02l.001.005c-.591-.006-1.181-.019-1.771-.012-.182.002-.228-.049-.23-.231-.01-.742-.017-.742.711-.736.59.005 1.181-.017 1.77.023.354.024.29-.177.314-.392.034-.308-.166-.245-.331-.247-.748-.009-1.495-.021-2.243-.019-.173.001-.237-.033-.235-.226.011-.691.007-1.384-.006-2.077-.003-.174.056-.207.216-.205a353.8 353.8 0 0 0 3.57.033c.168 0 .252.026.239.223-.016.246-.012.495.008.741.016.191-.053.229-.229.226-.827-.014-1.653-.008-2.479-.024-.192-.004-.247.046-.244.242.003.189.049.248.244.248.817.005 1.633.035 2.45.039.206.002.265.062.263.269-.005.642.005 1.286.022 1.928.005.169-.043.217-.21.212zm-4.48-.045c-.6-.018-1.2-.016-1.8-.021v.003c-.59-.006-1.18-.02-1.77-.011-.198.002-.241-.061-.242-.249-.003-.731-.01-.731.725-.725.6.003 1.2-.013 1.799.019.375.02.229-.236.263-.406.046-.227-.09-.226-.253-.227-.767-.002-1.534-.018-2.301-.015-.187.001-.251-.041-.248-.242.01-.682.003-1.365-.009-2.047-.003-.163.034-.221.208-.218 1.2.018 2.4.028 3.599.033.165 0 .224.043.216.214-.012.236-.011.475.009.711.018.206-.046.268-.255.264-.807-.017-1.613-.007-2.42-.023-.199-.004-.264.038-.263.252.001.214.087.234.259.234.807.006 1.613.028 2.42.029.205 0 .266.057.264.265-.006.643.005 1.286.023 1.929.005.179-.037.236-.224.231zm-5.051-.053c-.973-.003-1.947-.024-2.92-.018-.23.001-.274-.07-.271-.283.01-.593-.006-1.187-.011-1.78-.006-.603-.007-1.206-.02-1.809-.004-.164.011-.242.212-.238 1.18.022 2.36.029 3.54.034.157.001.229.029.221.208-.013.276-.009.554.007.83.01.173-.051.214-.215.212-.767-.013-1.534-.007-2.301-.024-.194-.004-.25.05-.245.244.012.444.014.89-.006 1.334-.009.212.077.242.255.243.767.006 1.534.029 2.301.032.18 0 .244.043.23.23-.02.254.081.59-.046.743-.133.162-.478.043-.731.042z" fill="currentColor" fill-rule="evenodd"/>
    </symbol>
    <symbol id="icon-devices" viewBox="0 0 45 32">
      <path fill="currentColor" d="M43.381 11.829c-1.958.009-3.842.006-5.788.088-.453-.004-.549-.139-.534-.518L37.02 2.59c-.039-1.199-.67-1.853-1.955-1.875C29.95.772 24.762.84 19.648.896c-5.188.068-10.376.137-15.491.193-.526.008-.956.151-1.276.504-.383.437-.533.913-.514 1.513.065 5.641.056 11.293.132 17.007-.007.905-.007.905-.913.898-.747.043-1.017.236-.974.983.001 2.863.065 5.641.066 8.504.031.673.298.932.983.974 1.505-.012 2.936-.013 4.441-.025.747-.043 1.017-.236.974-.983.034-1.211-.017-2.484-.056-3.683.027-.306.077-.464.456-.449l19.859-.207c.379.015.464.077.449.456-.034 1.211.005 2.41.044 3.61-.019.832.248 1.091 1.153 1.098 4.894-.022 9.776-.117 14.671-.139.832.019 1.091-.248 1.11-1.08-.065-5.641-.056-11.293-.12-16.934-.175-1.103-.442-1.362-1.262-1.307zM2.399 21.862c.832.019 1.725-.047 2.557-.028l.023.147c-.832-.019-1.725.047-2.557.028l-.023-.147zm1.409 8.893c-.294.047-.402-.162-.364-.394s.162-.402.383-.437c.221-.035.391.089.426.309-.027.306-.151.476-.445.523zm2.631-7.65c.004.979.009 1.958.025 3.01l.013 2.936c-.027.306-.004.453-.383.437-1.505.012-3.01.025-4.588.049-.306-.027-.391-.089-.364-.394-.009-1.958-.029-3.989-.038-5.946.027-.306.089-.391.394-.364 1.505-.012 3.01-.025 4.588-.049.294-.047.317.1.352.321zm20.683.718c-6.546.057-13.092.115-19.627.245-.453-.004-.549-.139-.534-.518.054-.611.046-1.137.026-1.737s-.287-.859-.886-.839c-.453-.004-1.017.236-1.296-.096-.194-.271-.055-.82-.051-1.273.005-5.2-.075-10.461-.143-15.649-.008-.526.127-.623.654-.631 4.821-.01 9.703-.105 14.524-.115 4.809-.084 9.703-.105 14.512-.189.453.004.623.127.619.58-.034 2.642.006 5.273.046 7.904-.004.453-.066.538-.518.534-1.884-.003-3.683.056-5.567.053-.832-.019-1.091.248-1.11 1.08.009 3.389.019 6.778.102 10.156-.162.402-.298.499-.75.496zm15.185-9.262c.037 4.515.074 9.03.123 13.618-.004.453-.054.611-.58.619-3.768-.006-7.525.062-11.281.129-.526.008-.549-.139-.546-.592.018-2.263-.037-4.515-.019-6.778s-.037-4.515-.019-6.778c.004-.453.054-.611.58-.619 3.768.006 7.525-.062 11.281-.129.367-.058.464.077.461.53zM23.499 27.109c-.058-.367-.229-.491-.596-.433-2.031.02-4.136.052-6.167.073-.306-.027-.515.081-.615.399-.352 1.111-.641 2.136-.993 3.246-.213.561-.019.832.581.812 1.284.023 2.557-.028 3.842-.006l.012.073c1.199-.039 2.41-.005 3.61-.044.306.027.611.054.894-.066.356-.132.615-.399.472-.828-.058-.367-.337-.7-.469-1.056-.128-.809-.391-1.52-.57-2.17z"/>
    </symbol>
    <symbol id="icon-firefox" viewBox="0 0 31 32">
      <path d="M30.902 17.974c-.207 2.532-1.06 4.874-2.473 6.982-2.475 3.692-5.887 5.97-10.241 6.802-.589.112-1.188.131-1.776.242h-1.861c-.206-.095-.428-.051-.642-.075-2.78-.311-5.328-1.251-7.567-2.945C2.408 26.005.268 22.023-.007 17.071c-.162-2.902.506-5.637 1.873-8.201.224-.419.395-.875.319-1.373a7.943 7.943 0 0 1 .203-3.432c.109-.385.234-.765.463-1.135.068.162.116.288.173.41.361.785.832 1.483 1.518 2.023.258.202.542.282.843.192 1.003-.297 2.007-.194 3.011-.036.334.052.589-.04.798-.293.132-.16.26-.323.389-.486.402-.507.835-.98 1.395-1.317.218-.131.441-.253.741-.301-.466 1.035-.743 2.061-.307 3.134.453 1.112 1.396 1.582 2.496 1.818a2.029 2.029 0 0 1-.328.558 10.315 10.315 0 0 1-3.219 2.791c-1.031.571-1.605 1.752-1.455 3.011.123 1.028.914 1.844 2.08 2.131.932.229 1.871.13 2.807.029.975-.104 1.946-.281 2.933-.16.209.026.424.044.617.21-.726.411-1.346.934-2.017 1.382-.45.301-.928.539-1.457.671-.872.218-1.722.087-2.57-.138-.391-.104-.715.019-.885.323-.176.316-.102.679.198.956.261.24.55.441.86.609 2.136 1.16 4.426 1.71 6.845 1.704 2.261-.005 4.208-.758 5.702-2.535a10.584 10.584 0 0 0 1.454-2.242c1.464-3.056 1.683-6.249 1.021-9.536a17.561 17.561 0 0 0-1.144-3.554c-.028-.065-.128-.148-.029-.216.083-.059.148.033.211.083.025.02.047.041.07.062 4.012 3.71 5.743 8.325 5.3 13.761zm-7.05-.666c-.188.334-.408.652-.633.962-1.16 1.607-2.753 2.363-4.703 2.417-1.387.038-2.736-.175-4.159-.596 1.304-.362 2.234-1.189 3.244-1.884.342-.236.71-.42 1.106-.551.492-.163.671-.592.457-1.069-.461-1.032-1.297-1.526-2.378-1.651-.935-.108-1.856.05-2.779.154-.801.09-1.6.221-2.409.103a2.173 2.173 0 0 1-.214-.037c-.629-.154-.981-.48-1.046-.965-.078-.579.245-1.217.75-1.5 1.417-.796 2.635-1.829 3.619-3.133.39-.517.692-1.084.809-1.735.135-.756-.126-1.093-.885-1.146-.393-.028-.781-.092-1.143-.259-.709-.328-.978-.946-.776-1.798.149-.628.465-1.175.837-1.693.466-.649.241-1.189-.542-1.318-1.378-.226-2.543.223-3.564 1.13a8.087 8.087 0 0 0-1.011 1.098c-.08.103-.151.187-.302.165a9.499 9.499 0 0 0-2.105-.058c.292-.271.508-.486.738-.685C8.924 1.397 11.413.313 14.251.054c.08-.007.158-.036.238-.054h1.861c.626.12 1.264.164 1.889.306 1.464.333 2.833.893 4.111 1.686a.923.923 0 0 1 .294.312c1.326 2.096 2.263 4.346 2.604 6.82.397 2.873.041 5.626-1.396 8.184z" fill="currentColor" fill-rule="evenodd"/>
    </symbol>
    <symbol id="icon-html5-css3" viewBox="15 1 55 42">
      <path fill="currentColor" d="M26.7 8.3c.1.2.2.2.3.1.2-.1.5-.2.7-.3.2-.1.2-.1.2-.3l-.6-1.2c0-.1-.1-.2-.1-.3.4.3.8.5 1.3.8.1-.5.2-1.1.2-1.6.3.5.5 1 .7 1.5.1.2.1.2.3.1l.9-.3c.1-.1.2-.1.1-.3-.5-1.1-1-2.3-1.6-3.4l-1.2.6c-.1.5-.1 1-.2 1.6-.4-.3-.9-.6-1.3-.9-.4.2-.8.4-1.3.6.1.1.1.2.1.3.6.9 1 2 1.5 3zM19.3 12c.2-.1.4-.2.7-.3.3-.1.3-.2.2-.5-.1-.3-.4-.6-.3-.9.1-.2.5-.3.8-.4.1-.1.2 0 .2.1.1.3.3.6.4.9.1.1.1.2.3.1.2-.1.5-.3.8-.4.2-.1.2-.2.1-.4-.5-1.1-1-2.2-1.5-3.4-.4.2-.8.4-1.2.5.1.4.3.7.4 1 .1.2.1.2-.1.3-.2.1-.5.2-.7.3-.2.1-.2 0-.3-.1-.2-.3-.3-.7-.5-1-.4.2-.8.4-1.2.5 0 .1.1.2.1.3.5 1 .9 2.1 1.4 3.1.2.4.3.4.4.3zm2.9-4.2l.6-.3c.2-.1.3-.1.4.2.3.7.6 1.3.9 2 .1.1.1.2.3.1.3-.1.5-.3.8-.4.2-.1.2-.2.1-.3-.3-.6-.6-1.3-.9-1.9-.1-.2-.1-.3.1-.4l.6-.3c.2-.1.2-.2.1-.4-.1-.3-.3-.6-.4-1l-3.3 1.5c.2.3.3.6.5 1-.1.2 0 .3.2.2zm9-1.6c.1.2.1.2.3.1.8-.4 1.6-.8 2.4-1.1.2-.1.2-.1.1-.3-.1-.3-.3-.6-.4-.8-.1-.2-.1-.2-.3-.1-.4.2-.8.4-1.3.6-.2.1-.2 0-.3-.1-.3-.7-.7-1.5-1-2.2l-1.2.6c.1.1.1.2.1.3.7.9 1.1 2 1.6 3zm35.5 19.5c-5.2-4.6-10.4-9.3-15.6-13.9-.1-.1-.2-.1-.3-.2-.1.1-.2.3-.3.4-.2.4-.5.8-.8 1.1-1.3 1.8-2.5 3.5-3.8 5.3-1.1 1.5-2.2 3.1-3.3 4.6-.1.1-.1.2-.2.3-.3-.9-.6-1.7-.9-2.6-.6-1.7-1.2-3.5-1.8-5.2-.5-1.5-1.1-3.1-1.6-4.6-.5-1.5-1.1-3.1-1.6-4.6.1-.3 0-.3-.2-.2-6 2.8-11.9 5.6-17.9 8.3-.2.1-.2.2-.1.4.5.9 1 1.7 1.4 2.6 1 1.8 2 3.5 3 5.3.9 1.6 1.8 3.2 2.6 4.8l3 5.4c.1.2.2.2.4.2 2.1-.3 4.1-.7 6.2-1 .6-.1 1.3-.2 1.9-.3.1 0 .2-.1.3-.1.4-.4.8-.7 1.2-1.1.1-.1.2-.1.3-.2 1.4 2.2 2.9 4.5 4.3 6.7l.3.3c2.6 1.3 5.2 2.5 7.8 3.8.2.1.3.1.4-.1 1.5-1.5 3.1-3 4.6-4.5 1.4-1.3 2.7-2.6 4.1-3.9 1.5-1.5 3-2.9 4.5-4.4.8-.8 1.6-1.5 2.3-2.3.1-.1.1-.2 0-.2-.1-.1-.1-.1-.2-.1zm-27.6-1.5l-3.9 3.3c-.1.1-.2.1-.3.1-1.6.3-3.3.5-4.9.8-.2 0-.3 0-.4-.2-.6-1.1-1.2-2.1-1.8-3.2-.1-.2-.1-.2.1-.3.6-.3 1.3-.6 1.9-.9.2-.1.2-.1.3.1.3.5.5.9.8 1.4.1.2.2.2.3.2.8-.1 1.7-.3 2.5-.4.1 0 .2 0 .3-.1.7-.6 1.3-1.1 2-1.7.1-.1.1-.2.1-.3-.3-.9-.6-1.8-.9-2.6-.1-.3-.2-.3-.4-.2-2.5 1.2-4.9 2.3-7.4 3.4-.2.1-.3.1-.5-.2-1.2-2.1-2.4-4.3-3.6-6.4-.1-.2 0-.2.1-.3 1.9-.9 3.7-1.7 5.5-2.6 1.8-.9 3.7-1.7 5.5-2.6.2-.1.2 0 .3.1.2.7.4 1.3.7 2 .1.2 0 .3-.2.4-2.8 1.3-5.5 2.6-8.3 3.8-.3.1-.3.1-.1.5.3.6.7 1.2 1 1.8.1.2.2.2.4.1 2.6-1.2 5.3-2.4 7.9-3.7.2-.1.3-.1.4.2.7 2 1.4 3.9 2 5.9.1.4.3.8.4 1.2.4.3.3.3.2.4zm22 2.9l-1.5 1.5c-.2.2-.3.2-.5.1-1.7-.5-3.4-1.1-5-1.6-.3-.1-.5-.2-.8-.3 1.4 1.2 2.7 2.4 4 3.6.2.2.2.3 0 .5-1.1 1.1-2.3 2.2-3.4 3.3l-2.1 2.1c-.2.2-.3.3-.6.1-1.6-.8-3.2-1.7-4.9-2.5-.2-.1-.4-.3-.5-.5l-3-4.5c-.1-.2-.1-.3 0-.5.7-1 1.3-2 2.1-2.9.1-.2.2-.2.4 0 .5.5 1 .9 1.5 1.4.2.2.2.3 0 .5-.3.4-.6.9-1 1.3-.1.2-.1.3 0 .4.6.8 1.3 1.7 1.9 2.5.1.1.3.1.4.2.9.4 1.7.8 2.6 1.2.1.1.2.1.4 0 .7-.7 1.4-1.5 2.2-2.2.1-.1.1-.2 0-.3-1.8-1.6-3.6-3.3-5.4-4.8-.7-.7-1.3-1.2-1.9-1.7-.1-.1-.1-.2 0-.3.5-.6.9-1.3 1.4-1.9.1-.2.3-.1.4-.1 2 .7 4.1 1.3 6.1 2 .1 0 .2.1.3.1l.1-.1c-.2-.2-.4-.4-.6-.5-1.4-1.3-2.8-2.6-4.2-3.8-.2-.1-.2-.2-.1-.4.4-.6.7-1.1 1.1-1.7.1-.2.2-.1.3 0 .2.2.4.3.5.5 3.3 2.9 6.5 5.8 9.8 8.7.3.3.3.3 0 .6zM59.8 15c.6.5 1.1 1 1.7 1.5.1.1.2.2 0 .3-.1.1-.2.4-.5.1-.4-.4-.9-.8-1.3-1.2-.5-.5-.5-.5-1 .1-.1.1-.1.2 0 .3.4.4.9.8 1.3 1.2.4.4.9.8 1.3 1.2.1.1.2.1.3 0 .4-.5.8-1 1.3-1.5.1-.2.1-.2 0-.4-.6-.5-1.2-1.1-1.8-1.6-.1 0-.1 0 0-.2s.2-.2.4 0c.6.5 1.2 1.1 1.8 1.6.2.1.2.1.4 0 .1-.2.3-.4.5-.5.1-.1.1-.2 0-.3l-2.7-2.4c-.1-.1-.2-.1-.3 0-.4.5-.9 1-1.3 1.5-.3.1-.3.2-.1.3zm7.6 3.5l-2.7-2.4c-.1-.1-.2-.1-.3 0-.4.5-.9 1.1-1.4 1.6-.1.1-.1.2 0 .3.6.5 1.1 1 1.7 1.5.1.1.3.2.1.4-.2.1-.2.3-.5.1-.4-.4-.9-.8-1.3-1.2-.5-.5-.5-.5-1 .1-.1.1-.1.2 0 .3.4.4.9.8 1.3 1.2.5.4.9.8 1.4 1.2.1.1.2.1.3 0 .4-.5.8-1 1.3-1.5.1-.2.1-.2 0-.4-.6-.5-1.2-1.1-1.8-1.6-.1-.1-.1-.2 0-.3.1-.1.2-.1.3 0 .6.6 1.2 1.1 1.8 1.7.1.1.2.1.3 0 .1-.2.3-.4.5-.6.1-.2.1-.3 0-.4zm-9.8-3.3c.2.2.4.5.6.5.2 0 .3-.4.5-.5.1-.1.1-.2 0-.3-.6-.5-1.1-1-1.7-1.5-.1-.1-.2-.2 0-.4.3-.3.6-.7.9-1 .1-.1.2-.2.3 0 .6.5 1.1 1 1.7 1.5.1.1.2.1.3 0 .2-.2.4-.4.5-.6.1-.1.1-.2 0-.3-.9-.8-1.8-1.6-2.6-2.4-.1-.1-.2-.1-.3 0-.4.5-.8.9-1.2 1.4-.4.4-.8.9-1.2 1.3-.1.2-.2.2 0 .4.8.6 1.5 1.3 2.2 1.9z"/>
    </symbol>
    <symbol id="icon-html5" viewBox="0 0 21 29">
      <path d="M19.785 10.846l-.455 4.842c-.17 1.823-.34 3.646-.512 5.469l-.449 4.756c-.024.256-.058.513-.065.769-.004.185-.075.261-.249.311-2.156.62-4.31 1.245-6.463 1.876-.509.149-1.028.263-1.521.465l-.28.003c-.599-.249-1.236-.373-1.857-.549a689.833 689.833 0 0 0-6.035-1.671c-.191-.052-.239-.141-.254-.33-.159-2.067-.329-4.134-.495-6.201-.145-1.811-.287-3.623-.433-5.434-.162-2.02-.328-4.04-.491-6.059-.079-.986-.15-1.974-.236-2.959-.018-.205.017-.281.242-.283 6.587-.042 13.174-.09 19.761-.144.209-.002.271.046.249.269-.159 1.623-.305 3.247-.457 4.87zm-3.56-.78c-2.04.021-4.08.033-6.12.049v.006c-2.04.015-4.08.031-6.12.044-.155.001-.28-.025-.258.228.209 2.435.409 4.871.595 7.308.021.269.086.34.352.337 2.71-.029 5.421-.037 8.132-.067.281-.003.337.073.307.347-.1.929-.178 1.86-.259 2.791-.013.153-.061.228-.22.272-.839.226-1.674.466-2.508.709a.52.52 0 0 1-.298-.004c-.814-.222-1.629-.444-2.447-.653-.166-.042-.216-.119-.226-.289-.033-.541-.095-1.079-.127-1.621-.011-.192-.086-.228-.256-.225-.698.013-1.397.018-2.096.015-.165 0-.22.026-.204.22.105 1.203.195 2.408.285 3.612.013.179.064.28.257.332 1.593.431 3.183.877 4.774 1.318a.57.57 0 0 0 .328.02c1.641-.479 3.283-.957 4.926-1.432.111-.032.167-.079.176-.211.031-.437.078-.874.12-1.31.196-2.079.385-4.158.596-6.236.027-.274-.048-.304-.282-.301-2.898.03-5.795.049-8.692.078-.19.002-.273-.027-.285-.251-.038-.684-.103-1.365-.163-2.047-.031-.352-.038-.352.313-.354 3.036-.02 6.073-.042 9.11-.056.21-.001.283-.049.298-.279.047-.704.116-1.407.197-2.107.022-.194-.015-.245-.205-.243zm1.99-6.126c-.893-.002-1.785.002-2.678.02-.203.005-.242-.063-.24-.255.016-1.133.02-2.265.026-3.398.001-.103.027-.209-.023-.308l1.341-.01c-.005.8-.005 1.599-.019 2.398-.003.178.029.245.221.238.464-.02.93-.007 1.395-.019.151-.004.214.029.206.2a9.908 9.908 0 0 0-.006.912c.008.183-.056.222-.223.222zm-3.735.026a9.873 9.873 0 0 0-.894.008c-.186.012-.211-.066-.207-.231.013-.532.011-1.065-.034-1.624l-.853 1.326-.825-1.296c-.105.09-.059.191-.061.277-.009.448-.018.897-.007 1.345.004.181-.051.227-.22.219a7.061 7.061 0 0 0-.81.006c-.193.013-.251-.044-.248-.248.017-1.135.021-2.269.026-3.404.001-.103.027-.21-.023-.309l1.398-.01 1.621-.012 1.341-.009c-.005 1.258-.013 2.516-.012 3.774 0 .157-.05.192-.192.188zM9.792 1.09c.001.202-.034.295-.257.273-.211-.022-.428.015-.64-.005-.222-.023-.256.071-.254.273.007.713-.01 1.427-.006 2.141.001.178-.035.251-.226.241a8.295 8.295 0 0 0-.892.005c-.165.009-.197-.054-.195-.208.012-.714.004-1.428.023-2.141.007-.227-.033-.328-.279-.298-.211.026-.428-.008-.64.014-.198.02-.224-.066-.224-.24 0-.36.044-.721-.015-1.079L9.821.039C9.758.388 9.79.74 9.792 1.09zM5.376 4.035a7.304 7.304 0 0 0-.837.005c-.166.009-.205-.054-.199-.211.012-.314.001-.629.012-.943.005-.136-.031-.198-.168-.173-.01.002-.019 0-.028 0-.316.008-.729-.104-.919.058-.195.166-.07.606-.057.923.011.282-.054.395-.347.361a3.819 3.819 0 0 0-.725.003c-.192.015-.25-.043-.247-.247.017-1.133.02-2.267.027-3.4.001-.104-.004-.209-.006-.313l1.286-.01 1.23-.009L5.683.07c-.011 1.228-.029 2.457-.027 3.685 0 .23-.065.292-.28.28z" fill="currentColor" fill-rule="evenodd"/>
    </symbol>
    <symbol id="icon-ie" viewBox="0 0 100 50">
      <path fill="currentColor" d="M45.7 16.5c-1.3.7-2.5 1.6-3.6 2.5-1.1.9-2.1 1.9-3.1 3 .2-.8.5-1.6.8-2.4 2-4.2 5.3-6.6 9.8-7.6 1-.2 1.9-.2 2.9-.2.3 0 .5 0 .7-.1 1.6-.7 3.2-1.3 5-1.6 1.5-.2 2.9-.3 4.4.3 1.6.6 2.4 1.8 2.4 3.5 0 1.6-.4 3-1.1 4.4-.1.2-.1.4 0 .6 1.3 2.4 1.7 4.9 1.5 7.5 0 .4 0 .4-.5.4H46.5c-.4 0-.4 0-.4.4.4 3.3 2.6 4.8 5.2 5.2 2.7.4 4.7-.6 6.2-2.8.1-.1.2-.2.3-.2h6.6c.2 0 .2.1.1.2-1.8 4.5-5.1 7.3-9.9 8.4-2.9.6-5.7.3-8.4-.9-.3-.1-.4-.1-.7 0-1.6.9-3.3 1.5-5.1 1.7-.9.1-1.8 0-2.6-.3-1.3-.4-1.9-1.4-2.2-2.6-.3-1.4-.2-2.7.1-4.1.5-2.3 1.5-4.3 2.7-6.3 1.9-3.3 4.3-6.2 7-8.9.2.1.3.1.3-.1.1.1.1 0 0 0zm6.5 6.7h5.7c.4 0 .4 0 .4-.4-.1-.9-.4-1.7-.9-2.5-1.5-2.2-4.4-3.1-7-2.3-2.3.7-3.7 2.2-4.1 4.7-.1.5 0 .5.4.5h5.5zm-12.8 6.4c-.4.6-.7 1.2-.9 1.8-.5 1.3-.9 2.6-.8 4.1.1 1.2.7 1.9 1.9 2.3.4.1.9.2 1.4.2 1.5-.1 2.9-.6 4.2-1.3-2.8-1.8-4.7-4.1-5.8-7.1zM57 12.8c2.7 1.1 4.9 2.8 6.5 5.3.5-1.4 1-2.7.7-4.1-.2-1.1-.8-1.8-1.9-2.1-.5-.2-1.1-.2-1.6-.2-1.2.1-2.4.4-3.5 1-.1 0-.2 0-.2.1z"/>
    </symbol>
    <symbol id="icon-jade" viewBox="0 0 33 32">
      <path fill="currentColor" d="M25.794 18.749c-.552-.669-3.043-1.618-3.794-.813-1.044 1.06 4.856 2.068 3.794.813zm3.855 8.81l-.345-23.274c.036-.758-.6-1.384-1.442-1.378l-23.19.302c-.758-.036-1.384.6-1.378 1.442l.261 23.317c-.036.758.6 1.384 1.442 1.378l23.274-.345c.758.036 1.342-.684 1.378-1.442zm-9.011-.478c-1.179-.033-2.483.103-3.622-.267-5.317-1.727-2.611-.149-2.611-.149-1.472.222-3.025.696-4.541.624-1.222-.117-1.305-.074-1.736-1.334s-.988-2.56-1.586-3.734c-.256-.503-.901-2.182-.442-2.733.627-.636.34.46.804.541-.127-.041.614-2.32.78-2.616.413-1.055.952-2.07 1.831-2.834 1.84-1.571 4.027-1.841 6.259-1.605.885.077 1.685.198 2.32.614.847.625 1.483 1.252 2.658.864 1.133-.472.37-1.139-.225-1.892-.766-1.089-1.364-2.263-1.962-3.437-.256-.503-2.173-3.435-1.545-3.861.335-.171 1.769.155 2.065.321.635.416 1.617 2.345 1.875 3.058.771 1.72 1.42 4.03 3.111 5.069 1.057.623.671-.342.413-1.055-.261-1.134-.438-2.312-.616-3.489-.174-.756-.475-1.554.452-1.392.674.079.805.752 1.021 1.381.516 1.427.696 3.025.961 4.581.087.378.6 1.384.476 1.764-.201 1.264-.315 2.907-.05 4.462.393 1.807-.267 3.622-2.459 3.26-.337-.04-.972-.456-1.307-.285-.252.128-1.084 1.397-1.25 1.693-.206.633-.152 2.19-1.076 2.45zm11.627 1.258l-.358-24.958C31.894 1.697 30.453.319 28.769.332L3.727.733C2.043.746.665 2.187.678 3.871l.358 24.958c.013 1.684 1.454 3.062 3.138 3.049l24.958-.358c1.767-.055 3.104-1.37 3.133-3.181zm-3.945 1.588l-23.274.345a2.336 2.336 0 0 1-2.333-2.297L2.368 4.701a2.336 2.336 0 0 1 2.297-2.333l23.231-.429a2.334 2.334 0 0 1 2.332 2.297l.345 23.274c.052 1.347-.992 2.407-2.255 2.416z"/>
    </symbol>
    <symbol id="icon-jquery" viewBox="0 0 117 28">
      <path d="M116.041 2.454c-.362.077-.468.414-.655.656-2.814 3.647-5.583 7.329-8.445 10.94-1.092 1.377-1.985 2.805-2.206 4.547-.132 1.042-.66 1.314-1.633 1.23-.879-.076-1.769-.036-2.653-.022-.548.008-.798-.216-.558-.724 1.093-2.305.462-4.528-.272-6.758-.273-.829-.448-1.689-.722-2.516-.163-.491-.057-.679.465-.657.404.018.811.002 1.216.009.883.014 1.866-.199 2.623.116.808.335.426 1.518.863 2.271.379-.074.472-.415.64-.654 1.846-2.632 3.697-5.259 5.506-7.916.393-.576.805-.848 1.526-.813 1.433.07 2.87.053 4.306.073l-.001.218zm-13.643 5.758c-2.58.006-5.161.027-7.74-.021-.773-.014-1.092.216-1.245.983-.634 3.173-1.357 6.329-2.001 9.501-.154.764-.43 1.17-1.29 1.101-.806-.066-1.621-.04-2.431-.022-.591.013-.77-.166-.63-.781 1.049-4.595 2.077-9.195 3.081-13.8.148-.681.485-.866 1.147-.845 1.437.047 2.875.024 4.313.03v.022c1.474.005 2.951-.04 4.422.029 1.992.093 3.209 1.443 3.159 3.354-.016.62-.456.449-.785.449zm-17.182 5.297c-1.4-.039-2.801-.021-4.202-.027-1.29-.005-2.581-.038-3.869 0-.443.013-1.123-.336-1.247.477-.119.785.065 1.454.922 1.764.669.242 1.368.282 2.067.29 1.695.02 3.391.019 5.086.024 1.355.005 1.355.003 1.035 1.275-.644 2.563-.644 2.572-3.244 2.561-1.806-.007-3.615.027-5.415-.085-3.494-.217-5.047-1.962-4.867-5.387.091-1.716.532-3.368 1.094-4.991 1.176-3.395 3.66-5.063 7.197-5.32 1.214-.088 2.431-.054 3.628.229 2.109.498 3.275 1.881 3.386 4.022.078 1.509-.248 2.962-.59 4.419-.135.576-.399.765-.981.749zm-3.641-5.454c-1.424-.763-3.691-.218-4.552 1.103-.175.27-.465.568-.343.875.148.368.577.18.881.195.625.028 1.251.012 1.878.015.552.002 1.109.049 1.655-.008.448-.047 1.124.339 1.279-.425.148-.73-.078-1.369-.798-1.755zm-12.974 10.63c-.157.741-.461 1.047-1.25 1.003-1.139-.064-2.284-.024-3.637-.029-1.226-.042-2.665.068-4.098-.121-1.95-.257-3.104-1.37-3.435-3.288-.372-2.153.291-4.186.715-6.245.343-1.675.76-3.335 1.074-5.014.122-.654.422-.834 1.041-.801.808.042 1.623.055 2.431.007.736-.043.872.211.721.893-.557 2.522-1.062 5.055-1.586 7.584-.044.213-.101.425-.129.641-.26 2.044.19 2.551 2.289 2.585 2.328.038 2.315.035 2.799-2.168.632-2.877 1.309-5.744 1.919-8.626.139-.659.387-.946 1.092-.882.658.061 1.336.092 1.987.004 1.14-.153 1.171.353.97 1.243a1043.64 1043.64 0 0 0-2.903 13.214zm-11.709 5.827c.339.049.555.199.585.53.024.279.085.62-.246.764-.282.122-.465.046-.681-.278-.28-.419-.518-.146-.617.255-.121.492-.287.972-.416 1.462-.084.32-.295.398-.578.325-.354-.091-.108-.347-.144-.511.096-.446.19-.869.278-1.294.271-1.301.487-1.443 1.819-1.253zm-3.118 2.634c-.22.596-.692.471-1.099.417-.523-.069-.233-.514-.274-.794-.037-.248-.007-.507-.006-.761l-.167-.015c-.164.393-.351.779-.488 1.181-.186.545-.63.408-1.012.395-.473-.016-.325-.403-.334-.659a27.408 27.408 0 0 1-.002-1.744c.009-.322-.002-.673.504-.666.566.008.389.402.4.696.011.287.001.575 0 .933.659-.485.325-1.997 1.634-1.585.743.235.076 1.043.39 1.594.408-.347.42-.863.609-1.277.135-.294.316-.393.597-.322.446.111.176.43.108.606-.262.676-.609 1.321-.86 2.001zm-1.18-12.352c-.321.794-.189 1.083.668.967 1.101-.15 1.267.238.967 1.26-.771 2.637-.723 2.673-3.528 2.634-3.094-.043-6.203.245-9.277-.155-3.783-.493-5.692-2.628-5.702-6.401-.009-3.382.926-6.546 2.964-9.314 1.275-1.731 2.98-2.883 5.102-3.427.326-.084.752.001.98-.369l3.763.014c.034.176.166.193.318.222 4.25.808 6.61 4.369 5.713 8.565-.443 2.072-1.179 4.049-1.968 6.004zM47.975 4.292c-2.215-.764-4.688.045-5.882 2.039-1.188 1.985-1.701 4.177-1.561 6.479.104 1.691 1.137 2.646 2.841 2.751.624.039 1.253.011 1.879.013v.019c.553.002 1.11-.041 1.657.017.797.085 1.193-.186 1.375-.994.271-1.203.696-2.371 1.022-3.563.344-1.259.814-2.496.739-3.838-.084-1.487-.778-2.477-2.07-2.923zM33.281 7.821c-.319-.059-.659-.011-.99-.013-2.237-.009-2.245-.011-1.747-2.109.459-1.933.06-1.617 2.107-1.625 2.663-.01 2.637.001 2.133 2.537-.174.881-.494 1.397-1.503 1.21zm.211 1.044c.567-.018.712.206.594.715-.928 3.997-1.784 8.012-2.805 11.985-.481 1.87-1.424 3.53-3.574 4.061-.799.198-1.61.103-2.218.121-2.586-.039-2.559-.034-2.051-2.306.232-1.035.447-1.869 1.87-1.632.913.152 1.32-.672 1.664-1.354.666-1.318.772-2.792 1.113-4.2a240.088 240.088 0 0 0 1.502-6.585c.131-.622.4-.85 1.035-.819.955.046 1.914.042 2.87.014zm-18.525 6.387c-3.457.324-6.778-1.578-8.23-4.713-1.105-2.383-.823-5.021.825-6.604-1.594 6.316 6.445 12.451 12.465 8.246-.384 1.539-2.517 2.834-5.06 3.071zm-1.48-6.461c-2.152-1.448-2.891-4.115-1.506-5.938.037 2.019.693 3.651 2.339 4.738 1.591 1.051 3.307 1.343 5.23.501-1.143 1.86-3.955 2.118-6.063.699zm-6.596 8.357c4.026 2.719 8.265 2.86 12.612.13-.116.73-.505 1.068-.835 1.42-3.727 3.98-10.303 4.06-14.762.186-1.671-1.451-2.845-3.22-3.494-5.33-.089-.29-.042-.67-.412-.834l.014-3.5c.634-1.181.863-2.601 2.253-3.618-1.1 5.009.607 8.833 4.624 11.546zm51.993 6.976c-.239-.006-.46-.093-.433-.36.037-.373.282-.558.673-.534.271.016.372.169.382.376-.076.374-.287.527-.622.518zm-.82.457c.453-.183 1.004-.173 1.244.453.004.008.128-.028.196-.044-.016-.633.846-.581.941-1.175.02-.126.478-.216.546.183.038.224-.13.532.306.541.168.002.391-.01.377.26-.012.251-.182.336-.404.438-.91.416-.968.946-.198 1.679.126.119.168.223.1.368-.2.429-.603.34-.958.347-.39.007-.648-.204-.655-.582-.006-.32.1-.641.147-.962.052-.349.203-.722-.204-.979-.805.02-.434.731-.653 1.095-.266.444.092 1.461-.688 1.309-.61-.118-.135-.976-.105-1.506.01-.179.104-.365.071-.531-.061-.306-.761-.613-.063-.894zm6.253.099c.458.191.488.671.42 1.139-.08.546-.443.582-.882.559-.392-.021-.785-.007-1.387-.009.487.662.963.489 1.377.541.174.022.402-.027.456.195.048.201-.106.365-.289.404-.718.154-1.471.361-2.094-.206-.435-.396-.213-1.763.352-2.317.596-.585 1.338-.602 2.047-.306zm2.815.291c.052-.245.236-.533.057-.728-.246-.269-.491-.499-.105-.782.277-.202.665-.163.958-.052.488.184.126.577.079.84-.172.965-.425 1.914-.622 2.874-.066.318-.136.586-.539.502-.408-.085-.175-.399-.216-.744.113-.56.247-1.235.388-1.91zm3.578-.324c.576.163.55.681.533 1.169-.021.58-.403.577-.834.589-.384.009-.794-.124-1.245.176.295.425.689.311 1.036.36.22.032.582-.125.574.288-.007.328-.321.379-.567.388-.669.025-1.483.323-1.869-.468-.367-.751-.045-1.507.447-2.112.498-.613 1.239-.585 1.925-.39zm1.164 2.318c.445-.073.963.178 1.326-.275-.117-.26-.371-.199-.563-.275-.325-.13-.897.216-.951-.424-.05-.603.246-1.047.813-1.286.164-.069.359-.134.528-.11.461.062 1.232-.252 1.279.386.044.579-.695.227-1.074.327-.214.056-.432.067-.579.27.073.352.391.215.604.292.303.11.815-.2.887.356.063.486-.088.928-.55 1.217-.578.362-1.198.248-1.814.176-.207-.024-.326-.151-.302-.367.026-.232.212-.257.396-.287zm3.028.008c.451-.065.959.164 1.479-.375-.299-.071-.482-.085-.637-.157-.336-.158-.974.243-.989-.511-.012-.623.313-1.022.875-1.248.132-.053.29-.097.427-.078.471.066 1.269-.257 1.321.344.059.686-.737.246-1.133.381-.201.069-.433.056-.521.311.145.293.444.171.67.247.279.093.729-.183.818.305.073.402-.021.796-.344 1.096-.618.575-1.357.433-2.083.329-.156-.022-.242-.157-.237-.318.007-.22.152-.296.354-.326zm3.389-.112c.314.128.232.402.215.647-.014.205-.151.415.023.613a262.86 262.86 0 0 0-.886-.004.48.48 0 0 0-.082-.498c-.196-.255-.076-.472.124-.658a.546.546 0 0 1 .606-.1zm4.053-2.237c.663.029 1.046-.07 1.128-.781.032-.275.252-.465.558-.381.406.113.171.401.126.621-.169.815-.366 1.626-.518 2.444-.137.736-.187 1.53-1.189 1.094-.848.14-1.57.236-1.679-.786-.121-1.135.631-2.252 1.574-2.211zm-.155 2.331c.76.066.547-.608.752-.932.023-.308.147-.643-.327-.659-.587-.02-.835.34-.944.848-.093.43.041.702.519.743zm3.88-2.329c.816-.019 1.36.243 1.328 1.168-.041 1.18-.782 1.945-1.903 1.945-.77.012-1.272-.25-1.262-1.119.014-1.19.722-1.969 1.837-1.994zm-.451 2.375c.636-.012.861-.432.915-.995.039-.402-.146-.606-.539-.65-.645.032-.859.466-.924 1.006-.046.383.145.647.548.639zm4.026-1.226c.161-.649.115-1.565 1.116-1.052.796-.153 1.435.111 2.094-.05.521-.127.886.248.855.744-.042.682-.227 1.355-.349 2.031-.052.293-.27.31-.497.278-.247-.034-.245-.22-.221-.41.05-.396.091-.793.149-1.188.039-.26.099-.535-.251-.61-.442-.096-.442.243-.495.531-.071.393-.17.78-.235 1.173-.054.328-.172.569-.56.498-.405-.073-.243-.375-.217-.606.044-.396.114-.791.156-1.188.02-.183-.008-.371-.238-.422-.267-.059-.405.069-.461.322-.108.496-.226.99-.339 1.485-.064.278-.196.453-.527.415-.419-.048-.301-.331-.26-.565.082-.464.166-.929.28-1.386zm6.361-1.116c.794.003 1.263.316 1.239 1.156-.034 1.19-.78 1.96-1.895 1.961-.766.019-1.295-.239-1.303-1.097-.011-1.203.796-2.023 1.959-2.02zm-.526 2.379c.651-.01.841-.491.926-1.016.067-.414-.201-.579-.586-.631-.62.055-.848.463-.904 1.02-.04.406.175.633.564.627zm2.346-1.269c.213-.982.983-1.406 1.958-1.063.696.245.309.86.439 1.3-.218.008-.526.097-.62-.005-1.025-1.122-.891.047-1.092.528-.07.166-.08.356-.155.519-.137.297-.092.848-.635.687-.558-.166-.108-.604-.108-.905-.001-.354.137-.707.213-1.061zm4.464-1.106c.694.09 1.064.315 1.083 1.067.021.821-.461.837-1.065.818-.309-.01-.659-.123-.971.186.226.389.612.272.941.313.231.03.591-.105.617.26.028.392-.346.402-.63.454-1.446.267-1.801-.043-2.022-1.757l-.017.018v-.001.001c-.002-.005-.002-.011-.003-.016l.018-.002c.561-.623.928-1.487 2.049-1.341zm1.741 2.255c.25-.016.444.086.452.339.01.328-.181.522-.264.529-.503.024-.715-.034-.713-.312.003-.324.174-.533.525-.556z" fill="currentColor" fill-rule="evenodd"/>
    </symbol>
    <symbol id="icon-linux" viewBox="0 0 26 31">
      <path d="M3.293 22.265c.227.729-.14 1.455-.832 1.685-.372.124-.756.16-2.149.123.282-.067.044.234.272.917.077.231.182.455.29.674.244.496.257.986-.002 1.481a5.338 5.338 0 0 0-.273.602c-.171.455-.065.698.392.852.599.202 1.224.3 1.845.411 1.232.221 2.423.596 3.618.96.608.185 1.223.311 1.859.121.802-.241 1.183-.827 1.084-1.672-.082-.697-.332-1.334-.691-1.922-.811-1.326-1.622-2.652-2.574-3.881-.33-.426-.68-.836-1.135-1.134-.358-.234-.729-.33-1.124-.075-.28.181-.31-.052-.332-.232-.074-.607-.072-1.228.253-1.755.675-1.097 1.025-2.325 1.479-3.512.343-.897.767-1.736 1.391-2.482a15.06 15.06 0 0 0 1.841-2.733c.164-.317.206-.632.175-.99-.167-1.934-.308-3.873-.197-5.812C8.632 1.284 10.57-.286 13.14.043c.543.07 1.077.175 1.592.367 1.551.581 2.343 1.832 2.844 3.329.22.656.264 1.336.259 2.032-.02 2.746.821 5.142 2.675 7.219 1.867 2.09 2.738 4.65 2.904 7.454.02.345-.043.686-.148 1.015-.079.25-.196.456-.472.562-.27.104-.396.388-.561.613-.378.514-.806.946-1.463 1.075-.865.171-1.458-.115-1.848-.914-.102-.21-.196-.423-.346-.603-.304-.361-.609-.326-.82.103a2.369 2.369 0 0 0-.14 1.727c.39 1.325.286 2.644.104 3.978-.104.753-.004 1.481.705 1.914.721.44 1.491.291 2.073-.222 1.217-1.072 2.601-1.778 4.12-2.264.265-.084.509-.231.729-.409.429-.347.423-.677-.021-1.014-.295-.223-.641-.341-.979-.476-.921-.367-1.421-1.96-.853-2.819.049.292.086.555.138.815.165.818.596 1.438 1.338 1.824.304.158.594.335.819.602.273.326.282.663.028 1.006a2.314 2.314 0 0 1-.535.496 6.538 6.538 0 0 1-1.205.68c-1.292.553-2.392 1.39-3.425 2.331-.974.886-2.854.638-3.555-.48-.22-.352-.511-.551-.914-.581-1.273-.095-2.546-.058-3.819-.015-.231.007-.461.032-.691.031-.856-.006-1.646.226-2.298.782-.881.75-1.813.84-2.847.405-1.678-.704-3.443-1.084-5.224-1.4a3.117 3.117 0 0 1-.658-.205c-.571-.24-.744-.605-.593-1.204.012-.048.024-.097.048-.139.489-.874.464-1.778.157-2.7a1.58 1.58 0 0 1-.065-.362c-.045-.543.124-.772.655-.868.202-.036.409-.041.615-.057.327-.025.651-.06.947-.225.468-.259.84-.589.883-1.181zm9.344-15.329c-.302-.159-.607-.164-.907-.132-.321.034-.452-.061-.447-.411.005-.468-.077-.931-.326-1.342-.385-.637-1.048-.628-1.408.025-.1.179-.171.38-.221.581-.154.613-.028 1.192.251 1.743.049.096.111.215.24.187a.335.335 0 0 0 .253-.243c.038-.15-.122-.118-.191-.168-.369-.268-.455-1.142-.141-1.478a.595.595 0 0 1 .959.115c.167.296.205.624.194.961a.266.266 0 0 1-.111.219c-.404.307-.653.796-1.157.989-.093.035-.168.141-.231.229-.209.293-.167.479.122.706.152.12.305.25.421.403.265.353.611.487 1.038.51.971.052 1.862-.282 2.763-.563.347-.108.682-.255.902-.584.083-.123.218-.176.339-.042.125.139.074.273-.056.38a.47.47 0 0 1-.16.083c-.769.23-1.477.617-2.223.906-.614.238-1.241.323-1.892.206-.109-.02-.226-.066-.352.022.323.457.714.705 1.266.695a3.04 3.04 0 0 0 1.325-.348c.412-.208.811-.442 1.218-.66.16-.085.319-.179.506-.193.103-.008.194.008.246.114.057.117-.018.189-.097.246a1.94 1.94 0 0 1-.311.189c-.665.309-1.263.726-1.847 1.167a5.656 5.656 0 0 1-.732.48c-.536.286-.886.219-1.306-.221-.287-.303-.506-.658-.744-.999-.094-.134-.165-.296-.392-.396.031.883-.453 1.534-.802 2.239-.027.055-.053.11-.078.166-.251.539-.38 1.089-.127 1.666.046.105.018.158-.053.25-1.065 1.36-1.726 2.883-1.779 4.642-.012.429.046.86-.035 1.286-.029.153-.034.342-.224.387-.194.045-.315-.101-.419-.238-.281-.369-.407-.799-.491-1.252-.091-.497.012-.984.067-1.578-.327.454-.377.873-.352 1.302.042.718.126 1.459.652 1.98a23.02 23.02 0 0 0 1.984 1.784c.643.504 1.28 1.015 1.895 1.553.612.534.462 1.51-.284 1.767-.381.132-.285.273-.129.491.071.099.131.207.206.303.426.55.651 1.17.658 1.872.001.096-.045.223.093.297.285-.201.357-.484.296-.807a2.476 2.476 0 0 0-.444-.998c-.077-.105-.312-.201-.104-.383.178-.156.358-.171.54.027.257.277.595.417.953.507.476.121.964.127 1.447.08 1.424-.137 2.77-.444 3.575-1.828.018-.031.045-.058.07-.084.076-.08.153-.177.275-.149.142.033.168.17.183.289.021.17.024.343.028.515.013.552-.18 1.059-.345 1.572-.075.233-.159.466-.142.716.011.165.098.281.269.296.197.018.142-.162.175-.261.039-.114.045-.24.07-.36.261-1.263.526-2.521.239-3.824-.126-.574-.17-1.165-.073-1.757.112-.681.377-.982 1.038-1.137.1-.023.177-.038.202-.164.124-.622.581-.83 1.134-.91.572-.083 1.113.039 1.699.322-.198-.335-.453-.459-.703-.57-.187-.084-.216-.184-.161-.367.242-.805.22-1.612.081-2.439-.218-1.288-.67-2.454-1.546-3.432-.114-.127-.244-.24-.366-.359.014.137.074.226.132.315.748 1.15 1.306 2.381 1.516 3.751.107.697.113 1.398-.126 2.074-.155.438-.536.642-1.021.583-.434-.052-.485-.392-.519-.728-.03-.305-.038-.612-.042-.919-.008-.517-.03-1.033-.139-1.538-.247-1.137-.438-2.3-1.312-3.172-.084-.083-.076-.204-.102-.31-.253-1.057-.615-2.062-1.285-2.937A1.71 1.71 0 0 1 15.4 9.31c.044-.166.087-.332.125-.5.12-.525-.006-.778-.518-.905-.467-.115-.868-.379-1.311-.532-.42-.145-.487-.428-.47-.792.007-.17.028-.344.076-.507.101-.339.291-.591.679-.618.387-.026.68.138.848.504.166.359.199.723.04 1.103-.133.319-.007.458.335.427.249-.023.382-.16.397-.396.04-.603.038-1.202-.216-1.769-.283-.63-.821-.963-1.445-.886-.728.09-1.185.547-1.317 1.265-.076.406.03.805.014 1.232zm-2.038-.484a.837.837 0 0 0-.17-.505c-.044-.056-.115-.095-.187-.033-.056.049-.054.122.004.153.178.095.152.252.139.408-.007.089.007.2.103.2.137.001.1-.133.111-.223zm3.528-.646c.112.142.254.219.317.364.041.094.023.31.187.232.127-.06.055-.242-.015-.356-.099-.163-.213-.32-.489-.24z" fill="currentColor" fill-rule="evenodd"/>
    </symbol>
    <symbol id="icon-macos" viewBox="0 0 30 29">
      <path d="M10.245 6.509c-1.327.66-2.49 1.555-3.623 2.49a27.85 27.85 0 0 0-3.134 3.039c.179-.829.478-1.609.839-2.368 1.978-4.155 5.304-6.614 9.813-7.569.963-.205 1.947-.232 2.93-.198.254.009.485-.04.717-.142 1.6-.71 3.243-1.298 4.979-1.58 1.467-.238 2.936-.321 4.364.251 1.578.631 2.389 1.785 2.419 3.458.028 1.567-.382 3.038-1.104 4.425-.125.239-.116.409.01.641 1.278 2.354 1.722 4.873 1.483 7.519-.037.407-.046.406-.452.406H18.949l-7.947.001c-.379 0-.415.04-.371.401.409 3.329 2.647 4.777 5.195 5.173 2.656.412 4.723-.604 6.243-2.756.089-.127.185-.189.338-.189 2.193.001 4.386.002 6.578-.002.193 0 .209.05.14.22-1.828 4.486-5.111 7.338-9.896 8.388-2.862.628-5.682.348-8.36-.91-.253-.118-.447-.113-.69.025-1.588.904-3.281 1.518-5.11 1.726a6.048 6.048 0 0 1-2.637-.267C1.157 28.262.505 27.302.204 26.076c-.336-1.37-.218-2.739.084-4.101.503-2.263 1.515-4.314 2.682-6.3 1.927-3.28 4.321-6.2 7.049-8.86.091-.089.202-.158.304-.237l-.078-.069zm6.447 6.697h5.656c.375 0 .382-.005.356-.384-.059-.9-.371-1.716-.878-2.46-1.47-2.16-4.404-3.145-7.04-2.293-2.288.739-3.747 2.242-4.094 4.665-.066.455-.047.472.405.472h5.595zm-12.84 6.416a9.454 9.454 0 0 0-.878 1.758c-.493 1.308-.89 2.634-.756 4.059.11 1.172.719 1.94 1.852 2.298.448.142.91.213 1.379.183 1.502-.095 2.885-.565 4.216-1.319-2.723-1.679-4.687-3.952-5.813-6.979zM21.506 2.789c2.73 1.052 4.865 2.839 6.514 5.316.486-1.394.991-2.704.724-4.141-.199-1.069-.817-1.81-1.883-2.141a4.603 4.603 0 0 0-1.647-.184c-1.246.074-2.412.43-3.518.988-.066.033-.159.04-.19.162z" fill="currentColor" fill-rule="evenodd"/>
    </symbol>
    <symbol id="icon-responcive" viewBox="0 0 43 31">
      <path d="M41.984 29.51l-14.303.312c-.828.017-1.083-.226-1.099-1.044-.023-1.178-.057-2.355-.059-3.533-.001-.34-.112-.423-.446-.416-6.46.15-12.921.291-19.381.422-.343.007-.434.111-.423.442.041 1.211.055 2.423.075 3.635.011.707-.233.961-.944.978-1.434.036-2.867.067-4.301.094-.676.013-.939-.239-.952-.913-.056-2.782-.108-5.564-.158-8.346-.012-.694.241-.942.962-.963.885-.027.885-.027.869-.909-.105-5.548-.208-11.095-.318-16.642-.011-.55.088-1.052.47-1.472.336-.368.762-.491 1.255-.501C8.275.551 13.319.438 18.363.328L33.391.001c1.199-.026 1.865.598 1.89 1.792.059 2.867.119 5.735.153 8.602.005.426.118.539.551.524 1.882-.065 3.765-.094 5.648-.133.828-.017 1.083.225 1.098 1.044l.313 16.59c.015.818-.23 1.071-1.06 1.09zm-38.717.245c.267-.013.39-.174.41-.442-.03-.227-.166-.357-.409-.335-.235.021-.378.162-.377.403 0 .238.119.387.376.374zM.89 21.998c-.282.004-.39.074-.383.376.049 1.944.085 3.889.111 5.834.004.278.073.387.379.378a200.4 200.4 0 0 1 4.454-.096c.344-.003.39-.14.381-.429-.032-.955-.042-1.911-.06-2.866-.018-.973-.045-1.945-.049-2.917-.002-.279-.073-.387-.379-.378a254.31 254.31 0 0 1-4.454.098zm.916-.893l.003.112 2.503-.054-.005-.112-2.501.054zM33.147 2.703c-.005-.445-.115-.569-.579-.558-4.714.121-9.429.217-14.143.32-4.715.103-9.429.214-14.144.296-.513.009-.616.157-.605.64.115 5.119.204 10.238.302 15.356.009.425-.118.967.097 1.241.233.298.805.068 1.229.081.585.019.862.259.883.83.021.563.051 1.128.026 1.689-.019.421.107.542.546.531 6.389-.154 12.779-.293 19.169-.419.421-.008.55-.106.54-.541-.082-3.327-.137-6.654-.199-9.982-.015-.817.231-1.07 1.059-1.089 1.814-.041 3.627-.095 5.44-.108.445-.004.535-.143.524-.557a486.06 486.06 0 0 1-.145-7.73zm7.461 10.812c-.006-.431-.092-.58-.57-.567-3.679.102-7.358.182-11.037.24-.481.008-.559.165-.547.594.062 2.217.093 4.436.135 6.655.042 2.219.095 4.437.116 6.656.004.431.092.58.571.567 3.678-.102 7.357-.183 11.036-.241.481-.008.557-.165.547-.593-.098-4.437-.182-8.874-.251-13.311zM15.215 26.101c.091-.314.27-.409.597-.414 2-.028 4.001-.071 6-.131.364-.011.529.116.621.448.181.656.408 1.3.583 1.958.101.38.367.674.462 1.063.112.46-.078.667-.455.819-.282.112-.577.09-.869.096-1.172.027-2.345.052-3.517.077l-.001-.038c-1.259.028-2.517.058-3.776.082-.608.012-.757-.19-.586-.769.315-1.063.636-2.125.941-3.191z" fill="currentColor" fill-rule="evenodd"/>
    </symbol>
    <symbol id="icon-sass" viewBox="0 0 68 50">
      <path d="M42.762 1.464c1.189.633 2.475 1.072 3.601 1.834 1.878 1.271 3.51 2.759 4.132 5.005.77 2.786-.102 5.282-1.766 7.478-3.248 4.287-7.716 6.433-13.071 6.83-3.671.271-7.256-.155-10.677-1.596-1.707-.719-3.011-1.89-3.882-3.52a3.457 3.457 0 0 1-.405-1.705c.004-.234.082-.43.334-.488.219-.051.362.086.458.258 1.668 3 4.574 3.782 7.673 4.104 4.719.49 9.186-.302 13.235-2.851 1.618-1.019 3.023-2.274 3.872-4.017 1.18-2.422.611-4.337-1.672-5.829-2.45-1.603-5.209-2.285-8.074-2.49-7.225-.516-14.057 1.019-20.574 4.024a13.66 13.66 0 0 0-3.622 2.422c-3.195 2.985-3.612 6.363-1.289 10.149 1.144 1.864 2.544 3.546 3.845 5.298.675.91 1.343 1.825 1.886 2.819.177.325.347.476.757.376 2.313-.567 4.633-1.108 6.952-1.649.255-.06.42-.235.615-.374 1.422-1.018 2.967-1.781 4.708-2.077 1.121-.192 2.281-.216 3.09.743.797.944.448 2.03.144 3.069-.081.277-.188.547-.301.873.282-.012.492-.047.697-.026 1.133.117 1.61.967 1.052 1.939-1.096 1.907-2.243 3.785-3.243 5.746a6.452 6.452 0 0 0-.593 1.815c.365.129.483-.134.63-.294 3.313-3.643 6.371-7.494 9.452-11.326.25-.311.464-.671.606-1.041.334-.868.976-1.049 1.82-.937.704.093 1.4.215 2.048.499.782.344.922.764.416 1.44-1.077 1.437-1.718 3.017-1.835 4.812-.052.787.146 1.523.307 2.45 2.354-2.499 4.984-4.521 6.61-7.443.293-.526.475-1.294 1.297-1.282 1.165.017 2.351.046 3.308.86.386.329.175.678-.051.999-.954 1.356-1.704 2.779-1.852 4.479-.103 1.18.19 2.288.416 3.414.106.522.517.283.792.245 2.763-.38 5.424.012 7.938 1.172 2.714 1.252 4.678 3.197 5.287 6.218.115.57.11 1.162.16 1.744l-.51 1.864c-.848 1.24-1.935 2.145-3.48 2.388-.384.061-.937.271-1.07-.206-.14-.501.478-.46.798-.575 1.885-.676 2.793-2.087 2.53-3.971-.197-1.42-.868-2.606-1.946-3.529-2.741-2.348-5.98-3.267-9.556-3.175-.474.012-.58.199-.535.646.116 1.145-.027 2.268-.675 3.245-1.52 2.289-5.554 3.079-7.274 2.652-.923-.229-1.348-.883-1.208-1.81.118-.787.49-1.473.972-2.096 1.11-1.436 2.576-2.426 4.186-3.235.218-.11.584-.124.484-.518-.434-1.719-.5-3.466-.332-5.402-.278.261-.414.377-.536.506-1.218 1.292-2.399 2.637-3.809 3.717-1.1.843-1.526 1.744-1.431 3.15.146 2.138-.871 3.795-2.866 4.713-1.685.775-3.485.975-5.32.608-.781-.157-1.723-.223-1.928-1.207-.197-.94.616-1.353 1.232-1.811 1.664-1.239 3.456-2.304 5.078-3.604.34-.273.453-.517.35-.952-.375-1.572-.564-3.165-.416-4.785.018-.188-.022-.381-.045-.707-.326.395-.555.655-.764.929-2.496 3.275-5.252 6.325-8.16 9.243-.748.751-1.563 1.414-2.608 1.714-.931.268-1.748-.194-2.028-1.114-.119-.391-.105-.794-.088-1.197.045-1.024.36-1.986.694-2.953-.203.164-.351.35-.504.533-.998 1.195-1.928 2.458-3.161 3.435-1.521 1.205-3.428.675-4.049-1.146-.679-1.994-.596-4.009.017-6.008.455-1.484 1.203-2.84 2.028-4.327-1.375.355-2.599.683-3.83.983-.438.107-.344.39-.316.686.466 5.031-2.793 10.018-7.6 11.709-1.691.594-3.423.707-5.188.641l-2.515-.679c-.129-.09-.247-.211-.39-.265-1.18-.44-1.795-1.33-2.074-2.498-.334-1.395-.076-2.708.516-3.984 1.043-2.249 2.998-3.454 5.162-4.41 2.36-1.042 4.833-1.729 7.36-2.248 1.059-.217 1.077-.246.418-1.052-1.212-1.482-2.472-2.926-3.677-4.414-2.698-3.331-5.316-6.705-5.321-11.276l.509-1.864c.061-.049.147-.086.179-.15 1.113-2.258 2.882-3.948 4.948-5.307C17.506 1.746 25.695.212 34.248.002c1.489-.036 2.946.304 4.427.358l4.087 1.104zm-27.599 33.1c.185-.495.189-1.116.267-1.726.066-.524-.106-.641-.628-.495-2.269.637-4.508 1.348-6.602 2.434-1.495.776-2.724 1.845-3.408 3.413-.725 1.661-.004 2.735 1.834 2.787 3.797.107 7.504-2.645 8.537-6.413zm8.27 1.367c-.171.695-.322 1.482-.222 2.292.072.589.367.759.878.404.198-.137.375-.306.547-.475 1.154-1.136 2.048-2.479 3.015-3.762 1.258-1.67 2.48-3.367 3.428-5.238.141-.278.343-.601.087-.898-.238-.277-.59-.201-.915-.154-.716.103-1.352.415-1.909.839-2.353 1.793-4.042 4.058-4.909 6.992zm27.837 3.254c-1.574.743-2.743 1.87-3.595 3.334-.163.28-.166.504.279.516 1.802.048 3.603-1.992 3.316-3.85zm-13.906 3.423c1.685.181 4.019-1.422 4.074-2.755-1.283 1.011-2.654 1.829-4.074 2.755z" fill="currentColor" fill-rule="evenodd"/>
    </symbol>
    <symbol id="icon-speedo" viewBox="30 10 40 35">
      <path fill="currentColor" d="M68.5 30.6v2.2c0 .1-.1.2-.1.3-.1 1.9-.5 3.7-1.2 5.5-.4 1-.9 1.4-1.9 1.4H34.7c-.8 0-1.4-.4-1.8-1.1-.5-1.2-.9-2.5-1.1-3.8-.1-.7-.2-1.4-.3-2.2v-2.3c0-.1.1-.2.1-.3.1-.8.2-1.7.4-2.5 2.2-10.9 13.7-17.5 24-13.7 6.7 2.5 10.8 7.4 12.2 14.5.2.7.2 1.3.3 2zm-18.6 4.5c.5 0 1.1-.2 1.4-.8 1.6-2.4 3.2-4.8 4.6-7.2.3-.4.5-.9.7-1.4 0-.1.1-.2 0-.2-.1-.1-.2 0-.3 0-.4.2-.8.5-1.2.8-2.3 1.7-4.4 3.6-6.6 5.4-.5.5-.7 1.3-.5 2.1.3.8 1 1.3 1.9 1.3zm1.3-17.7v-.9c0-.7-.5-1.2-1.1-1.2-.7 0-1.2.5-1.2 1.2v1.8c0 .7.5 1.2 1.2 1.2.6 0 1.1-.5 1.2-1.2-.1-.3-.1-.6-.1-.9zM35.8 33h.9c.6 0 1.1-.5 1.1-1.2 0-.6-.5-1.1-1.1-1.2h-1.8c-.6 0-1.1.5-1.1 1.2 0 .6.5 1.1 1.1 1.2h.9zm28.4-2.4h-.9c-.7 0-1.2.5-1.2 1.1 0 .7.5 1.2 1.2 1.2h1.8c.6 0 1.1-.5 1.1-1.2 0-.6-.5-1.1-1.1-1.2-.3.1-.6.1-.9.1zM37 23c-.5 0-1 .3-1.1.8-.2.5 0 1 .5 1.3.5.3 1.1.7 1.6.9.5.3 1.2.1 1.5-.5.3-.5.2-1.2-.4-1.6-.5-.3-1.1-.6-1.6-1-.2.1-.3.1-.5.1zm27.2 1.3c0-1-.9-1.6-1.7-1.2L61 24c-.6.4-.8 1-.5 1.6.3.6 1 .8 1.6.4l1.5-.9c.4-.1.6-.5.6-.8zm-21.6-6.9c-1 0-1.6.9-1.2 1.7.3.5.6 1 .9 1.6.3.6 1 .7 1.6.4.5-.3.7-1 .4-1.6-.3-.5-.6-1.1-.9-1.6-.2-.3-.5-.5-.8-.5zm14.9 0c-.4 0-.7.1-.9.5-.4.6-.7 1.2-1 1.8-.3.5 0 1.2.5 1.5.5.3 1.2.2 1.5-.3.4-.6.7-1.1 1-1.7.3-.9-.2-1.8-1.1-1.8z"/>
    </symbol>
    <symbol id="icon-windows" viewBox="0 0 26 31">
      <path d="M3.293 22.265c.227.729-.14 1.455-.832 1.685-.372.124-.756.16-2.149.123.282-.067.044.234.272.917.077.231.182.455.29.674.244.496.257.986-.002 1.481a5.338 5.338 0 0 0-.273.602c-.171.455-.065.698.392.852.599.202 1.224.3 1.845.411 1.232.221 2.423.596 3.618.96.608.185 1.223.311 1.859.121.802-.241 1.183-.827 1.084-1.672-.082-.697-.332-1.334-.691-1.922-.811-1.326-1.622-2.652-2.574-3.881-.33-.426-.68-.836-1.135-1.134-.358-.234-.729-.33-1.124-.075-.28.181-.31-.052-.332-.232-.074-.607-.072-1.228.253-1.755.675-1.097 1.025-2.325 1.479-3.512.343-.897.767-1.736 1.391-2.482a15.06 15.06 0 0 0 1.841-2.733c.164-.317.206-.632.175-.99-.167-1.934-.308-3.873-.197-5.812C8.632 1.284 10.57-.286 13.14.043c.543.07 1.077.175 1.592.367 1.551.581 2.343 1.832 2.844 3.329.22.656.264 1.336.259 2.032-.02 2.746.821 5.142 2.675 7.219 1.867 2.09 2.738 4.65 2.904 7.454.02.345-.043.686-.148 1.015-.079.25-.196.456-.472.562-.27.104-.396.388-.561.613-.378.514-.806.946-1.463 1.075-.865.171-1.458-.115-1.848-.914-.102-.21-.196-.423-.346-.603-.304-.361-.609-.326-.82.103a2.369 2.369 0 0 0-.14 1.727c.39 1.325.286 2.644.104 3.978-.104.753-.004 1.481.705 1.914.721.44 1.491.291 2.073-.222 1.217-1.072 2.601-1.778 4.12-2.264.265-.084.509-.231.729-.409.429-.347.423-.677-.021-1.014-.295-.223-.641-.341-.979-.476-.921-.367-1.421-1.96-.853-2.819.049.292.086.555.138.815.165.818.596 1.438 1.338 1.824.304.158.594.335.819.602.273.326.282.663.028 1.006a2.314 2.314 0 0 1-.535.496 6.538 6.538 0 0 1-1.205.68c-1.292.553-2.392 1.39-3.425 2.331-.974.886-2.854.638-3.555-.48-.22-.352-.511-.551-.914-.581-1.273-.095-2.546-.058-3.819-.015-.231.007-.461.032-.691.031-.856-.006-1.646.226-2.298.782-.881.75-1.813.84-2.847.405-1.678-.704-3.443-1.084-5.224-1.4a3.117 3.117 0 0 1-.658-.205c-.571-.24-.744-.605-.593-1.204.012-.048.024-.097.048-.139.489-.874.464-1.778.157-2.7a1.58 1.58 0 0 1-.065-.362c-.045-.543.124-.772.655-.868.202-.036.409-.041.615-.057.327-.025.651-.06.947-.225.468-.259.84-.589.883-1.181zm9.344-15.329c-.302-.159-.607-.164-.907-.132-.321.034-.452-.061-.447-.411.005-.468-.077-.931-.326-1.342-.385-.637-1.048-.628-1.408.025-.1.179-.171.38-.221.581-.154.613-.028 1.192.251 1.743.049.096.111.215.24.187a.335.335 0 0 0 .253-.243c.038-.15-.122-.118-.191-.168-.369-.268-.455-1.142-.141-1.478a.595.595 0 0 1 .959.115c.167.296.205.624.194.961a.266.266 0 0 1-.111.219c-.404.307-.653.796-1.157.989-.093.035-.168.141-.231.229-.209.293-.167.479.122.706.152.12.305.25.421.403.265.353.611.487 1.038.51.971.052 1.862-.282 2.763-.563.347-.108.682-.255.902-.584.083-.123.218-.176.339-.042.125.139.074.273-.056.38a.47.47 0 0 1-.16.083c-.769.23-1.477.617-2.223.906-.614.238-1.241.323-1.892.206-.109-.02-.226-.066-.352.022.323.457.714.705 1.266.695a3.04 3.04 0 0 0 1.325-.348c.412-.208.811-.442 1.218-.66.16-.085.319-.179.506-.193.103-.008.194.008.246.114.057.117-.018.189-.097.246a1.94 1.94 0 0 1-.311.189c-.665.309-1.263.726-1.847 1.167a5.656 5.656 0 0 1-.732.48c-.536.286-.886.219-1.306-.221-.287-.303-.506-.658-.744-.999-.094-.134-.165-.296-.392-.396.031.883-.453 1.534-.802 2.239-.027.055-.053.11-.078.166-.251.539-.38 1.089-.127 1.666.046.105.018.158-.053.25-1.065 1.36-1.726 2.883-1.779 4.642-.012.429.046.86-.035 1.286-.029.153-.034.342-.224.387-.194.045-.315-.101-.419-.238-.281-.369-.407-.799-.491-1.252-.091-.497.012-.984.067-1.578-.327.454-.377.873-.352 1.302.042.718.126 1.459.652 1.98a23.02 23.02 0 0 0 1.984 1.784c.643.504 1.28 1.015 1.895 1.553.612.534.462 1.51-.284 1.767-.381.132-.285.273-.129.491.071.099.131.207.206.303.426.55.651 1.17.658 1.872.001.096-.045.223.093.297.285-.201.357-.484.296-.807a2.476 2.476 0 0 0-.444-.998c-.077-.105-.312-.201-.104-.383.178-.156.358-.171.54.027.257.277.595.417.953.507.476.121.964.127 1.447.08 1.424-.137 2.77-.444 3.575-1.828.018-.031.045-.058.07-.084.076-.08.153-.177.275-.149.142.033.168.17.183.289.021.17.024.343.028.515.013.552-.18 1.059-.345 1.572-.075.233-.159.466-.142.716.011.165.098.281.269.296.197.018.142-.162.175-.261.039-.114.045-.24.07-.36.261-1.263.526-2.521.239-3.824-.126-.574-.17-1.165-.073-1.757.112-.681.377-.982 1.038-1.137.1-.023.177-.038.202-.164.124-.622.581-.83 1.134-.91.572-.083 1.113.039 1.699.322-.198-.335-.453-.459-.703-.57-.187-.084-.216-.184-.161-.367.242-.805.22-1.612.081-2.439-.218-1.288-.67-2.454-1.546-3.432-.114-.127-.244-.24-.366-.359.014.137.074.226.132.315.748 1.15 1.306 2.381 1.516 3.751.107.697.113 1.398-.126 2.074-.155.438-.536.642-1.021.583-.434-.052-.485-.392-.519-.728-.03-.305-.038-.612-.042-.919-.008-.517-.03-1.033-.139-1.538-.247-1.137-.438-2.3-1.312-3.172-.084-.083-.076-.204-.102-.31-.253-1.057-.615-2.062-1.285-2.937A1.71 1.71 0 0 1 15.4 9.31c.044-.166.087-.332.125-.5.12-.525-.006-.778-.518-.905-.467-.115-.868-.379-1.311-.532-.42-.145-.487-.428-.47-.792.007-.17.028-.344.076-.507.101-.339.291-.591.679-.618.387-.026.68.138.848.504.166.359.199.723.04 1.103-.133.319-.007.458.335.427.249-.023.382-.16.397-.396.04-.603.038-1.202-.216-1.769-.283-.63-.821-.963-1.445-.886-.728.09-1.185.547-1.317 1.265-.076.406.03.805.014 1.232zm-2.038-.484a.837.837 0 0 0-.17-.505c-.044-.056-.115-.095-.187-.033-.056.049-.054.122.004.153.178.095.152.252.139.408-.007.089.007.2.103.2.137.001.1-.133.111-.223zm3.528-.646c.112.142.254.219.317.364.041.094.023.31.187.232.127-.06.055-.242-.015-.356-.099-.163-.213-.32-.489-.24z" fill="currentColor" fill-rule="evenodd"/>
    </symbol>
    <symbol id="icon-wordpress" viewBox="0 0 464 465">
      <g fill="currentColor"><path d="M429.5 232.7c0-20.5-3.2-40.3-8.9-58.8l-88.2 228.8c58.1-34.3 97.1-97.6 97.1-170zM169.6 419.9c19.6 6.6 40.6 10.1 62.5 10.1 22.9 0 44.8-3.9 65.2-11l-60.2-156.2-67.5 157.1zm-126.8-243c-5.2 17.7-8.1 36.4-8.1 55.8 0 74 40.7 138.4 100.9 172.2L43.4 178.2l-.6-1.3z"/><path d="M143.4 164.2l-8.5-.4c-18.5-.3-16.4 18.9-16.4 18.9l65.6 164.6 44.1-105.4-24.6-62.7c-9.9-16.6-33.9-16.4-33.9-16.4v-8.7h138l-.2 9.7-14.4.9c-17.9 0-14.3 17-14.3 17l59.9 159.9 17.2-44.3c30.4-69 11.7-120.1 11.7-120.1-30.5-62.7 8-71.7 8-71.7 2.4-.3 4.7-.5 7-.6-36.2-42.5-90.1-69.5-150.3-69.5C150.8 35.3 80.9 84.7 50.7 155l92.4-1 .3 10.2z"/><path d="M453.8 232c0 122.3-99.5 221.8-221.8 221.8-122.3 0-221.9-99.5-221.9-221.8 0-122.3 99.5-221.8 221.9-221.8 122.3 0 221.8 99.5 221.8 221.8M232 0C104.1 0 0 104.1 0 232.1s104.1 232 232 232 232-104.1 232-232C464 104.1 360 0 232 0"/></g>
    </symbol>
    <symbol id="in" viewBox="0 0 23 22">
      <path fill="currentColor" d="M23 13.5V22h-4.9v-7.9c0-2-.7-3.4-2.5-3.4-1.4 0-2.2.9-2.5 1.8-.1.3-.2.8-.2 1.2V22h-5S8 8.5 7.9 7.2h4.9v2.1c.7-1 1.8-2.5 4.4-2.5 3.4 0 5.8 2.1 5.8 6.7zM2.8 0C1.1 0 0 1.1 0 2.6 0 4 1.1 5.1 2.7 5.1c1.7 0 2.8-1.1 2.8-2.6 0-1.4-1-2.5-2.7-2.5zM.3 22h4.9V7.2H.3V22z"/>
    </symbol>
    <symbol id="less" viewBox="0 0 963 429">
      <g fill="currentColor"><path d="M766.57 208.967c35.909 12.563 53.856 34.088 53.856 64.543 0 20.046-7.443 35.957-22.296 47.725-14.838 11.776-36.005 19.084-63.557 19.084s-53.037-7.983-76.51-21.088c.254-6.95 2.09-14.575 5.463-22.852 3.372-8.277 7.363-14.853 11.936-19.656 21.573 11.211 40.346 16.826 56.28 16.826 7.532 0 13.359-1.264 17.415-3.809 4.063-2.536 6.083-5.94 6.083-10.217 0-8.039-6.226-14.05-18.638-18.058l-22.296-8.42c-33.73-12.294-50.596-32.324-50.596-60.147 0-20.316 7.085-36.418 21.255-48.33 14.17-11.895 33.269-22.137 57.283-22.137 11.88 0 24.96 1.67 39.272 5.01 14.297 3.348 26.042 11.594 35.218 16.125.54 7.49-.962 15.712-4.452 24.665-3.515 8.961-7.824 15.306-12.97 19.052-22.684-10.162-41.561-15.243-56.685-15.243-5.415 0-9.494 1.201-12.357 3.618-2.831 2.41-4.223 5.478-4.223 9.224 0 6.417 5.12 11.49 15.386 15.235l25.133 8.85zm-179.355 0c35.909 12.563 53.848 34.088 53.848 64.543 0 20.046-7.443 35.957-22.272 47.725-14.853 11.776-36.028 19.084-63.572 19.084-27.528 0-53.045-7.983-76.51-21.088.254-6.95 2.09-14.575 5.47-22.852 3.372-8.277 7.347-14.853 11.936-19.656 21.597 11.211 40.362 16.826 56.289 16.826 7.538 0 13.366-1.264 17.406-3.809 4.048-2.536 6.083-5.94 6.083-10.217 0-8.039-6.226-14.05-18.638-18.058l-22.281-8.42c-33.738-12.294-50.611-32.324-50.611-60.147 0-20.316 7.085-36.418 21.27-48.33 14.162-11.895 33.253-22.137 57.267-22.137 11.872 0 24.984 1.67 39.265 5.01 14.313 3.348 26.042 11.594 35.225 16.125.54 7.49-.962 15.712-4.452 24.665-3.507 8.961-7.824 15.306-12.961 19.052-22.694-10.162-41.571-15.243-56.702-15.243-5.407 0-9.502 1.201-12.35 3.618-2.822 2.41-4.23 5.478-4.23 9.224 0 6.417 5.129 11.49 15.395 15.235l25.125 8.85zm-130.795 2.83c0-12.293-1.956-23.656-5.868-34.089-3.904-10.432-9.51-19.378-16.794-26.868-7.292-7.49-16.126-13.367-26.511-17.645-10.401-4.27-22.074-10.71-35.027-10.71-15.387-.001-28.816 6.965-40.282 12.316-11.466 5.344-20.913 12.691-28.332 22.05-7.435 9.366-12.97 20.388-16.611 33.086-3.642 12.7-5.463 26.534-5.463 41.499 0 15.49 1.479 29.818 4.453 42.914 2.966 13.08 8.03 24.435 15.18 34.073 7.156 9.621 16.467 17.104 27.94 22.44 11.475 5.343 25.716 9.446 42.717 9.446 31.305 0 57.752-9.065 79.348-24.292-2.14-15.49-7.657-27.807-16.523-36.896-11.03 4.142-20.786 7.108-29.246 8.93-8.468 1.798-15.935 2.704-22.383 2.704-12.906 0-22.193-3.284-27.83-9.915-5.631-6.608-8.72-14.424-9.267-26.296h105.265c3.477-11.243 5.234-26.438 5.234-42.747zm-110.9 2.776c.802-13.645 3.292-28.244 7.435-34.255 4.15-6.019 10.504-9.025 19.083-9.025 8.835 0 15.466 3.197 19.879 9.614 4.422 6.417 6.63 19.346 6.63 29.237l.009 4.429H345.52z"/><path d="M931.486 241.25c-11.442 9.995-18.082 24.38-18.082 43.185v70.037c0 23.282-7.157 40.99-23.322 53.164-16.15 12.158-34.98 18.177-56.472 18.757l-12.738-.096v-34.899c11.228-3.276 15.839-7.084 20.308-11.41 8.095-7.315 14.297-19.219 14.297-35.75v-56.543c.302-19.219 1.78-34.279 8.778-45.157 7.022-10.878 20.69-20.388 41.006-28.602-22.44-10.273-37.508-23.688-45.19-40.235-4.515-9.828-4.603-23.09-4.603-39.774V82.075c0-17.128-5.606-29.126-12.5-35.973-4.484-4.469-9.701-8.039-22.113-10.734V2.607c15.18.159 22.845-.015 31.687 0 13.613-.111 25.016 7.332 34.939 15.084 10.807 8.5 18.487 19.991 22.988 34.454 2.56 8.357 2.926 16.341 2.926 23.942v59.971c0 21.182 6.258 36.927 16.953 47.208 6.028 5.964 14.536 11.418 29.143 16.341v27.091c-12.944 3.579-21.071 8.429-28.005 14.552zM126.287 2.625v.047c-4.35-.024-8.286-.04-11.434-.032-13.621-.119-25.023 7.324-34.938 15.084-10.822 8.5-20.085 19.593-22.987 34.454-1.654 8.715-1.304 16.332-1.304 23.942v59.971c0 21.175-7.88 36.911-18.567 47.209-6.02 5.963-18.87 11.409-33.485 16.331v27.09c12.953 3.571 25.422 8.405 32.339 14.544 11.45 10.003 19.703 24.396 19.703 43.2v70.037c0 23.267 5.55 40.991 21.7 53.148 16.15 12.15 34.97 18.193 56.464 18.781l14.384-.096v-34.923c-11.22-3.284-17.453-7.093-21.946-11.403-8.087-7.324-12.667-19.219-12.667-35.742v-56.551c-.31-19.234-3.411-34.279-10.416-45.165-7.005-10.862-20.674-20.388-41.014-28.594 22.448-10.28 37.508-23.688 45.189-40.227 4.525-9.836 6.242-23.099 6.242-39.78V82.096c0-17.128 3.975-29.126 10.862-35.98 3.737-3.721 10.384-6.783 19.617-9.263l14.599.102V2.622h-32.34v.003h-.001z" stroke="currentColor" stroke-width="5.151"/><path d="M260.884 286.764H249.95c-11.887 0-16.364-6.25-16.364-18.805V37.214c0-13.875-4.007-23.616-9.137-29.229-5.13-5.598-14.034-5.542-26.717-5.542h-24.69l-2.91-.056v.238l-.024 34.343v242.156c0 19.258 4.326 33.349 12.022 42.318 7.705 8.953 20.722 13.422 39.074 13.422 12.69 0 27.13-1.336 43.32-4.016.81-2.704 1.217-8.492 1.217-17.374 0-8.906-1.621-17.788-4.858-26.71z"/></g>
    </symbol>
    <symbol id="logo-inverse-sm" viewBox="0 0 41 32">
      <path fill="currentColor" d="M37.7 15.8c-1.6 0-3 1.4-3 3s1.4 3 3 3 3-1.4 3-3c0-1.5-1.4-3-3-3zm0 10c-1.6 0-3 1.4-3 3s1.4 3 3 3 3-1.4 3-3c0-1.7-1.4-3-3-3zM28.7.1c-.7 0-1.4.4-2 .7L9.3 21.7c-1.1 1.1-1.1 2.9 0 3.9.5.5 1.2.7 2 .7.7 0 1.4-.4 2-.7L30.6 4.7c1.1-1.1 1.1-2.9 0-3.9-.5-.5-1.2-.7-1.9-.7zm0 12.7c-.7 0-1.4.4-2 .7-.5.5-.7 1.3-.7 2v12.9c0 1.4 1.2 2.7 2.7 2.7.7 0 1.4-.4 2-.7.5-.5.7-1.3.7-2V15.5c-.1-1.6-1.3-2.7-2.7-2.7zm-17.8.9c.7 0 1.4-.4 2-.7.5-.5.7-1.3.7-2s-.4-1.4-.7-2L5.2 1.3C4.9.4 4 .1 2.9.1 2.2.1 1.5.5.9.8c-.5.5-.7 1.3-.7 2v25.4c0 1.6 1.2 2.9 2.8 2.9 1.6 0 2.8-1.3 2.8-2.9V9.6L9.3 13c.4.3.9.7 1.6.7z"/>
    </symbol>
    <symbol id="logo-inverse" viewBox="0 0 156 37">
      <path fill="currentColor" d="M61.8 17.7c-.5 0-1.2.2-1.8.5-.5.4-1.1.7-1.2.9-.2.4-.5.5-.7.7-.9-1.4-2.1-2.1-3.7-2.1-1.1 0-2.1.5-2.8 1.8 0-.5-.2-1.1-.4-1.3-.4-.4-.9-.5-1.8-.5s-1.6.2-1.8.7c-.2.2-.2.5-.2.7v10.8c0 .2.2.4.2.7.2.5.9.7 2 .7s1.8-.2 2-.7c.2-.2.2-.5.2-.7v-5.4c0-1.4.5-2.1 1.4-2.1 1.1 0 1.6.7 1.6 2.1v5.4c0 .2.2.4.2.7.2.5.9.7 2 .7s1.8-.2 2-.7v-6.2c0-.7.2-1.3.4-1.6.2-.4.5-.5 1.2-.5 1.1 0 1.6.7 1.6 2.1v5.5c0 .2.2.4.2.7.2.5.9.7 2 .7s1.8-.2 2-.7c.2-.2.2-.5.2-.7v-5.4c0-2.3-.5-4.1-1.4-5.2-1.1-1.2-2.2-1.6-3.4-1.6zm17.6.2c-.4-.2-.9-.2-1.4-.2-1.2 0-2 .5-2 1.4l-.5-.5c-.2-.2-.5-.4-1.1-.5-.5-.2-1.1-.4-1.6-.4-1.4 0-2.8.7-4.1 2-1.2 1.3-2 2.9-2 4.6 0 1.8.5 3.4 1.8 4.6 1.2 1.3 2.7 2 4.1 2 1.4 0 2.5-.5 3-1.4 0 .4.2.7.5 1.1.4.2.9.4 1.8.4s1.4-.2 1.8-.7c.2-.2.2-.5.2-.7v-9.8c.6-1.7-.2-1.9-.5-1.9zm-4.1 8c-.4.5-.9.7-1.6.7-.5 0-1.1-.2-1.6-.7-.4-.5-.7-.9-.7-1.4 0-.5.2-1.1.5-1.6.4-.5.9-.7 1.6-.7.7 0 1.2.2 1.6.7.4.5.5 1.1.5 1.6.2.3.1.9-.3 1.4zm15.1-8c-.4-.2-.5-.2-.9-.2h-1.1c-.4 0-.9.2-1.4.4-.5.4-.9.5-1.1.7l-.4.4c0-.4-.2-.5-.4-.9s-.9-.5-2-.5-1.8.2-2 .7c-.2.2-.2.5-.2.7v10.5c0 .5.2.9.5 1.1.4.4.9.4 1.8.4 1.1 0 1.8-.2 2-.7.2-.2.2-.5.2-.7v-6.3c0-.5.2-.9.5-1.3.4-.4.9-.5 1.2-.5.5 0 .9 0 1.1.2.6.1.8.1 1.1.1.5 0 1.1-.4 1.4-.9.4-.7.5-1.3.5-1.8s-.2-.9-.4-1.3c.1.1 0-.1-.4-.1zm9.2 6.4l2.5-2.1c.5-.5.9-.9.9-1.4 0-.4-.4-.9-.9-1.6-.5-.7-1.1-1.1-1.4-1.1-.4 0-.9.2-1.4.7l-.4.2c-.4.2-.7.7-1.4 1.3-.5.5-1.1 1.1-1.4 1.3v-8.7c0-.5-.2-.9-.5-1.1-.4-.4-.9-.4-1.8-.4-1.1 0-1.8.2-2 .7-.2.2-.2.5-.2.7v17c0 .2.2.4.2.7.2.5.9.7 2 .7s1.8-.2 2-.7c.2-.2.2-.5.2-.7v-2.9c.4.4 1.1.9 1.8 1.8.9.7 1.4 1.4 1.8 1.6l.2.2c.7.5 1.2.7 1.6.7.4 0 .9-.4 1.4-1.1.5-.7.9-1.1.9-1.6-.2-.7-.5-1.1-1.1-1.4l-3-2.8zm16.9-6.1c-.2-.5-.9-.7-2-.7s-1.8.2-2 .7c-.2.2-.2.5-.2.7v5.4c0 .7-.2 1.3-.5 1.6-.4.4-.9.5-1.6.5-.7 0-1.2-.2-1.6-.5-.4-.4-.5-.9-.5-1.6v-4.5c0-.5 0-1.1-.2-1.3-.2-.7-.9-.9-2.1-.9-1.1 0-1.8.2-2 .7-.2.2-.2.5-.2.7v5.4c0 1.8.5 3.4 1.6 4.6 1.1 1.3 2.5 2 4.3 2 .7 0 1.2-.2 1.8-.5.2-.2.4-.4.7-.5l.5-.5c0 .4 0 .7.2 1.1.2.4.9.5 2 .5s1.6-.2 2-.7c.2-.2.2-.5.2-.7V19c-.2-.2-.2-.4-.4-.8zm8.5-.5c-1.4 0-2.3.4-3 1.3 0-.4-.2-.7-.5-1.1-.4-.2-.9-.4-1.8-.4s-1.4.2-1.6.7c-.2.2-.2.5-.2.7v16.6c0 .2.2.4.2.7.2.2.4.4.7.5.4.2.7.2 1.2.2s.9 0 1.2-.2c.4-.2.5-.4.7-.5.2-.2.2-.5.2-.7v-6.1c.5.7 1.6 1.3 3 1.3s2.7-.7 3.9-2c1.2-1.3 1.8-2.9 1.8-4.5 0-1.8-.5-3.2-1.8-4.5-1.3-1.3-2.7-2-4-2zm.7 8c-.4.4-.9.7-1.6.7-.5 0-1.1-.2-1.4-.7-.4-.5-.5-.9-.5-1.4 0-.5.2-1.1.5-1.4.4-.5.9-.7 1.6-.7.7 0 1.2.2 1.6.7.4.5.5.9.5 1.4 0 .5-.1.9-.7 1.4zm18.5-7.5c-.2-.5-.9-.7-2-.7s-1.8.2-2 .7c-.2.2-.2.5-.2.7v5.4c0 .7-.2 1.3-.5 1.6-.4.4-.9.5-1.6.5-.7 0-1.2-.2-1.6-.5-.4-.4-.5-.9-.5-1.6v-4.5c0-.5 0-1.1-.2-1.3-.2-.7-.9-.9-2.1-.9-1.1 0-1.8.2-2 .7-.2.2-.2.5-.2.7v5.4c0 1.8.5 3.4 1.6 4.6 1.1 1.3 2.5 2 4.3 2 .7 0 1.2-.2 1.8-.5.2-.2.4-.4.7-.5l.5-.5c0 .4 0 .7.2 1.1.2.4.9.5 2 .5s1.6-.2 2-.7c.2-.2.2-.5.2-.7V19c-.2-.2-.2-.4-.4-.8zm11.4 6.5c-.4-.5-.7-1.1-1.2-1.3-1.1-.5-2.1-.9-3.2-.9-1.1-.2-1.8-.5-1.8-1.1 0-.4.5-.5 1.4-.5.7 0 1.2.2 1.8.4.5.2.9.4 1.1.4.4 0 .7-.4 1.1-.9.4-.5.5-1.1.5-1.4 0-.4-.4-.7-.9-1.1-1.2-.5-2.5-.9-3.7-.9-3.6 0-5.5 1.3-5.5 3.9 0 .9.2 1.6.5 2.3.4.7.7 1.1 1.2 1.4 1.1.7 2.1 1.1 3.2 1.3 1.1.2 1.6.4 1.6.7 0 .4-.5.5-1.6.5-.5 0-1.2-.2-2-.5-.7-.4-1.2-.5-1.6-.5-.4 0-.7.2-.9.4-.7.9-.9 1.6-.9 2 0 .4.2.7.5.9 1.4.9 3 1.4 4.6 1.4 1.6 0 3-.2 4.1-.7.5-.4 1.1-.7 1.4-1.4.4-.5.5-1.4.5-2.3.3-.9.1-1.6-.2-2.1zm-118.1-9c-1.6 0-3 1.4-3 3s1.4 3 3 3 3-1.4 3-3c0-1.5-1.4-3-3-3zm0 10c-1.6 0-3 1.4-3 3s1.4 3 3 3 3-1.4 3-3c0-1.7-1.4-3-3-3zM28.4 0c-.7 0-1.4.4-2 .7L9.1 21.6c-1.1 1.1-1.1 2.9 0 3.9.5.5 1.2.7 2 .7.7 0 1.4-.4 2-.7L30.4 4.6c1.1-1.1 1.1-2.9 0-3.9-.6-.5-1.3-.7-2-.7zm0 12.7c-.7 0-1.4.4-2 .7-.5.5-.7 1.3-.7 2v12.9c0 1.4 1.2 2.7 2.7 2.7.7 0 1.4-.4 2-.7.5-.5.7-1.3.7-2V15.4c0-1.6-1.3-2.7-2.7-2.7zm-17.7.9c.7 0 1.4-.4 2-.7.5-.5.7-1.3.7-2s-.4-1.4-.7-2L5 1.3C4.6.4 3.7 0 2.7 0 2 0 1.2.4.7.7.2 1.3 0 2 0 2.7v25.4C0 29.7 1.2 31 2.8 31c1.6 0 2.8-1.3 2.8-2.9V9.5L9 12.9c.4.3.9.7 1.7.7z"/>
    </symbol>
    <symbol id="plane" viewBox="-531.5 835.6 26.9 21">
      <path fill="currentColor" d="M-531.5 840.7c.1.1.2.1.3.1 2.4 1.1 4.7 2.1 7.1 3.2.2.1.3.1.5 0 4.8-1.9 9.5-3.9 14.3-5.8 1.1-.5 2.2-.9 3.3-1.3l-14.1 9c.1.1.2.1.3.1 3.5 1.7 7 3.3 10.5 5 .2.1.3.1.3-.2 1.3-4.6 2.7-9.2 4-13.8.1-.5.3-.9.4-1.4-8.9 1.8-17.9 3.4-26.9 5.1zm8.1 6.8c-.3-.1-.3-.1-.3.2-.1 2.9-.1 5.9-.2 8.8 0 0 0 .1.1.1 2.4-2.1 4.8-4.1 7.2-6.2-.1 0-.2-.1-.3-.1-2.2-.9-4.4-1.8-6.5-2.8z"/>
    </symbol>
    <symbol id="quote" viewBox="0 0 32 32">
      <title>quote</title><path fill="currentColor" d="M8.504 5.442c-2.576 0-4.666 2.149-4.666 4.8 0 2.65 2.09 4.8 4.666 4.8 4.664 0 1.555 9.278-4.666 9.278v2.24c11.102.002 15.453-21.118 4.666-21.118zm13.44 0c-2.574 0-4.664 2.149-4.664 4.8 0 2.65 2.09 4.8 4.664 4.8 4.666 0 1.557 9.278-4.664 9.278v2.24c11.101.002 15.451-21.118 4.664-21.118z"/>
    </symbol>
    <symbol id="sage" viewBox="0 0 121 116">
      <path d="M60.51 87.544L37.762 71.016l8.69-26.743h28.117l8.69 26.743L60.51 87.544zm60.511-43.58L97.744 27.053 75.159 43.462l8.628-26.551L60.51 0 37.234 16.911l8.627 26.55-22.585-16.408L0 43.964l8.84 27.207.051.155h27.917l-22.586 16.41 8.84 27.207.051.155h28.771l8.626-26.55 8.577 26.395.05.155h28.771l8.891-27.362-22.586-16.41h27.917l8.891-27.362z" fill="currentColor" fill-rule="evenodd"/>
    </symbol>
    <symbol id="spalah" viewBox="30.9 0.3 329 153.2">
       <g> <path fill="currentColor" d="M293,87c2.6,0,4.8-2.4,4.8-5.2c0-2.9-2.2-5.2-4.8-5.2c-2.6,0-4.8,2.3-4.8,5.2C288.2,84.7,290.3,87,293,87z"/> <path fill="currentColor" d="M257.1,81.8c0,2.9,2.1,5.2,4.8,5.2c2.6,0,4.8-2.4,4.8-5.2c0-2.9-2.2-5.2-4.8-5.2
		C259.3,76.6,257.1,78.9,257.1,81.8z"/> <path fill="currentColor" d="M154.5,41.2c0-2.3-1.7-3.6-4.6-3.6h-3.8v7.2h3.8C152.8,44.8,154.5,43.4,154.5,41.2z"/> <polygon fill="currentColor" points="189.9,47.7 186.7,40 183.5,47.7 189.9,47.7 "/> <polygon fill="currentColor" points="264.8,40 261.5,47.7 268,47.7 "/> <path fill="currentColor" d="M359.9,119.4l-0.1-0.3V0.3H62.3l-1.5,0L59.4,2h0L30.9,33.1v120.4h298.9l28.5-31.1h0.1c0,0,0,0,0.1-0.1
		c0.1-0.1,0.2-0.2,0.2-0.3l0.1-0.1c0.1-0.2,0.3-0.4,0.4-0.6c0.2-0.3,0.5-0.6,0.7-1v0c0,0,0-0.1,0.1-0.1c0,0,0-0.1,0-0.1l0-0.1
		c0,0,0,0,0-0.1c0-0.1,0-0.2,0-0.3c0,0,0,0,0,0C359.9,119.5,359.9,119.5,359.9,119.4C359.9,119.4,359.9,119.4,359.9,119.4z
		 M293.7,31.2L293.7,31.2h8v10.2H312V31.2h8v27.2h-8V48.1h-10.3v10.3h-8V31.2z M320.3,67.5v22.4H317V67.5H320.3z M293,73.4L293,73.4
		c4.6,0,8.2,3.7,8.2,8.4c0,4.7-3.6,8.5-8.3,8.5c-4.6,0-8.2-3.7-8.2-8.5C284.8,77.1,288.4,73.4,293,73.4z M261,31.1h7.7L281,58.5h-8.6
		l-2.1-4.9h-11.1l-2.1,4.9h-8.4L261,31.1z M270.2,81.8c0,4.7-3.6,8.5-8.3,8.5c-4.6,0-8.2-3.7-8.2-8.5c0-4.7,3.6-8.4,8.3-8.4l0,0
		C266.6,73.4,270.2,77.1,270.2,81.8z M231.6,76.6c-2.3,0-3.9,1.7-3.9,4.1v9.2h-3.3V67.5h3.3v7.1c1.1-0.9,2.5-1.3,4.1-1.3c0,0,0,0,0,0
		h0c0,0,0,0,0,0c4,0,6.6,2.7,6.6,6.9v9.7h-3.3v-9.5C235.1,78,233.8,76.6,231.6,76.6z M215.7,31.2h8v20.6h14v6.6h-22V31.2z
		 M208.8,76.3l0.6,0.7l-2.3,2.4l-0.7-0.7c-1.2-1.2-2.3-2.1-4-2.1c-2.6,0-4.7,2.3-4.7,5.2c0,2.9,2.1,5.2,4.8,5.2c1.4,0,2.7-0.7,4-2.1
		l0,0l0.7-0.7l2.5,2.2l-0.6,0.7c-1.2,1.4-3.2,3.2-6.5,3.2c-4.6,0-8.2-3.7-8.2-8.5c0-4.7,3.7-8.4,8.2-8.4
		C204.9,73.4,207,74.3,208.8,76.3z M182.9,31.1L182.9,31.1h7.7L203,58.5h-8.6l-2.1-4.9h-11.2l-2.1,4.9h-8.4L182.9,31.1z M173.1,83.3
		c-2.4-0.7-5.6-1.6-5.6-4.9c0-2.9,2.4-4.9,5.7-4.9c1.9,0,4,0.7,5.6,1.7l0.8,0.5l-1.8,2.8l-0.8-0.6c-1.2-0.8-2.6-1.3-3.8-1.3l0,0
		c-1.4,0-2.2,0.6-2.2,1.6c0,0.8,1.4,1.3,3.2,1.8c1.9,0.5,5.4,1.5,5.4,5c0,3-2.5,5.2-5.9,5.2c-2.2,0-4.7-0.9-6.4-2.3l-0.7-0.6l2-2.7
		l0.8,0.6c1.4,1.1,2.9,1.7,4.5,1.7c1.2,0,2.4-0.5,2.4-1.8C176.1,84.3,175.1,83.8,173.1,83.3z M138.1,31.2h12.4c7.3,0,12,3.5,12,9.6
		c0,6.4-5.2,9.8-12.4,9.8h-4v7.8h-8V31.2z M152.2,78.9v3.5h-9.4h0v-3.5H152.2z M124.9,86.9c0.6,0,1-0.1,1.7-0.4l1.4-0.6v3.4l-0.6,0.3
		c-0.9,0.4-1.7,0.6-2.7,0.6c-3,0-5-1.9-5-4.9v-8.3h-2.1v-3.2h2.1v-4.6h3.3h0v4.6h5v3.2h-5v8.2C123.1,86.4,123.6,86.9,124.9,86.9z
		 M99.1,54.4l4.5-5c2.9,2.1,6,3.3,9.4,3.3c2.1,0,3.3-0.7,3.3-1.9c0-1.1-1-1.8-4.9-2.6c-6.1-1.3-10.9-3-10.9-8.6
		c0-5.1,4.3-8.7,11.2-8.7c4.9,0,8.8,1.2,11.9,3.6l-4,5.3c-2.6-1.8-5.5-2.7-8.1-2.7c-1.9,0-2.9,0.8-2.9,1.8c0,1.2,1,1.8,5,2.6
		c6.6,1.4,10.8,3.4,10.8,8.6c0,5.6-4.7,8.9-11.7,8.9C107.5,58.9,102.7,57.4,99.1,54.4L99.1,54.4z M98.8,68.1h3.7V72h-3.7V68.1z
		 M102.3,73.7v16.2H99V73.7H102.3z M36.5,35.2L36.5,35.2l22.9-25v29.9L36.5,64.3V35.2z M36.5,72.4L36.5,72.4L36.5,72.4l22.9-24.1
		v32.4l-22.9,24.1V72.4z M36.5,112.9l22.9-24.1v29.9L36.5,142V112.9z M38.6,147.8L38.6,147.8L38.6,147.8l25-25.5h27.5l-25,25.5
		L38.6,147.8L38.6,147.8z M74,147.8L74,147.8L74,147.8l25-25.5h29.5l-25,25.5L74,147.8L74,147.8z M111.3,147.8L111.3,147.8
		L111.3,147.8l25-25.5h29.5l-25,25.5L111.3,147.8L111.3,147.8z M148.7,147.8L148.7,147.8L148.7,147.8l25-25.5h29.5l-25,25.5
		L148.7,147.8L148.7,147.8z M186.1,147.8L186.1,147.8L186.1,147.8l25-25.5h29.5l-25,25.5L186.1,147.8L186.1,147.8z M223.5,147.8
		L223.5,147.8L223.5,147.8l25-25.5h29.5l-25,25.5L223.5,147.8L223.5,147.8z M260.9,147.8L260.9,147.8L260.9,147.8l25-25.5h29.5
		l-25,25.5L260.9,147.8L260.9,147.8z M327.3,147.8h-29l0,0l25-25.5h27.3L327.3,147.8z"/> </g>
    </symbol>
    <symbol id="timber" viewBox="0 0 25 30">
      <path d="M24.65 26.39l-1.56-2h-8.97v-2.15h7.3l-1.55-2h-5.75v-2.15h7.61l-1.44-2h-6.17v-2.15h4.63l-1.44-2h-3.19V9.79h4.38l-1.41-2h-2.97V5.64h1.45l-1.41-2h-.04V0L7.54 9.17l3.7.01-7.47 10.41h3.85L0 30h14.12v-3.61z" fill="currentColor"/>
    </symbol>
    <symbol id="trellis" viewBox="0 0 128 128">
      <path d="M72 0H0v16h72l16 16 16-16h24V0h-24L88 16 72 0M56 32H0v16h56l16 16 16-16h40V32H88L72 48 56 32M40 64H0v16h40l16 16 16-16h56V64H72L56 80 40 64M24 96H0v16h24l16 16 16-16h72V96H56l-16 16-16-16" fill="currentColor"/>
    </symbol>
    <symbol id="uikit" viewBox="0 0 122 141">
      <path d="M94.39 19.3L70.3 33.9l27.8 15.82v41.49l-37.32 20.74-36.7-20.75V59.04L0 46.65v58.9l59.91 35.17L122 105.55V35.19zm-11.16-5.8L59.91 0 35.57 15.06l23.65 13z" fill="currentColor"/>
    </symbol>
    <symbol id="upwork" viewBox="223.4 26.8 157 129.6">
      <path d="M319.4 91.9c-6.5 0-11.8 5.3-11.8 11.9 0 6.6 5.3 11.9 11.8 11.9 6.5 0 11.8-5.3 11.8-11.9.1-6.6-5.3-11.9-11.8-11.9zm0 19c-3.9 0-7-3.1-7-6.9 0-3.8 3.1-6.9 7-6.9s7 3.1 7 6.9c0 3.6-3.3 6.9-7 6.9zm26.4-13.2c-3.4 0-6.1 2.8-6.1 6.2v11.3h-5.2V92.7h5.2v3.5s2.2-3.5 6.7-3.5h1.5v5h-2.1zm-51.7-5l3.9 15.4 4.1-15.4h5.2l-6.5 22.4h-5l-4-15.7-4 15.7h-5L276 92.7h5l4.4 15.4 3.7-15.4h5zm68.9 10.2c3.6-2.1 6.1-5.9 6.1-10.3h-5.2c0 3.8-3.1 6.9-6.8 6.9h-.7V81.8h-5.2v33.3h5.2v-10.6h.6c.6 0 1.2.3 1.3.7l7.3 9.8h6.1l-8.7-12.1zm-99-11c-5.6 0-9.9 3.7-11.6 9.5-2.7-4.1-4.7-8.8-5.9-12.8h-5.9v15.5c0 3.1-2.5 5.6-5.6 5.6-3.1 0-5.6-2.5-5.6-5.6V88.7h-5.9v15.5c0 6.5 5.2 11.6 11.6 11.6 6.4 0 11.6-5.1 11.6-11.6v-2.6c1.2 2.3 2.7 4.8 4.3 7l-3.7 17.2h6.1l2.7-12.5c2.4 1.5 5 2.3 8.1 2.3 6.5 0 11.8-5.3 11.8-12-.1-6.4-5.5-11.7-12-11.7zm0 17.8c-2.4 0-4.7-1-6.7-2.6l.6-2.3v-.1c.4-2.5 1.8-6.7 6.2-6.7 3.3 0 5.9 2.6 5.9 5.9 0 3.1-2.9 5.8-6 5.8zm108.3-16.3h-1.6v-.6h4v.6H373v4.5h-.6v-4.5h-.1zm3.4-.6h.6l1.8 2.8 1.8-2.8h.6v5h-.6v-4.1l-1.8 2.6-1.8-2.6v4.1h-.6v-5z" fill="currentColor"/><g fill="currentColor"><path d="M300.3 26.8l5.6 17.2h18l-14.6 10.6 5.5 17.2-14.6-10.6-14.6 10.6 5.5-17.2L276.5 44h18l5.8-17.2z"/><path d="M271.8 44.4l2.6 8h8.5l-6.9 5.1 2.6 8-6.9-5-6.9 5 2.6-8-6.9-5.1h8.5l2.8-8z"/><path d="M255.8 54.1l1.8 5.4h5.6l-4.6 3.4 1.8 5.4-4.6-3.3-4.7 3.3 1.8-5.4-4.6-3.4h5.7l1.8-5.4zm73-9.7l-2.6 8h-8.5l6.9 5.1-2.6 8 6.9-5 6.9 5-2.6-8 6.9-5.1h-8.5l-2.8-8z"/><path d="M344.8 53.9l-1.8 5.4h-5.6l4.6 3.3-1.8 5.4 4.6-3.3 4.7 3.3-1.8-5.4 4.6-3.3h-5.7l-1.8-5.4z"/></g><g fill="currentColor"><path d="M242.2 147.8h8.9v-1.2h-8.9v1.2z"/><path d="M235.9 133.6v15l10.7 7.7 10.7-7.8v-14.8c-7.1-.1-14.2-.1-21.4-.1zm15.1 14.2h-8.9v-1.2h8.9v1.2zm.2-2.6h-9l-1.7-4.8 3.5 1.2 2.7-3.7 2.7 3.7 3.5-1.2-1.7 4.8z"/></g><path fill="currentColor" d="M280.3 136.8h-9v2h3.5v9h2v-9h3.5v-2zm49 10.9h2.2l-4.8-10.9h-2l-4.7 10.9h2.1c.3-.9 0 0 1-2.6h5.1l1.1 2.6zm-1.8-4.4H324l1.8-3.9 1.7 3.9zm3.6-4.6h3.4v9h2.1v-9h3.4v-2h-8.9v2zm17.2 7.2h-4.2v-2.7h5.5v-1.8h-5.5v-2.7h6.1v-1.8h-8.1v10.9h8.2V146c-1.3-.1-1.3-.1-2-.1zm-61.3-9.3c-3.2 0-5.7 2.6-5.7 5.7 0 3.2 2.6 5.7 5.7 5.7 3.2 0 5.7-2.6 5.7-5.7s-2.5-5.7-5.7-5.7zm0 9.6c-2 0-3.6-1.7-3.6-3.9 0-2.1 1.6-3.9 3.6-3.9s3.6 1.7 3.6 3.9c0 2.1-1.6 3.9-3.6 3.9zm15.3-8.2c-.7-.7-1.5-1.1-2.5-1.2-1.4-.2-3.1-.1-5-.1v10.9h2v-3.4c1.2 0 2.3 0 3.3-.2 1.9-.2 3.3-1.7 3.3-3.6-.1-.9-.5-1.7-1.1-2.4zm-3 4.4l-2.6.1v-3.9h2.6c1.1 0 1.9.9 1.9 1.9s-.8 1.9-1.9 1.9zm17 1.1c2.2-.7 2.6-2.4 2.6-3.5 0-1.2-1-3.3-3.8-3.3h-5.3v11h2.1v-3.8h2.5l2.6 3.8h2.3l-3-4.2zm-4.5-1.4v-3.6h3.2c1.6 0 1.8 1.5 1.8 1.8s-.2 1.8-1.8 1.8h-3.2zm45.1-5.4h-4.4v11h4.2c3.1 0 5.6-2.4 5.6-5.7.1-3.4-2.9-5.3-5.4-5.3zm-.4 9.3h-2.1v-7.5h2.2c1.6 0 3.8 1.2 3.8 3.6.1 2.4-1.5 3.9-3.9 3.9z"/>
    </symbol>
    <symbol id="wordpress" viewBox="0 0 6 6">
      <path d="M2.846.913c.58 0 1.107.222 1.503.586-.194-.006-.388.11-.396.373-.016.534.638.647.286 1.72l-.292.887-.794-2.338c-.012-.037.002-.057.047-.057h.224c.012 0 .022-.01.022-.022v-.133c0-.012-.01-.023-.022-.022a14.87 14.87 0 0 1-1.267 0 .021.021 0 0 0-.021.022v.133c0 .012.01.022.02.022h.226c.05 0 .065.017.077.049l.326.892-.491 1.482-.807-2.376c-.01-.03.003-.047.031-.047h.257c.012 0 .022-.01.022-.022v-.133c0-.012-.01-.023-.022-.022-.27.014-.54.017-.793.02A2.219 2.219 0 0 1 2.846.912zM4.8 2.076a2.22 2.22 0 0 1-.887 3.006l.692-1.961c.107-.304.207-.714.195-1.045zm-1.21 3.15a2.214 2.214 0 0 1-1.39.033l.685-1.96.705 1.928zm-1.694-.085a2.221 2.221 0 0 1-1.07-2.928l1.07 2.928zm.95-4.436a2.43 2.43 0 1 1 0 4.859 2.43 2.43 0 0 1 0-4.86zm0-.154a2.583 2.583 0 1 1 0 5.166 2.583 2.583 0 0 1 0-5.166z" fill="currentColor" fill-rule="evenodd"/>
    </symbol></svg>