<svg xmlns="http://www.w3.org/2000/svg" viewBox="0 0 93 134"><path fill="currentColor" d="M41.4 134h9.8c15.9 0 28.9-13.1 28.9-29.2 0-12.7-.3-25.4 0-38 0 .3-2.4 2.6-2.7 3.1-1 1.6-1.4 3.2-2 5-.9 3-.7 7.1-3.2 8.7-6.4 4-12.3-6-16.7-8.3-2.8-1.5-6-1.7-9-1.7h-.6c-3.1 0-6.3.3-9 1.7-4.4 2.4-10.3 12.3-16.7 8.3-2.6-1.6-2.3-5.7-3.2-8.7-.5-1.7-1-3.4-2-5-.3-.5-2.7-2.7-2.7-3.1.3 12.6 0 25.4 0 38 .1 16.1 13.2 29.2 29.1 29.2zm1.3-55.8c0 2.1 1.7 3.8 3.8 3.8 2.1 0 3.8-1.7 3.8-3.8h2.9c0 3.7-3 6.8-6.7 6.8s-6.7-3-6.7-6.8h2.9zM7 52.7c-3.9 0-7 3.2-7 7 0 3.9 3.1 7 7 7v-14zm86 7c0-3.9-3.1-7-7-7v14.1c3.9 0 7-3.2 7-7.1z"/><path fill="currentColor" d="M51.9 68.3c2.2 2.2 5.1 3.4 8.2 3.4h5.6c3.1 0 6.1-1.2 8.3-3.3 2.4-2.3 3.8-5.5 3.8-8.9v-5c0-2.9-2.3-5.2-5.1-5.2H54.2c-2.9 0-4.8 3-5.5 5.6h-4.4c-.7-2.6-2.6-5.6-5.5-5.6H20.3c-2.8 0-5.1 2.3-5.1 5.2v5c0 3.3 1.4 6.6 3.8 8.9 2.3 2.2 5.2 3.4 8.3 3.4h5.6c3.1 0 6-1.2 8.2-3.4 2.3-2.2 3.5-5.2 3.5-8.4v-.6h3.7v.6c.1 3.1 1.3 6.1 3.6 8.3zm.8-11.1c0-1.3 1.1-3.2 1.5-3.5h18.5c.4 0 .8.4.8.8v5c0 2.2-.9 4.2-2.4 5.7-1.4 1.4-3.3 2.1-5.3 2.1h-5.6c-1.9 0-3.8-.8-5.2-2.1-1.4-1.4-2.2-3.3-2.2-5.3v-2.7zm-12.4 2.7c0 2-.8 3.9-2.2 5.3-1.4 1.4-3.2 2.1-5.1 2.1h-5.6c-2 0-3.9-.8-5.3-2.2-1.6-1.5-2.4-3.5-2.4-5.7v-5c0-.5.4-.8.8-.8h18.4c.5.2 1.6 2.2 1.6 3.5v2.8z"/><path fill="currentColor" d="M31.5 56.7c-3.7 0-6.6 3-6.6 6.7h2.5c0-2.3 1.8-4.1 4.1-4.1s4.1 1.9 4.1 4.1h2.5c0-3.7-3-6.7-6.6-6.7zm30.1 2.5c2.3 0 4.1 1.9 4.1 4.1h2.5c0-3.7-3-6.7-6.6-6.7-3.7 0-6.6 3-6.6 6.7h2.5c0-2.2 1.8-4.1 4.1-4.1zm-42.8-26c.5-1.2 1.1-2.4 2-3.3 3.2-2.8 8-.3 11.9 1.3 2.9 1.2 6.1 1.8 9.1 1.1s5.8-2.8 6.7-5.8c8.3 9.6 17.8 5.4 21.2 1.6 2.3 6.8 5 13.4 7.9 19.9 1.5-3.9 3.1-7.8 3.5-11.9.4-4.1-.5-8.6-3.3-11.7C80.8 15 75.5 3.7 66.4 0c1.2 2.6-.9 5.8-3.6 6.8s-5.7.5-8.5.2c-10.2-1.2-22.2.6-27.5 9.5-1.7-4.1-7.9-4.5-11.3-1.7-3.4 2.8-4.5 7.6-4.7 12.1-.3 6.4 1 12.9 3.5 18.8 1.3-4.4 2.8-8.5 4.5-12.5z"/></svg>