<svg xmlns="http://www.w3.org/2000/svg" viewBox="276.8 62.4 36.2 78.1"><path fill="currentColor" d="M302.5 94.9c1.6-1.5 2.7-3.2 3.9-4.9.8-1.2 1.8-2.3 3.8-3 2.5-.8 3.4-2.3 2.6-4.2-.2-.4-.4-.8-.2-1.3.9-2.3-1.4-4.4-1.5-6.6-.1-.8-1.1-1.9-1.5-2.9-.8-2.3-4.1-3.3-7.3-2.4-2.3.6-4.4 1.4-6.2 2.6-.4.3-.7.9-1.5.5-.7-.3-.4-.8-.3-1.2.6-2.1 1.3-4.1.3-6.3-.7-1.5-1.6-2.8-4.2-2.8-2.7 0-3 1.6-3.4 2.9-1 3-2.6 5.8-4 8.6-1.5 2.9-2.3 5.8-2 8.9.5 5.3 2.6 10.6.1 15.9-.9 2.1-.3 4.4-.5 6.6l-2.1 18.6c-.5 4.8-1 9.6-1.6 14.4-.1.8.5 1.2 1.5 1.3 1.4.2 1.3-.6 1.3-1.1.2-2.2.4-4.5.7-6.7 1-8.6 2-17.2 2.9-25.8.1-.7.3-1.1 1.5-.9 5.2.7 10.5.6 15.7.9 1.9.1 2.4.6 2.4 1.7v7.7c-1 4.8.4 10.2.3 15.6-.1 2.6.7 5.2.9 7.9.1 1 .6 1.7 2.2 1.5 1.8-.2.5-1.1.5-1.6-.3-3.2-.9-6.4-1-9.6-.2-6.6 0-13.1-.1-19.7-.1-4.2 0-8.5-1.6-12.6-.1-.3-.2-.6-.8-.6-2.7.2-1.5-.8-.8-1.4zm-.1-9.1c2.6-1.4 5.7-1.3 8.5-2.7-1 2.6-3 3.2-8.5 2.7zm7.9-7.1c.9 2.2-.4 3.2-2.9 3.7-1.9.4-3.8.7-5.7 1-.9.1-1.8-.2-1.9-.8-.1-.6.9-.5 1.4-.6 3-1.2 6.3-1.7 9.1-3.3zm-1.6-3c.3.5.3 1.1-.4 1.6-2.7 1.8-6.3 2.5-9.8 3-1.1.2-1.7-.6-2-1.3-.2-.5-.5-1 .4-1.1 3.5-.6 6.5-2.3 9.8-2.6.8.1 1.7-.2 2 .4zm-14-.9c3-1.5 6-3 9.1-3.7 1.7 0 2.7.3 2.9 1.1.2.6-.3 1.3-1.4 1.4-3.1.5-5.4 2-8.2 2.9-.6.2-1.3.9-1.9.2-.4-.5-1.4-1.4-.5-1.9zm8.1 24.6c-.2.5-.1 1-.1 1 0 .9-.1 1.3 0 1.7.4 1.5-.7 2-2.8 2-5 0-9.9-.9-14.9-.2-1.2.2-1.4-.4-1.4-1.1.1-1.3.2-2.6.2-3.9 0-.5.1-.7 1.1-.8 5.4-.6 10.8.2 16.3-.1 1.2 0 2.1.3 1.6 1.4zm-4.1-3.8c-.4.5-1.1.5-1.7.5-3.7 0-7.4-.7-11.1 0-1.3.2-1.7-.3-1.5-1.1 1.2-4.3-.2-8.6-.7-12.8-.4-4.1 2.1-7.6 3.8-11.3 3.7-.1 1.7-3.3 4.8-3.9.3 1.7-.5 3.4-.9 5s0 2.9 1 4.4c.7 1 .7 2.2.9 3.4.4 2.5-.3 4.8-1.4 7.1-.2.5.2.9 1 1 .8.1 1.3-.1 1.6-.6.5-.8.9-1.7 1.4-2.7 1.5 1.8 3.2 3.1 6.4 3 1.3 0 2 .9 1.6 1.8-1.1 2.2-3.6 4.1-5.2 6.2z"/></svg>