<svg xmlns="http://www.w3.org/2000/svg" preserveAspectRatio="xMidYMid" width="30" height="30" viewBox="0 0 30 30"><path d="M29.924 16.448c-.598 6.122-4.973 11.353-11.096 13.003a15.03 15.03 0 0 1-4.031.518c-.063-.001-.135.025-.216-.06.196-.341.396-.691.599-1.04 1.515-2.61 3.031-5.219 4.544-7.831.11-.188.243-.347.405-.494 3.333-3 3.281-8.286-.104-11.221-.067-.058-.13-.12-.274-.255 1.543 0 2.982.004 4.421-.001 1.439-.004 2.879-.012 4.319-.032.241-.003.362.071.451.298a15.197 15.197 0 0 1 .982 7.115zm-1.882-8.616c-3.368.001-6.737-.005-10.105.007-.408.002-.78-.105-1.165-.194-4.128-.949-8.115 1.493-9.152 5.603l-.076.294-2.592-4.418c-.554-.946-1.098-1.899-1.666-2.837-.134-.22-.128-.362.032-.561C5.657 2.832 8.647.978 12.304.277c6.328-1.212 12.604 1.628 15.879 7.122.074.123.139.251.209.377-.125.091-.242.056-.35.056zM8.894 14.839c.014-3.346 2.799-6.096 6.158-6.08 3.389.016 6.151 2.755 6.143 6.091-.008 3.414-2.743 6.126-6.171 6.121-3.393-.005-6.145-2.757-6.13-6.132zm-1.502 1.273c.097.168.165.34.208.531.826 3.619 4.216 6.129 7.925 5.868a7.917 7.917 0 0 0 2.183-.475c-.001.171-.084.256-.138.35-1.392 2.421-2.79 4.838-4.174 7.263-.132.231-.276.28-.517.244C6.521 28.934 1.446 24.094.272 17.799c-.672-3.607-.1-7.035 1.702-10.247.06-.109.128-.213.196-.317.01-.016.036-.021.082-.046.428.74.857 1.48 1.284 2.221 1.285 2.234 2.569 4.469 3.856 6.702z" fill="currentColor" fill-rule="evenodd"/></svg>