<svg xmlns="http://www.w3.org/2000/svg" width="38" height="32" viewBox="0 0 38 32"><path fill="currentColor" d="M22.955 22.368c.032-2.542-.014-5.068-.06-7.593-.034-2.855-2.227-5.088-5.02-5.149-2.62-.015-5.319-.014-7.923.048-.33-.012-.503-.057-.508-.465-.018-2.777-.036-5.554-.07-8.409C6.597.818 3.742.852.948.792.618.78.54.797.545 1.205c.075 8.817.055 17.573.13 26.39.251.028.486-.022.738.007 5.476-.019 10.873-.021 16.349-.04 2.933-.051 5.228-2.338 5.194-5.193zm15.061 5.06c-4.911-.019-9.728.023-14.639.004-.33-.012-.391.083-.403.413.048 1.38.001 2.699-.029 4.096 5.068-.014 10.136-.028 15.125-.025.251.028.235-.05.263-.301-.048-1.38-.018-2.777.013-4.174-.078.017-.251-.028-.33-.012z"/></svg>