<svg width="464" height="465" viewBox="0 0 464 465" xmlns="http://www.w3.org/2000/svg"><g fill="currentColor"><path d="M429.5 232.7c0-20.5-3.2-40.3-8.9-58.8l-88.2 228.8c58.1-34.3 97.1-97.6 97.1-170zM169.6 419.9c19.6 6.6 40.6 10.1 62.5 10.1 22.9 0 44.8-3.9 65.2-11l-60.2-156.2-67.5 157.1zm-126.8-243c-5.2 17.7-8.1 36.4-8.1 55.8 0 74 40.7 138.4 100.9 172.2L43.4 178.2l-.6-1.3z"/><path d="M143.4 164.2l-8.5-.4c-18.5-.3-16.4 18.9-16.4 18.9l65.6 164.6 44.1-105.4-24.6-62.7c-9.9-16.6-33.9-16.4-33.9-16.4v-8.7h138l-.2 9.7-14.4.9c-17.9 0-14.3 17-14.3 17l59.9 159.9 17.2-44.3c30.4-69 11.7-120.1 11.7-120.1-30.5-62.7 8-71.7 8-71.7 2.4-.3 4.7-.5 7-.6-36.2-42.5-90.1-69.5-150.3-69.5C150.8 35.3 80.9 84.7 50.7 155l92.4-1 .3 10.2z"/><path d="M453.8 232c0 122.3-99.5 221.8-221.8 221.8-122.3 0-221.9-99.5-221.9-221.8 0-122.3 99.5-221.8 221.9-221.8 122.3 0 221.8 99.5 221.8 221.8M232 0C104.1 0 0 104.1 0 232.1s104.1 232 232 232 232-104.1 232-232C464 104.1 360 0 232 0"/></g></svg>