<svg xmlns="http://www.w3.org/2000/svg" preserveAspectRatio="xMidYMid" width="26" height="31" viewBox="0 0 26 31"><path d="M3.293 22.265c.227.729-.14 1.455-.832 1.685-.372.124-.756.16-2.149.123.282-.067.044.234.272.917.077.231.182.455.29.674.244.496.257.986-.002 1.481a5.338 5.338 0 0 0-.273.602c-.171.455-.065.698.392.852.599.202 1.224.3 1.845.411 1.232.221 2.423.596 3.618.96.608.185 1.223.311 1.859.121.802-.241 1.183-.827 1.084-1.672-.082-.697-.332-1.334-.691-1.922-.811-1.326-1.622-2.652-2.574-3.881-.33-.426-.68-.836-1.135-1.134-.358-.234-.729-.33-1.124-.075-.28.181-.31-.052-.332-.232-.074-.607-.072-1.228.253-1.755.675-1.097 1.025-2.325 1.479-3.512.343-.897.767-1.736 1.391-2.482a15.06 15.06 0 0 0 1.841-2.733c.164-.317.206-.632.175-.99-.167-1.934-.308-3.873-.197-5.812C8.632 1.284 10.57-.286 13.14.043c.543.07 1.077.175 1.592.367 1.551.581 2.343 1.832 2.844 3.329.22.656.264 1.336.259 2.032-.02 2.746.821 5.142 2.675 7.219 1.867 2.09 2.738 4.65 2.904 7.454.02.345-.043.686-.148 1.015-.079.25-.196.456-.472.562-.27.104-.396.388-.561.613-.378.514-.806.946-1.463 1.075-.865.171-1.458-.115-1.848-.914-.102-.21-.196-.423-.346-.603-.304-.361-.609-.326-.82.103a2.369 2.369 0 0 0-.14 1.727c.39 1.325.286 2.644.104 3.978-.104.753-.004 1.481.705 1.914.721.44 1.491.291 2.073-.222 1.217-1.072 2.601-1.778 4.12-2.264.265-.084.509-.231.729-.409.429-.347.423-.677-.021-1.014-.295-.223-.641-.341-.979-.476-.921-.367-1.421-1.96-.853-2.819.049.292.086.555.138.815.165.818.596 1.438 1.338 1.824.304.158.594.335.819.602.273.326.282.663.028 1.006a2.314 2.314 0 0 1-.535.496 6.538 6.538 0 0 1-1.205.68c-1.292.553-2.392 1.39-3.425 2.331-.974.886-2.854.638-3.555-.48-.22-.352-.511-.551-.914-.581-1.273-.095-2.546-.058-3.819-.015-.231.007-.461.032-.691.031-.856-.006-1.646.226-2.298.782-.881.75-1.813.84-2.847.405-1.678-.704-3.443-1.084-5.224-1.4a3.117 3.117 0 0 1-.658-.205c-.571-.24-.744-.605-.593-1.204.012-.048.024-.097.048-.139.489-.874.464-1.778.157-2.7a1.58 1.58 0 0 1-.065-.362c-.045-.543.124-.772.655-.868.202-.036.409-.041.615-.057.327-.025.651-.06.947-.225.468-.259.84-.589.883-1.181zm9.344-15.329c-.302-.159-.607-.164-.907-.132-.321.034-.452-.061-.447-.411.005-.468-.077-.931-.326-1.342-.385-.637-1.048-.628-1.408.025-.1.179-.171.38-.221.581-.154.613-.028 1.192.251 1.743.049.096.111.215.24.187a.335.335 0 0 0 .253-.243c.038-.15-.122-.118-.191-.168-.369-.268-.455-1.142-.141-1.478a.595.595 0 0 1 .959.115c.167.296.205.624.194.961a.266.266 0 0 1-.111.219c-.404.307-.653.796-1.157.989-.093.035-.168.141-.231.229-.209.293-.167.479.122.706.152.12.305.25.421.403.265.353.611.487 1.038.51.971.052 1.862-.282 2.763-.563.347-.108.682-.255.902-.584.083-.123.218-.176.339-.042.125.139.074.273-.056.38a.47.47 0 0 1-.16.083c-.769.23-1.477.617-2.223.906-.614.238-1.241.323-1.892.206-.109-.02-.226-.066-.352.022.323.457.714.705 1.266.695a3.04 3.04 0 0 0 1.325-.348c.412-.208.811-.442 1.218-.66.16-.085.319-.179.506-.193.103-.008.194.008.246.114.057.117-.018.189-.097.246a1.94 1.94 0 0 1-.311.189c-.665.309-1.263.726-1.847 1.167a5.656 5.656 0 0 1-.732.48c-.536.286-.886.219-1.306-.221-.287-.303-.506-.658-.744-.999-.094-.134-.165-.296-.392-.396.031.883-.453 1.534-.802 2.239-.027.055-.053.11-.078.166-.251.539-.38 1.089-.127 1.666.046.105.018.158-.053.25-1.065 1.36-1.726 2.883-1.779 4.642-.012.429.046.86-.035 1.286-.029.153-.034.342-.224.387-.194.045-.315-.101-.419-.238-.281-.369-.407-.799-.491-1.252-.091-.497.012-.984.067-1.578-.327.454-.377.873-.352 1.302.042.718.126 1.459.652 1.98a23.02 23.02 0 0 0 1.984 1.784c.643.504 1.28 1.015 1.895 1.553.612.534.462 1.51-.284 1.767-.381.132-.285.273-.129.491.071.099.131.207.206.303.426.55.651 1.17.658 1.872.001.096-.045.223.093.297.285-.201.357-.484.296-.807a2.476 2.476 0 0 0-.444-.998c-.077-.105-.312-.201-.104-.383.178-.156.358-.171.54.027.257.277.595.417.953.507.476.121.964.127 1.447.08 1.424-.137 2.77-.444 3.575-1.828.018-.031.045-.058.07-.084.076-.08.153-.177.275-.149.142.033.168.17.183.289.021.17.024.343.028.515.013.552-.18 1.059-.345 1.572-.075.233-.159.466-.142.716.011.165.098.281.269.296.197.018.142-.162.175-.261.039-.114.045-.24.07-.36.261-1.263.526-2.521.239-3.824-.126-.574-.17-1.165-.073-1.757.112-.681.377-.982 1.038-1.137.1-.023.177-.038.202-.164.124-.622.581-.83 1.134-.91.572-.083 1.113.039 1.699.322-.198-.335-.453-.459-.703-.57-.187-.084-.216-.184-.161-.367.242-.805.22-1.612.081-2.439-.218-1.288-.67-2.454-1.546-3.432-.114-.127-.244-.24-.366-.359.014.137.074.226.132.315.748 1.15 1.306 2.381 1.516 3.751.107.697.113 1.398-.126 2.074-.155.438-.536.642-1.021.583-.434-.052-.485-.392-.519-.728-.03-.305-.038-.612-.042-.919-.008-.517-.03-1.033-.139-1.538-.247-1.137-.438-2.3-1.312-3.172-.084-.083-.076-.204-.102-.31-.253-1.057-.615-2.062-1.285-2.937A1.71 1.71 0 0 1 15.4 9.31c.044-.166.087-.332.125-.5.12-.525-.006-.778-.518-.905-.467-.115-.868-.379-1.311-.532-.42-.145-.487-.428-.47-.792.007-.17.028-.344.076-.507.101-.339.291-.591.679-.618.387-.026.68.138.848.504.166.359.199.723.04 1.103-.133.319-.007.458.335.427.249-.023.382-.16.397-.396.04-.603.038-1.202-.216-1.769-.283-.63-.821-.963-1.445-.886-.728.09-1.185.547-1.317 1.265-.076.406.03.805.014 1.232zm-2.038-.484a.837.837 0 0 0-.17-.505c-.044-.056-.115-.095-.187-.033-.056.049-.054.122.004.153.178.095.152.252.139.408-.007.089.007.2.103.2.137.001.1-.133.111-.223zm3.528-.646c.112.142.254.219.317.364.041.094.023.31.187.232.127-.06.055-.242-.015-.356-.099-.163-.213-.32-.489-.24z" fill="currentColor" fill-rule="evenodd"/></svg>