<svg xmlns="http://www.w3.org/2000/svg" width="45" height="32" viewBox="0 0 45 32"><path fill="currentColor" d="M43.381 11.829c-1.958.009-3.842.006-5.788.088-.453-.004-.549-.139-.534-.518L37.02 2.59c-.039-1.199-.67-1.853-1.955-1.875C29.95.772 24.762.84 19.648.896c-5.188.068-10.376.137-15.491.193-.526.008-.956.151-1.276.504-.383.437-.533.913-.514 1.513.065 5.641.056 11.293.132 17.007-.007.905-.007.905-.913.898-.747.043-1.017.236-.974.983.001 2.863.065 5.641.066 8.504.031.673.298.932.983.974 1.505-.012 2.936-.013 4.441-.025.747-.043 1.017-.236.974-.983.034-1.211-.017-2.484-.056-3.683.027-.306.077-.464.456-.449l19.859-.207c.379.015.464.077.449.456-.034 1.211.005 2.41.044 3.61-.019.832.248 1.091 1.153 1.098 4.894-.022 9.776-.117 14.671-.139.832.019 1.091-.248 1.11-1.08-.065-5.641-.056-11.293-.12-16.934-.175-1.103-.442-1.362-1.262-1.307zM2.399 21.862c.832.019 1.725-.047 2.557-.028l.023.147c-.832-.019-1.725.047-2.557.028l-.023-.147zm1.409 8.893c-.294.047-.402-.162-.364-.394s.162-.402.383-.437c.221-.035.391.089.426.309-.027.306-.151.476-.445.523zm2.631-7.65c.004.979.009 1.958.025 3.01l.013 2.936c-.027.306-.004.453-.383.437-1.505.012-3.01.025-4.588.049-.306-.027-.391-.089-.364-.394-.009-1.958-.029-3.989-.038-5.946.027-.306.089-.391.394-.364 1.505-.012 3.01-.025 4.588-.049.294-.047.317.1.352.321zm20.683.718c-6.546.057-13.092.115-19.627.245-.453-.004-.549-.139-.534-.518.054-.611.046-1.137.026-1.737s-.287-.859-.886-.839c-.453-.004-1.017.236-1.296-.096-.194-.271-.055-.82-.051-1.273.005-5.2-.075-10.461-.143-15.649-.008-.526.127-.623.654-.631 4.821-.01 9.703-.105 14.524-.115 4.809-.084 9.703-.105 14.512-.189.453.004.623.127.619.58-.034 2.642.006 5.273.046 7.904-.004.453-.066.538-.518.534-1.884-.003-3.683.056-5.567.053-.832-.019-1.091.248-1.11 1.08.009 3.389.019 6.778.102 10.156-.162.402-.298.499-.75.496zm15.185-9.262c.037 4.515.074 9.03.123 13.618-.004.453-.054.611-.58.619-3.768-.006-7.525.062-11.281.129-.526.008-.549-.139-.546-.592.018-2.263-.037-4.515-.019-6.778s-.037-4.515-.019-6.778c.004-.453.054-.611.58-.619 3.768.006 7.525-.062 11.281-.129.367-.058.464.077.461.53zM23.499 27.109c-.058-.367-.229-.491-.596-.433-2.031.02-4.136.052-6.167.073-.306-.027-.515.081-.615.399-.352 1.111-.641 2.136-.993 3.246-.213.561-.019.832.581.812 1.284.023 2.557-.028 3.842-.006l.012.073c1.199-.039 2.41-.005 3.61-.044.306.027.611.054.894-.066.356-.132.615-.399.472-.828-.058-.367-.337-.7-.469-1.056-.128-.809-.391-1.52-.57-2.17z"/></svg>