<svg xmlns="http://www.w3.org/2000/svg" preserveAspectRatio="xMidYMid" width="31" height="32" viewBox="0 0 31 32"><path d="M30.902 17.974c-.207 2.532-1.06 4.874-2.473 6.982-2.475 3.692-5.887 5.97-10.241 6.802-.589.112-1.188.131-1.776.242h-1.861c-.206-.095-.428-.051-.642-.075-2.78-.311-5.328-1.251-7.567-2.945C2.408 26.005.268 22.023-.007 17.071c-.162-2.902.506-5.637 1.873-8.201.224-.419.395-.875.319-1.373a7.943 7.943 0 0 1 .203-3.432c.109-.385.234-.765.463-1.135.068.162.116.288.173.41.361.785.832 1.483 1.518 2.023.258.202.542.282.843.192 1.003-.297 2.007-.194 3.011-.036.334.052.589-.04.798-.293.132-.16.26-.323.389-.486.402-.507.835-.98 1.395-1.317.218-.131.441-.253.741-.301-.466 1.035-.743 2.061-.307 3.134.453 1.112 1.396 1.582 2.496 1.818a2.029 2.029 0 0 1-.328.558 10.315 10.315 0 0 1-3.219 2.791c-1.031.571-1.605 1.752-1.455 3.011.123 1.028.914 1.844 2.08 2.131.932.229 1.871.13 2.807.029.975-.104 1.946-.281 2.933-.16.209.026.424.044.617.21-.726.411-1.346.934-2.017 1.382-.45.301-.928.539-1.457.671-.872.218-1.722.087-2.57-.138-.391-.104-.715.019-.885.323-.176.316-.102.679.198.956.261.24.55.441.86.609 2.136 1.16 4.426 1.71 6.845 1.704 2.261-.005 4.208-.758 5.702-2.535a10.584 10.584 0 0 0 1.454-2.242c1.464-3.056 1.683-6.249 1.021-9.536a17.561 17.561 0 0 0-1.144-3.554c-.028-.065-.128-.148-.029-.216.083-.059.148.033.211.083.025.02.047.041.07.062 4.012 3.71 5.743 8.325 5.3 13.761zm-7.05-.666c-.188.334-.408.652-.633.962-1.16 1.607-2.753 2.363-4.703 2.417-1.387.038-2.736-.175-4.159-.596 1.304-.362 2.234-1.189 3.244-1.884.342-.236.71-.42 1.106-.551.492-.163.671-.592.457-1.069-.461-1.032-1.297-1.526-2.378-1.651-.935-.108-1.856.05-2.779.154-.801.09-1.6.221-2.409.103a2.173 2.173 0 0 1-.214-.037c-.629-.154-.981-.48-1.046-.965-.078-.579.245-1.217.75-1.5 1.417-.796 2.635-1.829 3.619-3.133.39-.517.692-1.084.809-1.735.135-.756-.126-1.093-.885-1.146-.393-.028-.781-.092-1.143-.259-.709-.328-.978-.946-.776-1.798.149-.628.465-1.175.837-1.693.466-.649.241-1.189-.542-1.318-1.378-.226-2.543.223-3.564 1.13a8.087 8.087 0 0 0-1.011 1.098c-.08.103-.151.187-.302.165a9.499 9.499 0 0 0-2.105-.058c.292-.271.508-.486.738-.685C8.924 1.397 11.413.313 14.251.054c.08-.007.158-.036.238-.054h1.861c.626.12 1.264.164 1.889.306 1.464.333 2.833.893 4.111 1.686a.923.923 0 0 1 .294.312c1.326 2.096 2.263 4.346 2.604 6.82.397 2.873.041 5.626-1.396 8.184z" fill="currentColor" fill-rule="evenodd"/></svg>