<svg xmlns="http://www.w3.org/2000/svg" preserveAspectRatio="xMidYMid" width="117" height="28" viewBox="0 0 117 28"><path d="M116.041 2.454c-.362.077-.468.414-.655.656-2.814 3.647-5.583 7.329-8.445 10.94-1.092 1.377-1.985 2.805-2.206 4.547-.132 1.042-.66 1.314-1.633 1.23-.879-.076-1.769-.036-2.653-.022-.548.008-.798-.216-.558-.724 1.093-2.305.462-4.528-.272-6.758-.273-.829-.448-1.689-.722-2.516-.163-.491-.057-.679.465-.657.404.018.811.002 1.216.009.883.014 1.866-.199 2.623.116.808.335.426 1.518.863 2.271.379-.074.472-.415.64-.654 1.846-2.632 3.697-5.259 5.506-7.916.393-.576.805-.848 1.526-.813 1.433.07 2.87.053 4.306.073l-.001.218zm-13.643 5.758c-2.58.006-5.161.027-7.74-.021-.773-.014-1.092.216-1.245.983-.634 3.173-1.357 6.329-2.001 9.501-.154.764-.43 1.17-1.29 1.101-.806-.066-1.621-.04-2.431-.022-.591.013-.77-.166-.63-.781 1.049-4.595 2.077-9.195 3.081-13.8.148-.681.485-.866 1.147-.845 1.437.047 2.875.024 4.313.03v.022c1.474.005 2.951-.04 4.422.029 1.992.093 3.209 1.443 3.159 3.354-.016.62-.456.449-.785.449zm-17.182 5.297c-1.4-.039-2.801-.021-4.202-.027-1.29-.005-2.581-.038-3.869 0-.443.013-1.123-.336-1.247.477-.119.785.065 1.454.922 1.764.669.242 1.368.282 2.067.29 1.695.02 3.391.019 5.086.024 1.355.005 1.355.003 1.035 1.275-.644 2.563-.644 2.572-3.244 2.561-1.806-.007-3.615.027-5.415-.085-3.494-.217-5.047-1.962-4.867-5.387.091-1.716.532-3.368 1.094-4.991 1.176-3.395 3.66-5.063 7.197-5.32 1.214-.088 2.431-.054 3.628.229 2.109.498 3.275 1.881 3.386 4.022.078 1.509-.248 2.962-.59 4.419-.135.576-.399.765-.981.749zm-3.641-5.454c-1.424-.763-3.691-.218-4.552 1.103-.175.27-.465.568-.343.875.148.368.577.18.881.195.625.028 1.251.012 1.878.015.552.002 1.109.049 1.655-.008.448-.047 1.124.339 1.279-.425.148-.73-.078-1.369-.798-1.755zm-12.974 10.63c-.157.741-.461 1.047-1.25 1.003-1.139-.064-2.284-.024-3.637-.029-1.226-.042-2.665.068-4.098-.121-1.95-.257-3.104-1.37-3.435-3.288-.372-2.153.291-4.186.715-6.245.343-1.675.76-3.335 1.074-5.014.122-.654.422-.834 1.041-.801.808.042 1.623.055 2.431.007.736-.043.872.211.721.893-.557 2.522-1.062 5.055-1.586 7.584-.044.213-.101.425-.129.641-.26 2.044.19 2.551 2.289 2.585 2.328.038 2.315.035 2.799-2.168.632-2.877 1.309-5.744 1.919-8.626.139-.659.387-.946 1.092-.882.658.061 1.336.092 1.987.004 1.14-.153 1.171.353.97 1.243a1043.64 1043.64 0 0 0-2.903 13.214zm-11.709 5.827c.339.049.555.199.585.53.024.279.085.62-.246.764-.282.122-.465.046-.681-.278-.28-.419-.518-.146-.617.255-.121.492-.287.972-.416 1.462-.084.32-.295.398-.578.325-.354-.091-.108-.347-.144-.511.096-.446.19-.869.278-1.294.271-1.301.487-1.443 1.819-1.253zm-3.118 2.634c-.22.596-.692.471-1.099.417-.523-.069-.233-.514-.274-.794-.037-.248-.007-.507-.006-.761l-.167-.015c-.164.393-.351.779-.488 1.181-.186.545-.63.408-1.012.395-.473-.016-.325-.403-.334-.659a27.408 27.408 0 0 1-.002-1.744c.009-.322-.002-.673.504-.666.566.008.389.402.4.696.011.287.001.575 0 .933.659-.485.325-1.997 1.634-1.585.743.235.076 1.043.39 1.594.408-.347.42-.863.609-1.277.135-.294.316-.393.597-.322.446.111.176.43.108.606-.262.676-.609 1.321-.86 2.001zm-1.18-12.352c-.321.794-.189 1.083.668.967 1.101-.15 1.267.238.967 1.26-.771 2.637-.723 2.673-3.528 2.634-3.094-.043-6.203.245-9.277-.155-3.783-.493-5.692-2.628-5.702-6.401-.009-3.382.926-6.546 2.964-9.314 1.275-1.731 2.98-2.883 5.102-3.427.326-.084.752.001.98-.369l3.763.014c.034.176.166.193.318.222 4.25.808 6.61 4.369 5.713 8.565-.443 2.072-1.179 4.049-1.968 6.004zM47.975 4.292c-2.215-.764-4.688.045-5.882 2.039-1.188 1.985-1.701 4.177-1.561 6.479.104 1.691 1.137 2.646 2.841 2.751.624.039 1.253.011 1.879.013v.019c.553.002 1.11-.041 1.657.017.797.085 1.193-.186 1.375-.994.271-1.203.696-2.371 1.022-3.563.344-1.259.814-2.496.739-3.838-.084-1.487-.778-2.477-2.07-2.923zM33.281 7.821c-.319-.059-.659-.011-.99-.013-2.237-.009-2.245-.011-1.747-2.109.459-1.933.06-1.617 2.107-1.625 2.663-.01 2.637.001 2.133 2.537-.174.881-.494 1.397-1.503 1.21zm.211 1.044c.567-.018.712.206.594.715-.928 3.997-1.784 8.012-2.805 11.985-.481 1.87-1.424 3.53-3.574 4.061-.799.198-1.61.103-2.218.121-2.586-.039-2.559-.034-2.051-2.306.232-1.035.447-1.869 1.87-1.632.913.152 1.32-.672 1.664-1.354.666-1.318.772-2.792 1.113-4.2a240.088 240.088 0 0 0 1.502-6.585c.131-.622.4-.85 1.035-.819.955.046 1.914.042 2.87.014zm-18.525 6.387c-3.457.324-6.778-1.578-8.23-4.713-1.105-2.383-.823-5.021.825-6.604-1.594 6.316 6.445 12.451 12.465 8.246-.384 1.539-2.517 2.834-5.06 3.071zm-1.48-6.461c-2.152-1.448-2.891-4.115-1.506-5.938.037 2.019.693 3.651 2.339 4.738 1.591 1.051 3.307 1.343 5.23.501-1.143 1.86-3.955 2.118-6.063.699zm-6.596 8.357c4.026 2.719 8.265 2.86 12.612.13-.116.73-.505 1.068-.835 1.42-3.727 3.98-10.303 4.06-14.762.186-1.671-1.451-2.845-3.22-3.494-5.33-.089-.29-.042-.67-.412-.834l.014-3.5c.634-1.181.863-2.601 2.253-3.618-1.1 5.009.607 8.833 4.624 11.546zm51.993 6.976c-.239-.006-.46-.093-.433-.36.037-.373.282-.558.673-.534.271.016.372.169.382.376-.076.374-.287.527-.622.518zm-.82.457c.453-.183 1.004-.173 1.244.453.004.008.128-.028.196-.044-.016-.633.846-.581.941-1.175.02-.126.478-.216.546.183.038.224-.13.532.306.541.168.002.391-.01.377.26-.012.251-.182.336-.404.438-.91.416-.968.946-.198 1.679.126.119.168.223.1.368-.2.429-.603.34-.958.347-.39.007-.648-.204-.655-.582-.006-.32.1-.641.147-.962.052-.349.203-.722-.204-.979-.805.02-.434.731-.653 1.095-.266.444.092 1.461-.688 1.309-.61-.118-.135-.976-.105-1.506.01-.179.104-.365.071-.531-.061-.306-.761-.613-.063-.894zm6.253.099c.458.191.488.671.42 1.139-.08.546-.443.582-.882.559-.392-.021-.785-.007-1.387-.009.487.662.963.489 1.377.541.174.022.402-.027.456.195.048.201-.106.365-.289.404-.718.154-1.471.361-2.094-.206-.435-.396-.213-1.763.352-2.317.596-.585 1.338-.602 2.047-.306zm2.815.291c.052-.245.236-.533.057-.728-.246-.269-.491-.499-.105-.782.277-.202.665-.163.958-.052.488.184.126.577.079.84-.172.965-.425 1.914-.622 2.874-.066.318-.136.586-.539.502-.408-.085-.175-.399-.216-.744.113-.56.247-1.235.388-1.91zm3.578-.324c.576.163.55.681.533 1.169-.021.58-.403.577-.834.589-.384.009-.794-.124-1.245.176.295.425.689.311 1.036.36.22.032.582-.125.574.288-.007.328-.321.379-.567.388-.669.025-1.483.323-1.869-.468-.367-.751-.045-1.507.447-2.112.498-.613 1.239-.585 1.925-.39zm1.164 2.318c.445-.073.963.178 1.326-.275-.117-.26-.371-.199-.563-.275-.325-.13-.897.216-.951-.424-.05-.603.246-1.047.813-1.286.164-.069.359-.134.528-.11.461.062 1.232-.252 1.279.386.044.579-.695.227-1.074.327-.214.056-.432.067-.579.27.073.352.391.215.604.292.303.11.815-.2.887.356.063.486-.088.928-.55 1.217-.578.362-1.198.248-1.814.176-.207-.024-.326-.151-.302-.367.026-.232.212-.257.396-.287zm3.028.008c.451-.065.959.164 1.479-.375-.299-.071-.482-.085-.637-.157-.336-.158-.974.243-.989-.511-.012-.623.313-1.022.875-1.248.132-.053.29-.097.427-.078.471.066 1.269-.257 1.321.344.059.686-.737.246-1.133.381-.201.069-.433.056-.521.311.145.293.444.171.67.247.279.093.729-.183.818.305.073.402-.021.796-.344 1.096-.618.575-1.357.433-2.083.329-.156-.022-.242-.157-.237-.318.007-.22.152-.296.354-.326zm3.389-.112c.314.128.232.402.215.647-.014.205-.151.415.023.613a262.86 262.86 0 0 0-.886-.004.48.48 0 0 0-.082-.498c-.196-.255-.076-.472.124-.658a.546.546 0 0 1 .606-.1zm4.053-2.237c.663.029 1.046-.07 1.128-.781.032-.275.252-.465.558-.381.406.113.171.401.126.621-.169.815-.366 1.626-.518 2.444-.137.736-.187 1.53-1.189 1.094-.848.14-1.57.236-1.679-.786-.121-1.135.631-2.252 1.574-2.211zm-.155 2.331c.76.066.547-.608.752-.932.023-.308.147-.643-.327-.659-.587-.02-.835.34-.944.848-.093.43.041.702.519.743zm3.88-2.329c.816-.019 1.36.243 1.328 1.168-.041 1.18-.782 1.945-1.903 1.945-.77.012-1.272-.25-1.262-1.119.014-1.19.722-1.969 1.837-1.994zm-.451 2.375c.636-.012.861-.432.915-.995.039-.402-.146-.606-.539-.65-.645.032-.859.466-.924 1.006-.046.383.145.647.548.639zm4.026-1.226c.161-.649.115-1.565 1.116-1.052.796-.153 1.435.111 2.094-.05.521-.127.886.248.855.744-.042.682-.227 1.355-.349 2.031-.052.293-.27.31-.497.278-.247-.034-.245-.22-.221-.41.05-.396.091-.793.149-1.188.039-.26.099-.535-.251-.61-.442-.096-.442.243-.495.531-.071.393-.17.78-.235 1.173-.054.328-.172.569-.56.498-.405-.073-.243-.375-.217-.606.044-.396.114-.791.156-1.188.02-.183-.008-.371-.238-.422-.267-.059-.405.069-.461.322-.108.496-.226.99-.339 1.485-.064.278-.196.453-.527.415-.419-.048-.301-.331-.26-.565.082-.464.166-.929.28-1.386zm6.361-1.116c.794.003 1.263.316 1.239 1.156-.034 1.19-.78 1.96-1.895 1.961-.766.019-1.295-.239-1.303-1.097-.011-1.203.796-2.023 1.959-2.02zm-.526 2.379c.651-.01.841-.491.926-1.016.067-.414-.201-.579-.586-.631-.62.055-.848.463-.904 1.02-.04.406.175.633.564.627zm2.346-1.269c.213-.982.983-1.406 1.958-1.063.696.245.309.86.439 1.3-.218.008-.526.097-.62-.005-1.025-1.122-.891.047-1.092.528-.07.166-.08.356-.155.519-.137.297-.092.848-.635.687-.558-.166-.108-.604-.108-.905-.001-.354.137-.707.213-1.061zm4.464-1.106c.694.09 1.064.315 1.083 1.067.021.821-.461.837-1.065.818-.309-.01-.659-.123-.971.186.226.389.612.272.941.313.231.03.591-.105.617.26.028.392-.346.402-.63.454-1.446.267-1.801-.043-2.022-1.757l-.017.018v-.001.001c-.002-.005-.002-.011-.003-.016l.018-.002c.561-.623.928-1.487 2.049-1.341zm1.741 2.255c.25-.016.444.086.452.339.01.328-.181.522-.264.529-.503.024-.715-.034-.713-.312.003-.324.174-.533.525-.556z" fill="currentColor" fill-rule="evenodd"/></svg>