<svg xmlns="http://www.w3.org/2000/svg" preserveAspectRatio="xMidYMid" width="22" height="31" viewBox="0 0 22 31"><path d="M21.266 9.379c-.168 2.105-.34 4.21-.508 6.316-.149 1.879-.293 3.759-.442 5.639-.169 2.135-.345 4.27-.507 6.406-.015.189-.073.265-.256.315-2.792.758-5.581 1.525-8.37 2.292a.698.698 0 0 1-.4.001c-2.803-.823-5.607-1.641-8.412-2.456-.155-.045-.216-.11-.23-.28-.059-.73-.138-1.459-.21-2.189-.186-1.892-.374-3.784-.559-5.676-.184-1.873-.365-3.745-.548-5.618C.614 11.98.408 9.831.186 7.684c-.046-.455-.03-.92-.181-1.363A95.421 95.421 0 0 1 0 5.786c.107-.007.214-.021.321-.02l20.867.189c.059.001.118.004.177.002.125-.006.17.036.158.174-.09 1.082-.17 2.165-.257 3.248zm-3.738.896l-13.132-.106c-.246-.003-.493.004-.738-.01-.161-.008-.217.023-.198.208.065.669.158 1.336.24 2.004.03.244.13.275.333.277 1.899.023 3.797.054 5.696.082.27.005.54.006.81.008.001.029.003.057.003.086-.088.04-.177.081-.267.12l-5.95 2.537c-.148.062-.283.106-.257.326.093.786.172 1.574.248 2.362.015.145.076.179.208.178.796-.005 1.593 0 2.389-.006 2.41-.017 4.821.053 7.231.076.157.002.203.052.194.208a290.76 290.76 0 0 0-.173 3.106c-.009.172-.093.226-.242.269-.912.26-1.818.535-2.73.79-.137.038-.237.164-.405.129a303.948 303.948 0 0 0-3.129-.634c-.195-.039-.274-.129-.289-.333-.039-.553-.12-1.103-.15-1.656-.014-.255-.112-.315-.341-.314-.679.005-1.358.002-2.036-.019-.231-.007-.3.053-.283.292a49.32 49.32 0 0 0 .374 3.573c.035.242.127.329.345.387 1.765.463 3.526.936 5.288 1.408.243.065.475.068.72.005 1.759-.456 3.519-.91 5.283-1.345.289-.072.357-.215.374-.484.062-.985.149-1.968.223-2.952.119-1.575.229-3.15.355-4.724.023-.281-.042-.368-.34-.368-1.787-.001-3.574-.025-5.421-.042.301-.133.554-.247.809-.357 1.621-.703 3.241-1.405 4.863-2.104.19-.082.303-.177.313-.423.032-.709.099-1.418.164-2.124.039-.427.049-.427-.382-.43zm-.52-6.05c-.61-.015-1.22-.014-1.83-.02l.001.005c-.591-.006-1.181-.019-1.771-.012-.182.002-.228-.049-.23-.231-.01-.742-.017-.742.711-.736.59.005 1.181-.017 1.77.023.354.024.29-.177.314-.392.034-.308-.166-.245-.331-.247-.748-.009-1.495-.021-2.243-.019-.173.001-.237-.033-.235-.226.011-.691.007-1.384-.006-2.077-.003-.174.056-.207.216-.205a353.8 353.8 0 0 0 3.57.033c.168 0 .252.026.239.223-.016.246-.012.495.008.741.016.191-.053.229-.229.226-.827-.014-1.653-.008-2.479-.024-.192-.004-.247.046-.244.242.003.189.049.248.244.248.817.005 1.633.035 2.45.039.206.002.265.062.263.269-.005.642.005 1.286.022 1.928.005.169-.043.217-.21.212zm-4.48-.045c-.6-.018-1.2-.016-1.8-.021v.003c-.59-.006-1.18-.02-1.77-.011-.198.002-.241-.061-.242-.249-.003-.731-.01-.731.725-.725.6.003 1.2-.013 1.799.019.375.02.229-.236.263-.406.046-.227-.09-.226-.253-.227-.767-.002-1.534-.018-2.301-.015-.187.001-.251-.041-.248-.242.01-.682.003-1.365-.009-2.047-.003-.163.034-.221.208-.218 1.2.018 2.4.028 3.599.033.165 0 .224.043.216.214-.012.236-.011.475.009.711.018.206-.046.268-.255.264-.807-.017-1.613-.007-2.42-.023-.199-.004-.264.038-.263.252.001.214.087.234.259.234.807.006 1.613.028 2.42.029.205 0 .266.057.264.265-.006.643.005 1.286.023 1.929.005.179-.037.236-.224.231zm-5.051-.053c-.973-.003-1.947-.024-2.92-.018-.23.001-.274-.07-.271-.283.01-.593-.006-1.187-.011-1.78-.006-.603-.007-1.206-.02-1.809-.004-.164.011-.242.212-.238 1.18.022 2.36.029 3.54.034.157.001.229.029.221.208-.013.276-.009.554.007.83.01.173-.051.214-.215.212-.767-.013-1.534-.007-2.301-.024-.194-.004-.25.05-.245.244.012.444.014.89-.006 1.334-.009.212.077.242.255.243.767.006 1.534.029 2.301.032.18 0 .244.043.23.23-.02.254.081.59-.046.743-.133.162-.478.043-.731.042z" fill="currentColor" fill-rule="evenodd"/></svg>