<svg xmlns="http://www.w3.org/2000/svg" preserveAspectRatio="xMidYMid" width="21" height="29" viewBox="0 0 21 29"><path d="M19.785 10.846l-.455 4.842c-.17 1.823-.34 3.646-.512 5.469l-.449 4.756c-.024.256-.058.513-.065.769-.004.185-.075.261-.249.311-2.156.62-4.31 1.245-6.463 1.876-.509.149-1.028.263-1.521.465l-.28.003c-.599-.249-1.236-.373-1.857-.549a689.833 689.833 0 0 0-6.035-1.671c-.191-.052-.239-.141-.254-.33-.159-2.067-.329-4.134-.495-6.201-.145-1.811-.287-3.623-.433-5.434-.162-2.02-.328-4.04-.491-6.059-.079-.986-.15-1.974-.236-2.959-.018-.205.017-.281.242-.283 6.587-.042 13.174-.09 19.761-.144.209-.002.271.046.249.269-.159 1.623-.305 3.247-.457 4.87zm-3.56-.78c-2.04.021-4.08.033-6.12.049v.006c-2.04.015-4.08.031-6.12.044-.155.001-.28-.025-.258.228.209 2.435.409 4.871.595 7.308.021.269.086.34.352.337 2.71-.029 5.421-.037 8.132-.067.281-.003.337.073.307.347-.1.929-.178 1.86-.259 2.791-.013.153-.061.228-.22.272-.839.226-1.674.466-2.508.709a.52.52 0 0 1-.298-.004c-.814-.222-1.629-.444-2.447-.653-.166-.042-.216-.119-.226-.289-.033-.541-.095-1.079-.127-1.621-.011-.192-.086-.228-.256-.225-.698.013-1.397.018-2.096.015-.165 0-.22.026-.204.22.105 1.203.195 2.408.285 3.612.013.179.064.28.257.332 1.593.431 3.183.877 4.774 1.318a.57.57 0 0 0 .328.02c1.641-.479 3.283-.957 4.926-1.432.111-.032.167-.079.176-.211.031-.437.078-.874.12-1.31.196-2.079.385-4.158.596-6.236.027-.274-.048-.304-.282-.301-2.898.03-5.795.049-8.692.078-.19.002-.273-.027-.285-.251-.038-.684-.103-1.365-.163-2.047-.031-.352-.038-.352.313-.354 3.036-.02 6.073-.042 9.11-.056.21-.001.283-.049.298-.279.047-.704.116-1.407.197-2.107.022-.194-.015-.245-.205-.243zm1.99-6.126c-.893-.002-1.785.002-2.678.02-.203.005-.242-.063-.24-.255.016-1.133.02-2.265.026-3.398.001-.103.027-.209-.023-.308l1.341-.01c-.005.8-.005 1.599-.019 2.398-.003.178.029.245.221.238.464-.02.93-.007 1.395-.019.151-.004.214.029.206.2a9.908 9.908 0 0 0-.006.912c.008.183-.056.222-.223.222zm-3.735.026a9.873 9.873 0 0 0-.894.008c-.186.012-.211-.066-.207-.231.013-.532.011-1.065-.034-1.624l-.853 1.326-.825-1.296c-.105.09-.059.191-.061.277-.009.448-.018.897-.007 1.345.004.181-.051.227-.22.219a7.061 7.061 0 0 0-.81.006c-.193.013-.251-.044-.248-.248.017-1.135.021-2.269.026-3.404.001-.103.027-.21-.023-.309l1.398-.01 1.621-.012 1.341-.009c-.005 1.258-.013 2.516-.012 3.774 0 .157-.05.192-.192.188zM9.792 1.09c.001.202-.034.295-.257.273-.211-.022-.428.015-.64-.005-.222-.023-.256.071-.254.273.007.713-.01 1.427-.006 2.141.001.178-.035.251-.226.241a8.295 8.295 0 0 0-.892.005c-.165.009-.197-.054-.195-.208.012-.714.004-1.428.023-2.141.007-.227-.033-.328-.279-.298-.211.026-.428-.008-.64.014-.198.02-.224-.066-.224-.24 0-.36.044-.721-.015-1.079L9.821.039C9.758.388 9.79.74 9.792 1.09zM5.376 4.035a7.304 7.304 0 0 0-.837.005c-.166.009-.205-.054-.199-.211.012-.314.001-.629.012-.943.005-.136-.031-.198-.168-.173-.01.002-.019 0-.028 0-.316.008-.729-.104-.919.058-.195.166-.07.606-.057.923.011.282-.054.395-.347.361a3.819 3.819 0 0 0-.725.003c-.192.015-.25-.043-.247-.247.017-1.133.02-2.267.027-3.4.001-.104-.004-.209-.006-.313l1.286-.01 1.23-.009L5.683.07c-.011 1.228-.029 2.457-.027 3.685 0 .23-.065.292-.28.28z" fill="currentColor" fill-rule="evenodd"/></svg>