<svg xmlns="http://www.w3.org/2000/svg" width="33" height="32" viewBox="0 0 33 32"><path fill="currentColor" d="M25.794 18.749c-.552-.669-3.043-1.618-3.794-.813-1.044 1.06 4.856 2.068 3.794.813zm3.855 8.81l-.345-23.274c.036-.758-.6-1.384-1.442-1.378l-23.19.302c-.758-.036-1.384.6-1.378 1.442l.261 23.317c-.036.758.6 1.384 1.442 1.378l23.274-.345c.758.036 1.342-.684 1.378-1.442zm-9.011-.478c-1.179-.033-2.483.103-3.622-.267-5.317-1.727-2.611-.149-2.611-.149-1.472.222-3.025.696-4.541.624-1.222-.117-1.305-.074-1.736-1.334s-.988-2.56-1.586-3.734c-.256-.503-.901-2.182-.442-2.733.627-.636.34.46.804.541-.127-.041.614-2.32.78-2.616.413-1.055.952-2.07 1.831-2.834 1.84-1.571 4.027-1.841 6.259-1.605.885.077 1.685.198 2.32.614.847.625 1.483 1.252 2.658.864 1.133-.472.37-1.139-.225-1.892-.766-1.089-1.364-2.263-1.962-3.437-.256-.503-2.173-3.435-1.545-3.861.335-.171 1.769.155 2.065.321.635.416 1.617 2.345 1.875 3.058.771 1.72 1.42 4.03 3.111 5.069 1.057.623.671-.342.413-1.055-.261-1.134-.438-2.312-.616-3.489-.174-.756-.475-1.554.452-1.392.674.079.805.752 1.021 1.381.516 1.427.696 3.025.961 4.581.087.378.6 1.384.476 1.764-.201 1.264-.315 2.907-.05 4.462.393 1.807-.267 3.622-2.459 3.26-.337-.04-.972-.456-1.307-.285-.252.128-1.084 1.397-1.25 1.693-.206.633-.152 2.19-1.076 2.45zm11.627 1.258l-.358-24.958C31.894 1.697 30.453.319 28.769.332L3.727.733C2.043.746.665 2.187.678 3.871l.358 24.958c.013 1.684 1.454 3.062 3.138 3.049l24.958-.358c1.767-.055 3.104-1.37 3.133-3.181zm-3.945 1.588l-23.274.345a2.336 2.336 0 0 1-2.333-2.297L2.368 4.701a2.336 2.336 0 0 1 2.297-2.333l23.231-.429a2.334 2.334 0 0 1 2.332 2.297l.345 23.274c.052 1.347-.992 2.407-2.255 2.416z"/></svg>