<svg xmlns="http://www.w3.org/2000/svg" preserveAspectRatio="xMidYMid" width="30" height="29" viewBox="0 0 30 29"><path d="M10.245 6.509c-1.327.66-2.49 1.555-3.623 2.49a27.85 27.85 0 0 0-3.134 3.039c.179-.829.478-1.609.839-2.368 1.978-4.155 5.304-6.614 9.813-7.569.963-.205 1.947-.232 2.93-.198.254.009.485-.04.717-.142 1.6-.71 3.243-1.298 4.979-1.58 1.467-.238 2.936-.321 4.364.251 1.578.631 2.389 1.785 2.419 3.458.028 1.567-.382 3.038-1.104 4.425-.125.239-.116.409.01.641 1.278 2.354 1.722 4.873 1.483 7.519-.037.407-.046.406-.452.406H18.949l-7.947.001c-.379 0-.415.04-.371.401.409 3.329 2.647 4.777 5.195 5.173 2.656.412 4.723-.604 6.243-2.756.089-.127.185-.189.338-.189 2.193.001 4.386.002 6.578-.002.193 0 .209.05.14.22-1.828 4.486-5.111 7.338-9.896 8.388-2.862.628-5.682.348-8.36-.91-.253-.118-.447-.113-.69.025-1.588.904-3.281 1.518-5.11 1.726a6.048 6.048 0 0 1-2.637-.267C1.157 28.262.505 27.302.204 26.076c-.336-1.37-.218-2.739.084-4.101.503-2.263 1.515-4.314 2.682-6.3 1.927-3.28 4.321-6.2 7.049-8.86.091-.089.202-.158.304-.237l-.078-.069zm6.447 6.697h5.656c.375 0 .382-.005.356-.384-.059-.9-.371-1.716-.878-2.46-1.47-2.16-4.404-3.145-7.04-2.293-2.288.739-3.747 2.242-4.094 4.665-.066.455-.047.472.405.472h5.595zm-12.84 6.416a9.454 9.454 0 0 0-.878 1.758c-.493 1.308-.89 2.634-.756 4.059.11 1.172.719 1.94 1.852 2.298.448.142.91.213 1.379.183 1.502-.095 2.885-.565 4.216-1.319-2.723-1.679-4.687-3.952-5.813-6.979zM21.506 2.789c2.73 1.052 4.865 2.839 6.514 5.316.486-1.394.991-2.704.724-4.141-.199-1.069-.817-1.81-1.883-2.141a4.603 4.603 0 0 0-1.647-.184c-1.246.074-2.412.43-3.518.988-.066.033-.159.04-.19.162z" fill="currentColor" fill-rule="evenodd"/></svg>