<svg xmlns="http://www.w3.org/2000/svg" width="31" height="32" viewBox="0 0 31 32"><path fill="currentColor" d="M11.783 17.027l-.045 5.522 5.522.045c.912.018 1.688-.177 2.203-.687s.782-1.22.749-2.07c.018-.912-.278-1.563-.725-2.028-.509-.515-1.27-.72-2.182-.738l-5.522-.045zm-.008-7.109l-.054 4.897 5.122.03c.737-.021 1.401-.204 1.866-.651.527-.397.743-1.045.773-1.845.018-.912-.216-1.513-.651-1.865s-1.084-.569-1.933-.536l-5.122-.03zm14.06-9.1L5.57.673C2.784.681.459 2.917.468 5.703L.272 26.03c.008 2.786 2.244 5.111 5.03 5.102l20.265.145c2.786-.008 5.111-2.244 5.102-5.03l.258-20.276C30.919 3.185 28.633.922 25.835.818zm-3.276 11.038c-.018.912-.222 1.673-.726 2.295-.441.672-1.081 1.081-1.895 1.451 1.11.281 1.957.761 2.44 1.564.595.791.814 1.791.832 3.041a7.52 7.52 0 0 1-.362 1.972c-.278.598-.619 1.146-1.146 1.542s-1.229.755-2.055 1.012c-.826.257-1.839.364-2.976.37l-8.196-.049.13-17.703 8.596.064c1.599.059 2.884.379 3.816 1.135 1.095.681 1.613 1.821 1.542 3.308z"/></svg>