<svg xmlns="http://www.w3.org/2000/svg" preserveAspectRatio="xMidYMid" width="43" height="31" viewBox="0 0 43 31"><path d="M41.984 29.51l-14.303.312c-.828.017-1.083-.226-1.099-1.044-.023-1.178-.057-2.355-.059-3.533-.001-.34-.112-.423-.446-.416-6.46.15-12.921.291-19.381.422-.343.007-.434.111-.423.442.041 1.211.055 2.423.075 3.635.011.707-.233.961-.944.978-1.434.036-2.867.067-4.301.094-.676.013-.939-.239-.952-.913-.056-2.782-.108-5.564-.158-8.346-.012-.694.241-.942.962-.963.885-.027.885-.027.869-.909-.105-5.548-.208-11.095-.318-16.642-.011-.55.088-1.052.47-1.472.336-.368.762-.491 1.255-.501C8.275.551 13.319.438 18.363.328L33.391.001c1.199-.026 1.865.598 1.89 1.792.059 2.867.119 5.735.153 8.602.005.426.118.539.551.524 1.882-.065 3.765-.094 5.648-.133.828-.017 1.083.225 1.098 1.044l.313 16.59c.015.818-.23 1.071-1.06 1.09zm-38.717.245c.267-.013.39-.174.41-.442-.03-.227-.166-.357-.409-.335-.235.021-.378.162-.377.403 0 .238.119.387.376.374zM.89 21.998c-.282.004-.39.074-.383.376.049 1.944.085 3.889.111 5.834.004.278.073.387.379.378a200.4 200.4 0 0 1 4.454-.096c.344-.003.39-.14.381-.429-.032-.955-.042-1.911-.06-2.866-.018-.973-.045-1.945-.049-2.917-.002-.279-.073-.387-.379-.378a254.31 254.31 0 0 1-4.454.098zm.916-.893l.003.112 2.503-.054-.005-.112-2.501.054zM33.147 2.703c-.005-.445-.115-.569-.579-.558-4.714.121-9.429.217-14.143.32-4.715.103-9.429.214-14.144.296-.513.009-.616.157-.605.64.115 5.119.204 10.238.302 15.356.009.425-.118.967.097 1.241.233.298.805.068 1.229.081.585.019.862.259.883.83.021.563.051 1.128.026 1.689-.019.421.107.542.546.531 6.389-.154 12.779-.293 19.169-.419.421-.008.55-.106.54-.541-.082-3.327-.137-6.654-.199-9.982-.015-.817.231-1.07 1.059-1.089 1.814-.041 3.627-.095 5.44-.108.445-.004.535-.143.524-.557a486.06 486.06 0 0 1-.145-7.73zm7.461 10.812c-.006-.431-.092-.58-.57-.567-3.679.102-7.358.182-11.037.24-.481.008-.559.165-.547.594.062 2.217.093 4.436.135 6.655.042 2.219.095 4.437.116 6.656.004.431.092.58.571.567 3.678-.102 7.357-.183 11.036-.241.481-.008.557-.165.547-.593-.098-4.437-.182-8.874-.251-13.311zM15.215 26.101c.091-.314.27-.409.597-.414 2-.028 4.001-.071 6-.131.364-.011.529.116.621.448.181.656.408 1.3.583 1.958.101.38.367.674.462 1.063.112.46-.078.667-.455.819-.282.112-.577.09-.869.096-1.172.027-2.345.052-3.517.077l-.001-.038c-1.259.028-2.517.058-3.776.082-.608.012-.757-.19-.586-.769.315-1.063.636-2.125.941-3.191z" fill="currentColor" fill-rule="evenodd"/></svg>