<svg xmlns="http://www.w3.org/2000/svg" preserveAspectRatio="xMidYMid" width="68" height="50" viewBox="0 0 68 50"><path d="M42.762 1.464c1.189.633 2.475 1.072 3.601 1.834 1.878 1.271 3.51 2.759 4.132 5.005.77 2.786-.102 5.282-1.766 7.478-3.248 4.287-7.716 6.433-13.071 6.83-3.671.271-7.256-.155-10.677-1.596-1.707-.719-3.011-1.89-3.882-3.52a3.457 3.457 0 0 1-.405-1.705c.004-.234.082-.43.334-.488.219-.051.362.086.458.258 1.668 3 4.574 3.782 7.673 4.104 4.719.49 9.186-.302 13.235-2.851 1.618-1.019 3.023-2.274 3.872-4.017 1.18-2.422.611-4.337-1.672-5.829-2.45-1.603-5.209-2.285-8.074-2.49-7.225-.516-14.057 1.019-20.574 4.024a13.66 13.66 0 0 0-3.622 2.422c-3.195 2.985-3.612 6.363-1.289 10.149 1.144 1.864 2.544 3.546 3.845 5.298.675.91 1.343 1.825 1.886 2.819.177.325.347.476.757.376 2.313-.567 4.633-1.108 6.952-1.649.255-.06.42-.235.615-.374 1.422-1.018 2.967-1.781 4.708-2.077 1.121-.192 2.281-.216 3.09.743.797.944.448 2.03.144 3.069-.081.277-.188.547-.301.873.282-.012.492-.047.697-.026 1.133.117 1.61.967 1.052 1.939-1.096 1.907-2.243 3.785-3.243 5.746a6.452 6.452 0 0 0-.593 1.815c.365.129.483-.134.63-.294 3.313-3.643 6.371-7.494 9.452-11.326.25-.311.464-.671.606-1.041.334-.868.976-1.049 1.82-.937.704.093 1.4.215 2.048.499.782.344.922.764.416 1.44-1.077 1.437-1.718 3.017-1.835 4.812-.052.787.146 1.523.307 2.45 2.354-2.499 4.984-4.521 6.61-7.443.293-.526.475-1.294 1.297-1.282 1.165.017 2.351.046 3.308.86.386.329.175.678-.051.999-.954 1.356-1.704 2.779-1.852 4.479-.103 1.18.19 2.288.416 3.414.106.522.517.283.792.245 2.763-.38 5.424.012 7.938 1.172 2.714 1.252 4.678 3.197 5.287 6.218.115.57.11 1.162.16 1.744l-.51 1.864c-.848 1.24-1.935 2.145-3.48 2.388-.384.061-.937.271-1.07-.206-.14-.501.478-.46.798-.575 1.885-.676 2.793-2.087 2.53-3.971-.197-1.42-.868-2.606-1.946-3.529-2.741-2.348-5.98-3.267-9.556-3.175-.474.012-.58.199-.535.646.116 1.145-.027 2.268-.675 3.245-1.52 2.289-5.554 3.079-7.274 2.652-.923-.229-1.348-.883-1.208-1.81.118-.787.49-1.473.972-2.096 1.11-1.436 2.576-2.426 4.186-3.235.218-.11.584-.124.484-.518-.434-1.719-.5-3.466-.332-5.402-.278.261-.414.377-.536.506-1.218 1.292-2.399 2.637-3.809 3.717-1.1.843-1.526 1.744-1.431 3.15.146 2.138-.871 3.795-2.866 4.713-1.685.775-3.485.975-5.32.608-.781-.157-1.723-.223-1.928-1.207-.197-.94.616-1.353 1.232-1.811 1.664-1.239 3.456-2.304 5.078-3.604.34-.273.453-.517.35-.952-.375-1.572-.564-3.165-.416-4.785.018-.188-.022-.381-.045-.707-.326.395-.555.655-.764.929-2.496 3.275-5.252 6.325-8.16 9.243-.748.751-1.563 1.414-2.608 1.714-.931.268-1.748-.194-2.028-1.114-.119-.391-.105-.794-.088-1.197.045-1.024.36-1.986.694-2.953-.203.164-.351.35-.504.533-.998 1.195-1.928 2.458-3.161 3.435-1.521 1.205-3.428.675-4.049-1.146-.679-1.994-.596-4.009.017-6.008.455-1.484 1.203-2.84 2.028-4.327-1.375.355-2.599.683-3.83.983-.438.107-.344.39-.316.686.466 5.031-2.793 10.018-7.6 11.709-1.691.594-3.423.707-5.188.641l-2.515-.679c-.129-.09-.247-.211-.39-.265-1.18-.44-1.795-1.33-2.074-2.498-.334-1.395-.076-2.708.516-3.984 1.043-2.249 2.998-3.454 5.162-4.41 2.36-1.042 4.833-1.729 7.36-2.248 1.059-.217 1.077-.246.418-1.052-1.212-1.482-2.472-2.926-3.677-4.414-2.698-3.331-5.316-6.705-5.321-11.276l.509-1.864c.061-.049.147-.086.179-.15 1.113-2.258 2.882-3.948 4.948-5.307C17.506 1.746 25.695.212 34.248.002c1.489-.036 2.946.304 4.427.358l4.087 1.104zm-27.599 33.1c.185-.495.189-1.116.267-1.726.066-.524-.106-.641-.628-.495-2.269.637-4.508 1.348-6.602 2.434-1.495.776-2.724 1.845-3.408 3.413-.725 1.661-.004 2.735 1.834 2.787 3.797.107 7.504-2.645 8.537-6.413zm8.27 1.367c-.171.695-.322 1.482-.222 2.292.072.589.367.759.878.404.198-.137.375-.306.547-.475 1.154-1.136 2.048-2.479 3.015-3.762 1.258-1.67 2.48-3.367 3.428-5.238.141-.278.343-.601.087-.898-.238-.277-.59-.201-.915-.154-.716.103-1.352.415-1.909.839-2.353 1.793-4.042 4.058-4.909 6.992zm27.837 3.254c-1.574.743-2.743 1.87-3.595 3.334-.163.28-.166.504.279.516 1.802.048 3.603-1.992 3.316-3.85zm-13.906 3.423c1.685.181 4.019-1.422 4.074-2.755-1.283 1.011-2.654 1.829-4.074 2.755z" fill="currentColor" fill-rule="evenodd"/></svg>