<svg baseProfile="tiny" xmlns="http://www.w3.org/2000/svg" viewBox="15 1 55 42"><path fill="currentColor" d="M26.7 8.3c.1.2.2.2.3.1.2-.1.5-.2.7-.3.2-.1.2-.1.2-.3l-.6-1.2c0-.1-.1-.2-.1-.3.4.3.8.5 1.3.8.1-.5.2-1.1.2-1.6.3.5.5 1 .7 1.5.1.2.1.2.3.1l.9-.3c.1-.1.2-.1.1-.3-.5-1.1-1-2.3-1.6-3.4l-1.2.6c-.1.5-.1 1-.2 1.6-.4-.3-.9-.6-1.3-.9-.4.2-.8.4-1.3.6.1.1.1.2.1.3.6.9 1 2 1.5 3zM19.3 12c.2-.1.4-.2.7-.3.3-.1.3-.2.2-.5-.1-.3-.4-.6-.3-.9.1-.2.5-.3.8-.4.1-.1.2 0 .2.1.1.3.3.6.4.9.1.1.1.2.3.1.2-.1.5-.3.8-.4.2-.1.2-.2.1-.4-.5-1.1-1-2.2-1.5-3.4-.4.2-.8.4-1.2.5.1.4.3.7.4 1 .1.2.1.2-.1.3-.2.1-.5.2-.7.3-.2.1-.2 0-.3-.1-.2-.3-.3-.7-.5-1-.4.2-.8.4-1.2.5 0 .1.1.2.1.3.5 1 .9 2.1 1.4 3.1.2.4.3.4.4.3zm2.9-4.2l.6-.3c.2-.1.3-.1.4.2.3.7.6 1.3.9 2 .1.1.1.2.3.1.3-.1.5-.3.8-.4.2-.1.2-.2.1-.3-.3-.6-.6-1.3-.9-1.9-.1-.2-.1-.3.1-.4l.6-.3c.2-.1.2-.2.1-.4-.1-.3-.3-.6-.4-1l-3.3 1.5c.2.3.3.6.5 1-.1.2 0 .3.2.2zm9-1.6c.1.2.1.2.3.1.8-.4 1.6-.8 2.4-1.1.2-.1.2-.1.1-.3-.1-.3-.3-.6-.4-.8-.1-.2-.1-.2-.3-.1-.4.2-.8.4-1.3.6-.2.1-.2 0-.3-.1-.3-.7-.7-1.5-1-2.2l-1.2.6c.1.1.1.2.1.3.7.9 1.1 2 1.6 3zm35.5 19.5c-5.2-4.6-10.4-9.3-15.6-13.9-.1-.1-.2-.1-.3-.2-.1.1-.2.3-.3.4-.2.4-.5.8-.8 1.1-1.3 1.8-2.5 3.5-3.8 5.3-1.1 1.5-2.2 3.1-3.3 4.6-.1.1-.1.2-.2.3-.3-.9-.6-1.7-.9-2.6-.6-1.7-1.2-3.5-1.8-5.2-.5-1.5-1.1-3.1-1.6-4.6-.5-1.5-1.1-3.1-1.6-4.6.1-.3 0-.3-.2-.2-6 2.8-11.9 5.6-17.9 8.3-.2.1-.2.2-.1.4.5.9 1 1.7 1.4 2.6 1 1.8 2 3.5 3 5.3.9 1.6 1.8 3.2 2.6 4.8l3 5.4c.1.2.2.2.4.2 2.1-.3 4.1-.7 6.2-1 .6-.1 1.3-.2 1.9-.3.1 0 .2-.1.3-.1.4-.4.8-.7 1.2-1.1.1-.1.2-.1.3-.2 1.4 2.2 2.9 4.5 4.3 6.7l.3.3c2.6 1.3 5.2 2.5 7.8 3.8.2.1.3.1.4-.1 1.5-1.5 3.1-3 4.6-4.5 1.4-1.3 2.7-2.6 4.1-3.9 1.5-1.5 3-2.9 4.5-4.4.8-.8 1.6-1.5 2.3-2.3.1-.1.1-.2 0-.2-.1-.1-.1-.1-.2-.1zm-27.6-1.5l-3.9 3.3c-.1.1-.2.1-.3.1-1.6.3-3.3.5-4.9.8-.2 0-.3 0-.4-.2-.6-1.1-1.2-2.1-1.8-3.2-.1-.2-.1-.2.1-.3.6-.3 1.3-.6 1.9-.9.2-.1.2-.1.3.1.3.5.5.9.8 1.4.1.2.2.2.3.2.8-.1 1.7-.3 2.5-.4.1 0 .2 0 .3-.1.7-.6 1.3-1.1 2-1.7.1-.1.1-.2.1-.3-.3-.9-.6-1.8-.9-2.6-.1-.3-.2-.3-.4-.2-2.5 1.2-4.9 2.3-7.4 3.4-.2.1-.3.1-.5-.2-1.2-2.1-2.4-4.3-3.6-6.4-.1-.2 0-.2.1-.3 1.9-.9 3.7-1.7 5.5-2.6 1.8-.9 3.7-1.7 5.5-2.6.2-.1.2 0 .3.1.2.7.4 1.3.7 2 .1.2 0 .3-.2.4-2.8 1.3-5.5 2.6-8.3 3.8-.3.1-.3.1-.1.5.3.6.7 1.2 1 1.8.1.2.2.2.4.1 2.6-1.2 5.3-2.4 7.9-3.7.2-.1.3-.1.4.2.7 2 1.4 3.9 2 5.9.1.4.3.8.4 1.2.4.3.3.3.2.4zm22 2.9l-1.5 1.5c-.2.2-.3.2-.5.1-1.7-.5-3.4-1.1-5-1.6-.3-.1-.5-.2-.8-.3 1.4 1.2 2.7 2.4 4 3.6.2.2.2.3 0 .5-1.1 1.1-2.3 2.2-3.4 3.3l-2.1 2.1c-.2.2-.3.3-.6.1-1.6-.8-3.2-1.7-4.9-2.5-.2-.1-.4-.3-.5-.5l-3-4.5c-.1-.2-.1-.3 0-.5.7-1 1.3-2 2.1-2.9.1-.2.2-.2.4 0 .5.5 1 .9 1.5 1.4.2.2.2.3 0 .5-.3.4-.6.9-1 1.3-.1.2-.1.3 0 .4.6.8 1.3 1.7 1.9 2.5.1.1.3.1.4.2.9.4 1.7.8 2.6 1.2.1.1.2.1.4 0 .7-.7 1.4-1.5 2.2-2.2.1-.1.1-.2 0-.3-1.8-1.6-3.6-3.3-5.4-4.8-.7-.7-1.3-1.2-1.9-1.7-.1-.1-.1-.2 0-.3.5-.6.9-1.3 1.4-1.9.1-.2.3-.1.4-.1 2 .7 4.1 1.3 6.1 2 .1 0 .2.1.3.1l.1-.1c-.2-.2-.4-.4-.6-.5-1.4-1.3-2.8-2.6-4.2-3.8-.2-.1-.2-.2-.1-.4.4-.6.7-1.1 1.1-1.7.1-.2.2-.1.3 0 .2.2.4.3.5.5 3.3 2.9 6.5 5.8 9.8 8.7.3.3.3.3 0 .6zM59.8 15c.6.5 1.1 1 1.7 1.5.1.1.2.2 0 .3-.1.1-.2.4-.5.1-.4-.4-.9-.8-1.3-1.2-.5-.5-.5-.5-1 .1-.1.1-.1.2 0 .3.4.4.9.8 1.3 1.2.4.4.9.8 1.3 1.2.1.1.2.1.3 0 .4-.5.8-1 1.3-1.5.1-.2.1-.2 0-.4-.6-.5-1.2-1.1-1.8-1.6-.1 0-.1 0 0-.2s.2-.2.4 0c.6.5 1.2 1.1 1.8 1.6.2.1.2.1.4 0 .1-.2.3-.4.5-.5.1-.1.1-.2 0-.3l-2.7-2.4c-.1-.1-.2-.1-.3 0-.4.5-.9 1-1.3 1.5-.3.1-.3.2-.1.3zm7.6 3.5l-2.7-2.4c-.1-.1-.2-.1-.3 0-.4.5-.9 1.1-1.4 1.6-.1.1-.1.2 0 .3.6.5 1.1 1 1.7 1.5.1.1.3.2.1.4-.2.1-.2.3-.5.1-.4-.4-.9-.8-1.3-1.2-.5-.5-.5-.5-1 .1-.1.1-.1.2 0 .3.4.4.9.8 1.3 1.2.5.4.9.8 1.4 1.2.1.1.2.1.3 0 .4-.5.8-1 1.3-1.5.1-.2.1-.2 0-.4-.6-.5-1.2-1.1-1.8-1.6-.1-.1-.1-.2 0-.3.1-.1.2-.1.3 0 .6.6 1.2 1.1 1.8 1.7.1.1.2.1.3 0 .1-.2.3-.4.5-.6.1-.2.1-.3 0-.4zm-9.8-3.3c.2.2.4.5.6.5.2 0 .3-.4.5-.5.1-.1.1-.2 0-.3-.6-.5-1.1-1-1.7-1.5-.1-.1-.2-.2 0-.4.3-.3.6-.7.9-1 .1-.1.2-.2.3 0 .6.5 1.1 1 1.7 1.5.1.1.2.1.3 0 .2-.2.4-.4.5-.6.1-.1.1-.2 0-.3-.9-.8-1.8-1.6-2.6-2.4-.1-.1-.2-.1-.3 0-.4.5-.8.9-1.2 1.4-.4.4-.8.9-1.2 1.3-.1.2-.2.2 0 .4.8.6 1.5 1.3 2.2 1.9z"/></svg>