<svg xmlns="http://www.w3.org/2000/svg" viewBox="0 0 100 50"><path fill="currentColor" d="M45.7 16.5c-1.3.7-2.5 1.6-3.6 2.5-1.1.9-2.1 1.9-3.1 3 .2-.8.5-1.6.8-2.4 2-4.2 5.3-6.6 9.8-7.6 1-.2 1.9-.2 2.9-.2.3 0 .5 0 .7-.1 1.6-.7 3.2-1.3 5-1.6 1.5-.2 2.9-.3 4.4.3 1.6.6 2.4 1.8 2.4 3.5 0 1.6-.4 3-1.1 4.4-.1.2-.1.4 0 .6 1.3 2.4 1.7 4.9 1.5 7.5 0 .4 0 .4-.5.4H46.5c-.4 0-.4 0-.4.4.4 3.3 2.6 4.8 5.2 5.2 2.7.4 4.7-.6 6.2-2.8.1-.1.2-.2.3-.2h6.6c.2 0 .2.1.1.2-1.8 4.5-5.1 7.3-9.9 8.4-2.9.6-5.7.3-8.4-.9-.3-.1-.4-.1-.7 0-1.6.9-3.3 1.5-5.1 1.7-.9.1-1.8 0-2.6-.3-1.3-.4-1.9-1.4-2.2-2.6-.3-1.4-.2-2.7.1-4.1.5-2.3 1.5-4.3 2.7-6.3 1.9-3.3 4.3-6.2 7-8.9.2.1.3.1.3-.1.1.1.1 0 0 0zm6.5 6.7h5.7c.4 0 .4 0 .4-.4-.1-.9-.4-1.7-.9-2.5-1.5-2.2-4.4-3.1-7-2.3-2.3.7-3.7 2.2-4.1 4.7-.1.5 0 .5.4.5h5.5zm-12.8 6.4c-.4.6-.7 1.2-.9 1.8-.5 1.3-.9 2.6-.8 4.1.1 1.2.7 1.9 1.9 2.3.4.1.9.2 1.4.2 1.5-.1 2.9-.6 4.2-1.3-2.8-1.8-4.7-4.1-5.8-7.1zM57 12.8c2.7 1.1 4.9 2.8 6.5 5.3.5-1.4 1-2.7.7-4.1-.2-1.1-.8-1.8-1.9-2.1-.5-.2-1.1-.2-1.6-.2-1.2.1-2.4.4-3.5 1-.1 0-.2 0-.2.1z"/></svg>