<svg xmlns="http://www.w3.org/2000/svg" viewBox="0 0 156 37"><path fill="currentColor" d="M61.8 17.7c-.5 0-1.2.2-1.8.5-.5.4-1.1.7-1.2.9-.2.4-.5.5-.7.7-.9-1.4-2.1-2.1-3.7-2.1-1.1 0-2.1.5-2.8 1.8 0-.5-.2-1.1-.4-1.3-.4-.4-.9-.5-1.8-.5s-1.6.2-1.8.7c-.2.2-.2.5-.2.7v10.8c0 .2.2.4.2.7.2.5.9.7 2 .7s1.8-.2 2-.7c.2-.2.2-.5.2-.7v-5.4c0-1.4.5-2.1 1.4-2.1 1.1 0 1.6.7 1.6 2.1v5.4c0 .2.2.4.2.7.2.5.9.7 2 .7s1.8-.2 2-.7v-6.2c0-.7.2-1.3.4-1.6.2-.4.5-.5 1.2-.5 1.1 0 1.6.7 1.6 2.1v5.5c0 .2.2.4.2.7.2.5.9.7 2 .7s1.8-.2 2-.7c.2-.2.2-.5.2-.7v-5.4c0-2.3-.5-4.1-1.4-5.2-1.1-1.2-2.2-1.6-3.4-1.6zm17.6.2c-.4-.2-.9-.2-1.4-.2-1.2 0-2 .5-2 1.4l-.5-.5c-.2-.2-.5-.4-1.1-.5-.5-.2-1.1-.4-1.6-.4-1.4 0-2.8.7-4.1 2-1.2 1.3-2 2.9-2 4.6 0 1.8.5 3.4 1.8 4.6 1.2 1.3 2.7 2 4.1 2 1.4 0 2.5-.5 3-1.4 0 .4.2.7.5 1.1.4.2.9.4 1.8.4s1.4-.2 1.8-.7c.2-.2.2-.5.2-.7v-9.8c.6-1.7-.2-1.9-.5-1.9zm-4.1 8c-.4.5-.9.7-1.6.7-.5 0-1.1-.2-1.6-.7-.4-.5-.7-.9-.7-1.4 0-.5.2-1.1.5-1.6.4-.5.9-.7 1.6-.7.7 0 1.2.2 1.6.7.4.5.5 1.1.5 1.6.2.3.1.9-.3 1.4zm15.1-8c-.4-.2-.5-.2-.9-.2h-1.1c-.4 0-.9.2-1.4.4-.5.4-.9.5-1.1.7l-.4.4c0-.4-.2-.5-.4-.9s-.9-.5-2-.5-1.8.2-2 .7c-.2.2-.2.5-.2.7v10.5c0 .5.2.9.5 1.1.4.4.9.4 1.8.4 1.1 0 1.8-.2 2-.7.2-.2.2-.5.2-.7v-6.3c0-.5.2-.9.5-1.3.4-.4.9-.5 1.2-.5.5 0 .9 0 1.1.2.6.1.8.1 1.1.1.5 0 1.1-.4 1.4-.9.4-.7.5-1.3.5-1.8s-.2-.9-.4-1.3c.1.1 0-.1-.4-.1zm9.2 6.4l2.5-2.1c.5-.5.9-.9.9-1.4 0-.4-.4-.9-.9-1.6-.5-.7-1.1-1.1-1.4-1.1-.4 0-.9.2-1.4.7l-.4.2c-.4.2-.7.7-1.4 1.3-.5.5-1.1 1.1-1.4 1.3v-8.7c0-.5-.2-.9-.5-1.1-.4-.4-.9-.4-1.8-.4-1.1 0-1.8.2-2 .7-.2.2-.2.5-.2.7v17c0 .2.2.4.2.7.2.5.9.7 2 .7s1.8-.2 2-.7c.2-.2.2-.5.2-.7v-2.9c.4.4 1.1.9 1.8 1.8.9.7 1.4 1.4 1.8 1.6l.2.2c.7.5 1.2.7 1.6.7.4 0 .9-.4 1.4-1.1.5-.7.9-1.1.9-1.6-.2-.7-.5-1.1-1.1-1.4l-3-2.8zm16.9-6.1c-.2-.5-.9-.7-2-.7s-1.8.2-2 .7c-.2.2-.2.5-.2.7v5.4c0 .7-.2 1.3-.5 1.6-.4.4-.9.5-1.6.5-.7 0-1.2-.2-1.6-.5-.4-.4-.5-.9-.5-1.6v-4.5c0-.5 0-1.1-.2-1.3-.2-.7-.9-.9-2.1-.9-1.1 0-1.8.2-2 .7-.2.2-.2.5-.2.7v5.4c0 1.8.5 3.4 1.6 4.6 1.1 1.3 2.5 2 4.3 2 .7 0 1.2-.2 1.8-.5.2-.2.4-.4.7-.5l.5-.5c0 .4 0 .7.2 1.1.2.4.9.5 2 .5s1.6-.2 2-.7c.2-.2.2-.5.2-.7V19c-.2-.2-.2-.4-.4-.8zm8.5-.5c-1.4 0-2.3.4-3 1.3 0-.4-.2-.7-.5-1.1-.4-.2-.9-.4-1.8-.4s-1.4.2-1.6.7c-.2.2-.2.5-.2.7v16.6c0 .2.2.4.2.7.2.2.4.4.7.5.4.2.7.2 1.2.2s.9 0 1.2-.2c.4-.2.5-.4.7-.5.2-.2.2-.5.2-.7v-6.1c.5.7 1.6 1.3 3 1.3s2.7-.7 3.9-2c1.2-1.3 1.8-2.9 1.8-4.5 0-1.8-.5-3.2-1.8-4.5-1.3-1.3-2.7-2-4-2zm.7 8c-.4.4-.9.7-1.6.7-.5 0-1.1-.2-1.4-.7-.4-.5-.5-.9-.5-1.4 0-.5.2-1.1.5-1.4.4-.5.9-.7 1.6-.7.7 0 1.2.2 1.6.7.4.5.5.9.5 1.4 0 .5-.1.9-.7 1.4zm18.5-7.5c-.2-.5-.9-.7-2-.7s-1.8.2-2 .7c-.2.2-.2.5-.2.7v5.4c0 .7-.2 1.3-.5 1.6-.4.4-.9.5-1.6.5-.7 0-1.2-.2-1.6-.5-.4-.4-.5-.9-.5-1.6v-4.5c0-.5 0-1.1-.2-1.3-.2-.7-.9-.9-2.1-.9-1.1 0-1.8.2-2 .7-.2.2-.2.5-.2.7v5.4c0 1.8.5 3.4 1.6 4.6 1.1 1.3 2.5 2 4.3 2 .7 0 1.2-.2 1.8-.5.2-.2.4-.4.7-.5l.5-.5c0 .4 0 .7.2 1.1.2.4.9.5 2 .5s1.6-.2 2-.7c.2-.2.2-.5.2-.7V19c-.2-.2-.2-.4-.4-.8zm11.4 6.5c-.4-.5-.7-1.1-1.2-1.3-1.1-.5-2.1-.9-3.2-.9-1.1-.2-1.8-.5-1.8-1.1 0-.4.5-.5 1.4-.5.7 0 1.2.2 1.8.4.5.2.9.4 1.1.4.4 0 .7-.4 1.1-.9.4-.5.5-1.1.5-1.4 0-.4-.4-.7-.9-1.1-1.2-.5-2.5-.9-3.7-.9-3.6 0-5.5 1.3-5.5 3.9 0 .9.2 1.6.5 2.3.4.7.7 1.1 1.2 1.4 1.1.7 2.1 1.1 3.2 1.3 1.1.2 1.6.4 1.6.7 0 .4-.5.5-1.6.5-.5 0-1.2-.2-2-.5-.7-.4-1.2-.5-1.6-.5-.4 0-.7.2-.9.4-.7.9-.9 1.6-.9 2 0 .4.2.7.5.9 1.4.9 3 1.4 4.6 1.4 1.6 0 3-.2 4.1-.7.5-.4 1.1-.7 1.4-1.4.4-.5.5-1.4.5-2.3.3-.9.1-1.6-.2-2.1zm-118.1-9c-1.6 0-3 1.4-3 3s1.4 3 3 3 3-1.4 3-3c0-1.5-1.4-3-3-3zm0 10c-1.6 0-3 1.4-3 3s1.4 3 3 3 3-1.4 3-3c0-1.7-1.4-3-3-3zM28.4 0c-.7 0-1.4.4-2 .7L9.1 21.6c-1.1 1.1-1.1 2.9 0 3.9.5.5 1.2.7 2 .7.7 0 1.4-.4 2-.7L30.4 4.6c1.1-1.1 1.1-2.9 0-3.9-.6-.5-1.3-.7-2-.7zm0 12.7c-.7 0-1.4.4-2 .7-.5.5-.7 1.3-.7 2v12.9c0 1.4 1.2 2.7 2.7 2.7.7 0 1.4-.4 2-.7.5-.5.7-1.3.7-2V15.4c0-1.6-1.3-2.7-2.7-2.7zm-17.7.9c.7 0 1.4-.4 2-.7.5-.5.7-1.3.7-2s-.4-1.4-.7-2L5 1.3C4.6.4 3.7 0 2.7 0 2 0 1.2.4.7.7.2 1.3 0 2 0 2.7v25.4C0 29.7 1.2 31 2.8 31c1.6 0 2.8-1.3 2.8-2.9V9.5L9 12.9c.4.3.9.7 1.7.7z"/></svg>