<svg xmlns="http://www.w3.org/2000/svg" viewBox="0 0 41 32"><path fill="currentColor" d="M37.7 15.8c-1.6 0-3 1.4-3 3s1.4 3 3 3 3-1.4 3-3c0-1.5-1.4-3-3-3zm0 10c-1.6 0-3 1.4-3 3s1.4 3 3 3 3-1.4 3-3c0-1.7-1.4-3-3-3zM28.7.1c-.7 0-1.4.4-2 .7L9.3 21.7c-1.1 1.1-1.1 2.9 0 3.9.5.5 1.2.7 2 .7.7 0 1.4-.4 2-.7L30.6 4.7c1.1-1.1 1.1-2.9 0-3.9-.5-.5-1.2-.7-1.9-.7zm0 12.7c-.7 0-1.4.4-2 .7-.5.5-.7 1.3-.7 2v12.9c0 1.4 1.2 2.7 2.7 2.7.7 0 1.4-.4 2-.7.5-.5.7-1.3.7-2V15.5c-.1-1.6-1.3-2.7-2.7-2.7zm-17.8.9c.7 0 1.4-.4 2-.7.5-.5.7-1.3.7-2s-.4-1.4-.7-2L5.2 1.3C4.9.4 4 .1 2.9.1 2.2.1 1.5.5.9.8c-.5.5-.7 1.3-.7 2v25.4c0 1.6 1.2 2.9 2.8 2.9 1.6 0 2.8-1.3 2.8-2.9V9.6L9.3 13c.4.3.9.7 1.6.7z"/></svg>