<svg xmlns="http://www.w3.org/2000/svg" viewBox="223.4 26.8 157 129.6"><path d="M319.4 91.9c-6.5 0-11.8 5.3-11.8 11.9 0 6.6 5.3 11.9 11.8 11.9 6.5 0 11.8-5.3 11.8-11.9.1-6.6-5.3-11.9-11.8-11.9zm0 19c-3.9 0-7-3.1-7-6.9 0-3.8 3.1-6.9 7-6.9s7 3.1 7 6.9c0 3.6-3.3 6.9-7 6.9zm26.4-13.2c-3.4 0-6.1 2.8-6.1 6.2v11.3h-5.2V92.7h5.2v3.5s2.2-3.5 6.7-3.5h1.5v5h-2.1zm-51.7-5l3.9 15.4 4.1-15.4h5.2l-6.5 22.4h-5l-4-15.7-4 15.7h-5L276 92.7h5l4.4 15.4 3.7-15.4h5zm68.9 10.2c3.6-2.1 6.1-5.9 6.1-10.3h-5.2c0 3.8-3.1 6.9-6.8 6.9h-.7V81.8h-5.2v33.3h5.2v-10.6h.6c.6 0 1.2.3 1.3.7l7.3 9.8h6.1l-8.7-12.1zm-99-11c-5.6 0-9.9 3.7-11.6 9.5-2.7-4.1-4.7-8.8-5.9-12.8h-5.9v15.5c0 3.1-2.5 5.6-5.6 5.6-3.1 0-5.6-2.5-5.6-5.6V88.7h-5.9v15.5c0 6.5 5.2 11.6 11.6 11.6 6.4 0 11.6-5.1 11.6-11.6v-2.6c1.2 2.3 2.7 4.8 4.3 7l-3.7 17.2h6.1l2.7-12.5c2.4 1.5 5 2.3 8.1 2.3 6.5 0 11.8-5.3 11.8-12-.1-6.4-5.5-11.7-12-11.7zm0 17.8c-2.4 0-4.7-1-6.7-2.6l.6-2.3v-.1c.4-2.5 1.8-6.7 6.2-6.7 3.3 0 5.9 2.6 5.9 5.9 0 3.1-2.9 5.8-6 5.8zm108.3-16.3h-1.6v-.6h4v.6H373v4.5h-.6v-4.5h-.1zm3.4-.6h.6l1.8 2.8 1.8-2.8h.6v5h-.6v-4.1l-1.8 2.6-1.8-2.6v4.1h-.6v-5z" fill="currentColor"/><g fill="currentColor"><path d="M300.3 26.8l5.6 17.2h18l-14.6 10.6 5.5 17.2-14.6-10.6-14.6 10.6 5.5-17.2L276.5 44h18l5.8-17.2z"/><path d="M271.8 44.4l2.6 8h8.5l-6.9 5.1 2.6 8-6.9-5-6.9 5 2.6-8-6.9-5.1h8.5l2.8-8z"/><path d="M255.8 54.1l1.8 5.4h5.6l-4.6 3.4 1.8 5.4-4.6-3.3-4.7 3.3 1.8-5.4-4.6-3.4h5.7l1.8-5.4zm73-9.7l-2.6 8h-8.5l6.9 5.1-2.6 8 6.9-5 6.9 5-2.6-8 6.9-5.1h-8.5l-2.8-8z"/><path d="M344.8 53.9l-1.8 5.4h-5.6l4.6 3.3-1.8 5.4 4.6-3.3 4.7 3.3-1.8-5.4 4.6-3.3h-5.7l-1.8-5.4z"/></g><g fill="currentColor"><path d="M242.2 147.8h8.9v-1.2h-8.9v1.2z"/><path d="M235.9 133.6v15l10.7 7.7 10.7-7.8v-14.8c-7.1-.1-14.2-.1-21.4-.1zm15.1 14.2h-8.9v-1.2h8.9v1.2zm.2-2.6h-9l-1.7-4.8 3.5 1.2 2.7-3.7 2.7 3.7 3.5-1.2-1.7 4.8z"/></g><path fill="currentColor" d="M280.3 136.8h-9v2h3.5v9h2v-9h3.5v-2zm49 10.9h2.2l-4.8-10.9h-2l-4.7 10.9h2.1c.3-.9 0 0 1-2.6h5.1l1.1 2.6zm-1.8-4.4H324l1.8-3.9 1.7 3.9zm3.6-4.6h3.4v9h2.1v-9h3.4v-2h-8.9v2zm17.2 7.2h-4.2v-2.7h5.5v-1.8h-5.5v-2.7h6.1v-1.8h-8.1v10.9h8.2V146c-1.3-.1-1.3-.1-2-.1zm-61.3-9.3c-3.2 0-5.7 2.6-5.7 5.7 0 3.2 2.6 5.7 5.7 5.7 3.2 0 5.7-2.6 5.7-5.7s-2.5-5.7-5.7-5.7zm0 9.6c-2 0-3.6-1.7-3.6-3.9 0-2.1 1.6-3.9 3.6-3.9s3.6 1.7 3.6 3.9c0 2.1-1.6 3.9-3.6 3.9zm15.3-8.2c-.7-.7-1.5-1.1-2.5-1.2-1.4-.2-3.1-.1-5-.1v10.9h2v-3.4c1.2 0 2.3 0 3.3-.2 1.9-.2 3.3-1.7 3.3-3.6-.1-.9-.5-1.7-1.1-2.4zm-3 4.4l-2.6.1v-3.9h2.6c1.1 0 1.9.9 1.9 1.9s-.8 1.9-1.9 1.9zm17 1.1c2.2-.7 2.6-2.4 2.6-3.5 0-1.2-1-3.3-3.8-3.3h-5.3v11h2.1v-3.8h2.5l2.6 3.8h2.3l-3-4.2zm-4.5-1.4v-3.6h3.2c1.6 0 1.8 1.5 1.8 1.8s-.2 1.8-1.8 1.8h-3.2zm45.1-5.4h-4.4v11h4.2c3.1 0 5.6-2.4 5.6-5.7.1-3.4-2.9-5.3-5.4-5.3zm-.4 9.3h-2.1v-7.5h2.2c1.6 0 3.8 1.2 3.8 3.6.1 2.4-1.5 3.9-3.9 3.9z"/></svg>