<svg width="6" height="6" viewBox="0 0 6 6" xmlns="http://www.w3.org/2000/svg"><path d="M2.846.913c.58 0 1.107.222 1.503.586-.194-.006-.388.11-.396.373-.016.534.638.647.286 1.72l-.292.887-.794-2.338c-.012-.037.002-.057.047-.057h.224c.012 0 .022-.01.022-.022v-.133c0-.012-.01-.023-.022-.022a14.87 14.87 0 0 1-1.267 0 .021.021 0 0 0-.021.022v.133c0 .012.01.022.02.022h.226c.05 0 .065.017.077.049l.326.892-.491 1.482-.807-2.376c-.01-.03.003-.047.031-.047h.257c.012 0 .022-.01.022-.022v-.133c0-.012-.01-.023-.022-.022-.27.014-.54.017-.793.02A2.219 2.219 0 0 1 2.846.912zM4.8 2.076a2.22 2.22 0 0 1-.887 3.006l.692-1.961c.107-.304.207-.714.195-1.045zm-1.21 3.15a2.214 2.214 0 0 1-1.39.033l.685-1.96.705 1.928zm-1.694-.085a2.221 2.221 0 0 1-1.07-2.928l1.07 2.928zm.95-4.436a2.43 2.43 0 1 1 0 4.859 2.43 2.43 0 0 1 0-4.86zm0-.154a2.583 2.583 0 1 1 0 5.166 2.583 2.583 0 0 1 0-5.166z" fill="currentColor" fill-rule="evenodd"/></svg>