<svg width="322" height="112" viewBox="0 0 322 112" xmlns="http://www.w3.org/2000/svg"><title>envelope-top</title><defs><linearGradient x1="50%" y1="286.343%" x2="50%" y2="1.77%" id="a"><stop stop-color="#CCC" offset="0%"/><stop stop-color="#D5D5D5" offset="6.633%"/><stop stop-color="#E5E5E5" offset="23.14%"/><stop stop-color="#EFEFEF" offset="41.55%"/><stop stop-color="#F2F2F2" offset="65.55%"/></linearGradient><linearGradient x1="50%" y1="101.171%" x2="50%" y2="-1.393%" id="b"><stop stop-color="#FFF" offset="0%"/><stop stop-color="#F9F9F9" offset="40.19%"/><stop stop-color="#E9E9E9" offset="92.55%"/><stop stop-color="#E6E6E6" offset="100%"/></linearGradient></defs><g fill="none"><path d="M321.5 111.3h-.5c-.6-2.8-2-5.5-4.2-7.7l-145.3-99c-6.1-6-15.9-6-21.9 0l-145.3 99c-2.2 2.2-3.6 4.9-4.2 7.8l321.4-.1z" fill="url(#a)"/><path d="M21.9 111.4c.5-2.4 1.7-4.8 3.6-6.7l125.6-85.5c5.2-5.2 13.7-5.2 18.9 0l125.6 85.5c1.9 1.9 3.1 4.2 3.6 6.7H21.9z" fill="url(#b)" opacity=".5"/></g></svg>