<svg width="22" height="36" viewBox="0 0 22 36" xmlns="http://www.w3.org/2000/svg"><title>icon-scrolling</title><path d="M21 18.2v-5.1c0-1.4.1-2.8-.1-4.2-1.2-6.7-9.2-10.2-15.2-6.5C2.5 4.3.9 7.1.9 10.7v13.4c0 1 0 2.1.1 3.1.8 5.2 5.9 8.9 11.3 8.2 4.9-.7 8.6-4.6 8.7-9.4v-7.8zm-2.2 7.5c0 3.7-2.5 6.6-6.2 7.4-4.2.9-8.7-2-9.3-6.1-.1-.9-.1-1.8-.1-2.7V10.7c0-3.9 2.9-7.1 6.9-7.6 4.3-.5 8.2 2.4 8.7 6.6.1 1 .1 1.9.1 2.9-.1 4.3-.1 8.7-.1 13.1zM12.5 12l-.5.5V8.7c0-.7-.5-1.2-1.1-1.2-.7 0-1.1.5-1.1 1.2v3.9l-.5-.5c-.3-.2-.6-.2-.9 0-.3.3-.3.6-.1.9.6.5 1.1 1.1 1.7 1.6.1.1.1.2.2.2s.1.1.2.1.2.1.4.1.4-.1.6-.2c.1-.1.2-.1.2-.2.6-.5 1.1-1.1 1.7-1.6.3-.2.2-.6-.1-.9 0-.4-.4-.4-.7-.1z" fill="#FFF"/></svg>