<svg width="756" height="759" viewBox="0 0 756 759" xmlns="http://www.w3.org/2000/svg"><title>stamp</title><g fill="none"><g transform="translate(2 2)"><path d="M738.1 360.7l4.2-3.1c13.1-9.5 11-29.7-3.8-36.3l-4.8-2.1c-13.1-5.8-16.7-22.7-7.1-33.4l3.5-3.9c10.9-12.1 4.6-31.4-11.3-34.7l-5.1-1.1c-14-3-21-18.8-13.9-31.2l2.6-4.5c8.1-14.1-2-31.6-18.3-31.6H679c-14.3 0-24.5-14-20.1-27.6l1.6-5c5-15.4-8.6-30.5-24.4-27.1l-5.1 1.1c-14 3-26.9-8.6-25.4-22.8l.5-5.2c1.7-16.1-14.7-28.1-29.6-21.5l-4.8 2.1c-13.1 5.8-28.1-2.8-29.6-17.1l-.5-5.2c-1.7-16.1-20.2-24.4-33.4-14.9l-4.2 3.1c-11.6 8.4-28 3.1-32.5-10.5l-1.6-5c-5-15.4-24.9-19.7-35.7-7.6l-3.5 3.9c-9.6 10.6-26.8 8.8-33.9-3.6l-2.6-4.5c-8.1-14.1-28.4-14.1-36.5 0l-2.6 4.5c-7.2 12.4-24.4 14.2-33.9 3.6l-3.5-3.9C306.8 3.5 287 7.8 282 23.2l-1.6 5c-4.4 13.6-20.9 19-32.5 10.5l-4.2-3.1c-13.1-9.5-31.7-1.3-33.4 14.9l-.5 5.2c-1.5 14.2-16.5 22.9-29.6 17.1l-4.8-2.1c-14.8-6.6-31.3 5.3-29.6 21.5l.5 5.2c1.5 14.2-11.3 25.8-25.4 22.8l-5.1-1.1c-15.9-3.4-29.5 11.7-24.4 27.1l1.6 5c4.4 13.6-5.7 27.6-20.1 27.6h-5.2c-16.2 0-26.4 17.6-18.3 31.6l2.6 4.5c7.2 12.4.1 28.2-13.9 31.2l-5.1 1.1c-15.9 3.4-22.2 22.7-11.3 34.7l3.5 3.9c9.6 10.6 6 27.6-7.1 33.4l-4.8 2.1c-14.8 6.6-17 26.8-3.8 36.3l4.2 3.1c11.6 8.4 11.6 25.7 0 34.1l-4.2 3.1c-13.1 9.5-11 29.7 3.8 36.3l4.8 2.1c13.1 5.8 16.7 22.7 7.1 33.4l-3.5 3.9C10.8 485.7 17.1 505 33 508.3l5.1 1.1c14 3 21 18.8 13.9 31.2l-2.6 4.5c-8.1 14.1 2 31.6 18.3 31.6h5.2c14.3 0 24.5 14 20.1 27.6l-1.6 5c-5 15.4 8.6 30.5 24.4 27.1l5.1-1.1c14-3 26.9 8.6 25.4 22.8l-.5 5.2c-1.7 16.1 14.7 28.1 29.6 21.5l4.8-2.1c13.1-5.8 28.1 2.8 29.6 17.1l.5 5.2c1.7 16.1 20.2 24.4 33.4 14.9l4.2-3.1c11.6-8.4 28-3.1 32.5 10.5l1.6 5c5 15.4 24.9 19.7 35.7 7.6l3.5-3.9c9.6-10.6 26.8-8.8 33.9 3.6l2.6 4.5c8.1 14.1 28.4 14.1 36.5 0l2.6-4.5c7.2-12.4 24.4-14.2 33.9-3.6l3.5 3.9c10.9 12.1 30.7 7.8 35.7-7.6l1.6-5c4.4-13.6 20.9-19 32.5-10.5l4.2 3.1c13.1 9.5 31.7 1.3 33.4-14.9l.5-5.2c1.5-14.2 16.5-22.9 29.6-17.1l4.8 2.1c14.8 6.6 31.3-5.3 29.6-21.5l-.5-5.2c-1.5-14.3 11.3-25.8 25.4-22.8l5.1 1.1c15.9 3.4 29.5-11.7 24.4-27.1l-1.6-5c-4.4-13.6 5.7-27.6 20.1-27.6h5.2c16.2 0 26.4-17.6 18.3-31.6l-2.6-4.5c-7.2-12.4-.1-28.2 13.9-31.2l5.1-1.1c15.9-3.4 22.2-22.7 11.3-34.7l-3.5-3.9c-9.6-10.6-6-27.6 7.1-33.4l4.8-2.1c14.8-6.6 17-26.8 3.8-36.3l-4.2-3.1c-11.7-8.4-11.7-25.7-.1-34.1zm-331 333.9h-62.2c-1.5 0-2.9-.2-4.4-.5l-60.8-12.9c-1.4-.3-2.8-.8-4.2-1.4l-56.8-25.3c-1.3-.6-2.6-1.3-3.8-2.2l-50.3-36.5c-1.2-.9-2.3-1.9-3.3-3l-41.6-46.2c-1-1.1-1.9-2.3-2.6-3.6L86 509.2c-.7-1.3-1.3-2.6-1.8-4L65 446.1c-.5-1.4-.8-2.8-.9-4.3L57.6 380c-.2-1.5-.2-2.9 0-4.4l6.5-61.8c.2-1.5.5-2.9.9-4.3l19.2-59.1c.5-1.4 1.1-2.8 1.8-4l31.1-53.8c.7-1.3 1.6-2.5 2.6-3.6l41.6-46.2c1-1.1 2.1-2.1 3.3-3l50.3-36.5c1.2-.9 2.5-1.6 3.8-2.2l56.8-25.3c1.3-.6 2.8-1.1 4.2-1.4l60.8-12.9c1.4-.3 2.9-.5 4.4-.5h62.2c1.5 0 2.9.2 4.4.5l60.8 12.9c1.4.3 2.8.8 4.2 1.4l56.8 25.3c1.3.6 2.6 1.3 3.8 2.2l50.3 36.5c1.2.9 2.3 1.9 3.3 3l41.6 46.2c1 1.1 1.9 2.3 2.6 3.6l31.1 53.8c.7 1.3 1.3 2.6 1.8 4l19.2 59.1c.5 1.4.8 2.8.9 4.3l6.5 61.8c.2 1.5.2 2.9 0 4.4l-6.5 61.8c-.2 1.5-.5 2.9-.9 4.3l-19.2 59.1c-.5 1.4-1.1 2.8-1.8 4L634.9 563c-.7 1.3-1.6 2.5-2.6 3.6l-41.6 46.2c-1 1.1-2.1 2.1-3.3 3l-50.3 36.5c-1.2.9-2.5 1.6-3.8 2.2l-56.8 25.3c-1.3.6-2.8 1.1-4.2 1.4l-60.8 12.9c-1.5.3-2.9.5-4.4.5z" stroke="#662020" stroke-width="4.514" fill="#DB2128"/><path d="M723.4 367l4.1-2.9c12.6-9.2 10.6-28.5-3.7-34.9l-4.6-2c-12.6-5.6-16-21.8-6.8-32l3.4-3.7c10.4-11.6 4.4-30.1-10.8-33.3l-4.9-1c-13.4-2.9-20.2-18-13.3-29.9l2.5-4.3c7.8-13.5-1.9-30.4-17.5-30.4h-5c-13.7 0-23.5-13.4-19.2-26.5l1.5-4.8c4.8-14.8-8.2-29.3-23.5-26l-4.9 1c-13.4 2.9-25.8-8.2-24.3-21.9l.5-5c1.6-15.5-14.1-26.9-28.4-20.6l-4.6 2c-12.6 5.6-26.9-2.7-28.4-16.4l-.5-5c-1.6-15.5-19.4-23.4-32-14.3l-4.1 2.9c-11.1 8.1-26.9 3-31.1-10.1l-1.5-4.8c-4.8-14.8-23.9-18.9-34.3-7.3l-3.4 3.7c-9.2 10.2-25.7 8.5-32.6-3.4l-2.5-4.3c-7.8-13.5-27.3-13.5-35.1 0l-2.5 4.3c-6.9 11.9-23.4 13.6-32.6 3.4l-3.4-3.7c-10.4-11.6-29.5-7.5-34.3 7.3l-1.5 4.8C279.9 61 264.1 66.1 253 58l-4.1-2.9c-12.6-9.2-30.4-1.2-32 14.3l-.5 5c-1.4 13.7-15.8 22-28.4 16.4l-4.6-2c-14.2-6.3-30 5.1-28.4 20.6l.5 5c1.4 13.7-10.9 24.8-24.3 21.9l-4.9-1c-15.2-3.2-28.3 11.2-23.5 26l1.5 4.8c4.2 13.1-5.5 26.5-19.2 26.5h-5c-15.6 0-25.3 16.9-17.5 30.4l2.5 4.3c6.9 11.9.1 27.1-13.3 29.9l-4.9 1c-15.2 3.2-21.3 21.8-10.8 33.3l3.4 3.7c9.2 10.2 5.8 26.4-6.8 32l-4.6 2c-14.2 6.3-16.3 25.7-3.7 34.9l4.1 2.9c11.1 8.1 11.1 24.7 0 32.7l-4.1 2.9c-12.6 9.2-10.6 28.5 3.7 34.9l4.6 2c12.6 5.6 16 21.8 6.8 32l-3.4 3.7c-10.4 11.6-4.4 30.1 10.8 33.3l4.9 1c13.4 2.9 20.2 18 13.3 29.9l-2.5 4.3c-7.8 13.5 1.9 30.4 17.5 30.4h5c13.7 0 23.5 13.4 19.2 26.5l-1.5 4.8c-4.8 14.8 8.2 29.3 23.5 26l4.9-1c13.4-2.9 25.8 8.2 24.3 21.9l-.5 5c-1.6 15.5 14.1 26.9 28.4 20.6l4.6-2c12.6-5.6 26.9 2.7 28.4 16.4l.5 5c1.6 15.5 19.4 23.4 32 14.3l4.1-2.9c11.1-8.1 26.9-3 31.1 10.1l1.5 4.8c4.8 14.8 23.9 18.9 34.3 7.3l3.4-3.7c9.2-10.2 25.7-8.5 32.6 3.4l2.5 4.3c7.8 13.5 27.3 13.5 35.1 0l2.5-4.3c6.9-11.9 23.4-13.6 32.6-3.4l3.4 3.7c10.4 11.6 29.5 7.5 34.3-7.3l1.5-4.8c4.2-13.1 20-18.2 31.1-10.1l4.1 2.9c12.6 9.2 30.4 1.2 32-14.3l.5-5c1.4-13.7 15.8-22 28.4-16.4l4.6 2c14.2 6.3 30-5.1 28.4-20.6l-.5-5c-1.4-13.7 10.9-24.8 24.3-21.9l4.9 1c15.2 3.2 28.3-11.2 23.5-26l-1.5-4.8c-4.2-13.1 5.5-26.5 19.2-26.5h5c15.6 0 25.3-16.9 17.5-30.4l-2.5-4.3c-6.9-11.9-.1-27.1 13.3-29.9l4.9-1c15.2-3.2 21.3-21.8 10.8-33.3l-3.4-3.7c-9.2-10.2-5.8-26.4 6.8-32l4.6-2c14.2-6.3 16.3-25.7 3.7-34.9l-4.1-2.9c-11.1-8-11.1-24.6 0-32.7zM405.8 687.4h-59.7c-1.4 0-2.8-.1-4.2-.4l-58.3-12.4c-1.4-.3-2.7-.7-4-1.3L225.1 649c-1.3-.6-2.5-1.3-3.7-2.1l-48.3-35.1c-1.1-.8-2.1-1.8-3.1-2.8l-39.9-44.3c-.9-1.1-1.8-2.2-2.5-3.4l-29.8-51.7c-.7-1.2-1.3-2.5-1.7-3.9L77.7 449c-.4-1.3-.7-2.7-.9-4.1l-6.2-59.3c-.1-1.4-.1-2.8 0-4.2l6.2-59.3c.1-1.4.4-2.8.9-4.1l18.4-56.7c.4-1.3 1-2.6 1.7-3.9l29.8-51.7c.7-1.2 1.5-2.4 2.5-3.4L170 158c.9-1.1 2-2 3.1-2.8l48.3-35.1c1.1-.8 2.4-1.5 3.7-2.1l54.5-24.3c1.3-.6 2.6-1 4-1.3L341.9 80c1.4-.3 2.8-.4 4.2-.4h59.7c1.4 0 2.8.1 4.2.4l58.3 12.4c1.4.3 2.7.7 4 1.3l54.5 24.3c1.3.6 2.5 1.3 3.7 2.1l48.3 35.1c1.1.8 2.2 1.8 3.1 2.8l39.9 44.3c.9 1.1 1.8 2.2 2.5 3.4l29.8 51.7c.7 1.2 1.3 2.5 1.7 3.9l18.4 56.7c.4 1.3.7 2.7.9 4.1l6.2 59.3c.1 1.4.1 2.8 0 4.2l-6.2 59.3c-.1 1.4-.4 2.8-.9 4.1l-18.4 56.7c-.4 1.3-1 2.6-1.7 3.9l-29.8 51.7c-.7 1.2-1.5 2.4-2.5 3.4L582 609c-.9 1.1-2 2-3.1 2.8l-48.3 35.1c-1.1.8-2.4 1.5-3.7 2.1l-54.5 24.3c-1.3.6-2.6 1-4 1.3L410 686.9c-1.4.3-2.8.5-4.2.5z" fill="#7C2222"/><path d="M723.4 358.6l4.1-2.9c12.6-9.2 10.6-28.5-3.7-34.9l-4.6-2c-12.6-5.6-16-21.8-6.8-32l3.4-3.7c10.4-11.6 4.4-30.1-10.8-33.3l-4.9-1c-13.4-2.9-20.2-18-13.3-29.9l2.5-4.3c7.8-13.5-1.9-30.4-17.5-30.4h-5c-13.7 0-23.5-13.4-19.2-26.5l1.5-4.8c4.8-14.8-8.2-29.3-23.5-26l-4.9 1c-13.4 2.9-25.8-8.2-24.3-21.9l.5-5c1.6-15.5-14.1-26.9-28.4-20.6l-4.6 2C551.3 88 537 79.7 535.5 66l-.5-5c-1.6-15.5-19.4-23.4-32-14.3l-4.1 2.9c-11.1 8.1-26.9 3-31.1-10.1l-1.5-4.8c-4.8-14.8-23.9-18.9-34.3-7.3l-3.4 3.7c-9.2 10.2-25.7 8.5-32.6-3.4l-2.5-4.3c-7.8-13.5-27.3-13.5-35.1 0l-2.5 4.3c-6.9 11.9-23.4 13.6-32.6 3.4l-3.4-3.7c-10.4-11.6-29.5-7.5-34.3 7.3l-1.5 4.8c-4.2 13.1-20 18.2-31.1 10.1l-4.1-2.9c-12.6-9.2-30.4-1.2-32 14.3l-.5 5C215 79.7 200.6 88 188 82.4l-4.6-2c-14.2-6.3-30 5.1-28.4 20.6l.5 5c1.4 13.7-10.9 24.8-24.3 21.9l-4.9-1c-15.2-3.2-28.3 11.2-23.5 26l1.5 4.8c4.2 13.1-5.5 26.5-19.2 26.5h-5c-15.6 0-25.3 16.9-17.5 30.4l2.5 4.3c6.9 11.9.1 27.1-13.3 29.9l-4.9 1c-15.2 3.2-21.3 21.8-10.8 33.3l3.4 3.7c9.2 10.2 5.8 26.4-6.8 32l-4.6 2c-14.2 6.3-16.3 25.7-3.7 34.9l4.1 2.9c11.1 8.1 11.1 24.7 0 32.7l-4.1 2.9c-12.6 9.2-10.6 28.5 3.7 34.9l4.6 2c12.6 5.6 16 21.8 6.8 32l-3.4 3.7c-10.4 11.6-4.4 30.1 10.8 33.3l4.9 1c13.4 2.9 20.2 18 13.3 29.9l-2.5 4.3c-7.8 13.5 1.9 30.4 17.5 30.4h5c13.7 0 23.5 13.4 19.2 26.5l-1.5 4.8c-4.8 14.8 8.2 29.3 23.5 26l4.9-1c13.4-2.9 25.8 8.2 24.3 21.9l-.5 5c-1.6 15.5 14.1 26.9 28.4 20.6l4.6-2c12.6-5.6 26.9 2.7 28.4 16.4l.5 5c1.6 15.5 19.4 23.4 32 14.3l4.1-2.9c11.1-8.1 26.9-3 31.1 10.1l1.5 4.8c4.8 14.8 23.9 18.9 34.3 7.3l3.4-3.7c9.2-10.2 25.7-8.5 32.6 3.4l2.5 4.3c7.8 13.5 27.3 13.5 35.1 0l2.5-4.3c6.9-11.9 23.4-13.6 32.6-3.4l3.4 3.7c10.4 11.6 29.5 7.5 34.3-7.3l1.5-4.8c4.2-13.1 20-18.2 31.1-10.1l4.1 2.9c12.6 9.2 30.4 1.2 32-14.3l.5-5c1.4-13.7 15.8-22 28.4-16.4l4.6 2c14.2 6.3 30-5.1 28.4-20.6l-.5-5c-1.4-13.7 10.9-24.8 24.3-21.9l4.9 1c15.2 3.2 28.3-11.2 23.5-26l-1.5-4.8c-4.2-13.1 5.5-26.5 19.2-26.5h5c15.6 0 25.3-16.9 17.5-30.4l-2.5-4.3c-6.9-11.9-.1-27.1 13.3-29.9l4.9-1c15.2-3.2 21.3-21.8 10.8-33.3l-3.4-3.7c-9.2-10.2-5.8-26.4 6.8-32l4.6-2c14.2-6.3 16.3-25.7 3.7-34.9l-4.1-2.9c-11.1-8-11.1-24.6 0-32.7zM405.8 679h-59.7c-1.4 0-2.8-.1-4.2-.4l-58.3-12.4c-1.4-.3-2.7-.7-4-1.3l-54.5-24.3c-1.3-.6-2.5-1.3-3.7-2.1l-48.3-35.1c-1.1-.8-2.2-1.8-3.1-2.8l-39.9-44.3c-.9-1.1-1.8-2.2-2.5-3.4l-29.8-51.7c-.7-1.2-1.3-2.5-1.7-3.9l-18.4-56.7c-.4-1.3-.7-2.7-.9-4.1l-6.2-59.3c-.1-1.4-.1-2.8 0-4.2l6.2-59.3c.1-1.4.4-2.8.9-4.1l18.4-56.7c.4-1.3 1-2.6 1.7-3.9l29.8-51.7c.7-1.2 1.5-2.4 2.5-3.4l39.9-44.3c.9-1.1 2-2 3.1-2.8l48.3-35.1c1.1-.8 2.4-1.5 3.7-2.1l54.5-24.3c1.3-.6 2.6-1 4-1.3l58.3-12.4c1.4-.3 2.8-.4 4.2-.4h59.7c1.4 0 2.8.1 4.2.4L468.3 84c1.4.3 2.7.7 4 1.3l54.5 24.3c1.3.6 2.5 1.3 3.7 2.1l48.3 35.1c1.1.8 2.2 1.8 3.1 2.8l39.9 44.3c.9 1.1 1.8 2.2 2.5 3.4l29.8 51.7c.7 1.2 1.3 2.5 1.7 3.9l18.4 56.7c.4 1.3.7 2.7.9 4.1l6.2 59.3c.1 1.4.1 2.8 0 4.2l-6.2 59.3c-.1 1.4-.4 2.8-.9 4.1l-18.4 56.7c-.4 1.3-1 2.6-1.7 3.9l-29.8 51.7c-.7 1.2-1.5 2.4-2.5 3.4L582 600.6c-.9 1.1-2 2-3.1 2.8l-48.3 35.1c-1.1.8-2.4 1.5-3.7 2.1l-54.5 24.3c-1.3.6-2.6 1-4 1.3L410 678.5c-1.4.3-2.8.5-4.2.5z" fill="#EF7273"/><path d="M723.4 361.4l4.1-2.9c12.6-9.2 10.6-28.5-3.7-34.9l-4.6-2c-12.6-5.6-16-21.8-6.8-32l3.4-3.7c10.4-11.6 4.4-30.1-10.8-33.3l-4.9-1c-13.4-2.9-20.2-18-13.3-29.9l2.5-4.3c7.8-13.5-1.9-30.4-17.5-30.4h-5c-13.7 0-23.5-13.4-19.2-26.5l1.5-4.8c4.8-14.8-8.2-29.3-23.5-26l-4.9 1c-13.4 2.9-25.8-8.2-24.3-21.9l.5-5c1.6-15.5-14.1-26.9-28.4-20.6l-4.6 2c-12.6 5.6-26.9-2.7-28.4-16.4l-.5-5c-1.6-15.5-19.4-23.4-32-14.3l-4.1 2.9c-11.1 8.1-26.9 3-31.1-10.1l-1.5-4.8c-4.8-14.8-23.9-18.9-34.3-7.3l-3.4 3.7c-9.2 10.2-25.7 8.5-32.6-3.4l-2.5-4.3c-7.8-13.5-27.3-13.5-35.1 0l-2.5 4.3c-6.9 11.9-23.4 13.6-32.6 3.4l-3.4-3.7c-10.4-11.6-29.5-7.5-34.3 7.3l-1.5 4.8c-4.2 13.1-20 18.2-31.1 10.1l-4.1-2.9c-12.6-9.2-30.4-1.2-32 14.3l-.5 5c-1.4 13.7-15.8 22-28.4 16.4l-4.6-2c-14.2-6.3-30 5.1-28.4 20.6l.5 5c1.4 13.7-10.9 24.8-24.3 21.9l-4.9-1c-15.2-3.2-28.3 11.2-23.5 26l1.5 4.8c4.2 13.1-5.5 26.5-19.2 26.5h-5c-15.6 0-25.3 16.9-17.5 30.4l2.5 4.3c6.9 11.9.1 27.1-13.3 29.9l-4.9 1c-15.2 3.2-21.3 21.8-10.8 33.3l3.4 3.7c9.2 10.2 5.8 26.4-6.8 32l-4.6 2c-14.2 6.3-16.3 25.7-3.7 34.9l4.1 2.9c11.1 8.1 11.1 24.7 0 32.7l-4.1 2.9c-12.6 9.2-10.6 28.5 3.7 34.9l4.6 2c12.6 5.6 16 21.8 6.8 32l-3.4 3.7c-10.4 11.6-4.4 30.1 10.8 33.3l4.9 1c13.4 2.9 20.2 18 13.3 29.9l-2.5 4.3c-7.8 13.5 1.9 30.4 17.5 30.4h5c13.7 0 23.5 13.4 19.2 26.5l-1.3 5c-4.8 14.8 8.2 29.3 23.5 26l4.9-1c13.4-2.9 25.8 8.2 24.3 21.9l-.5 5c-1.6 15.5 14.1 26.9 28.4 20.6l4.6-2c12.6-5.6 26.9 2.7 28.4 16.4l.5 5c1.6 15.5 19.4 23.4 32 14.3l4.1-2.9c11.1-8.1 26.9-3 31.1 10.1l1.5 4.8c4.8 14.8 23.9 18.9 34.3 7.3l3.4-3.7c9.2-10.2 25.7-8.5 32.6 3.4l2.5 4.3c7.8 13.5 27.3 13.5 35.1 0l2.5-4.3c6.9-11.9 23.4-13.6 32.6-3.4l3.4 3.7c10.4 11.6 29.5 7.5 34.3-7.3l1.5-4.8c4.2-13.1 20-18.2 31.1-10.1l4.1 2.9c12.6 9.2 30.4 1.2 32-14.3l.5-5c1.4-13.7 15.8-22 28.4-16.4l4.6 2c14.2 6.3 30-5.1 28.4-20.6l-.5-5c-1.4-13.7 10.9-24.8 24.3-21.9l4.9 1c15.2 3.2 28.3-11.2 23.5-26l-1.5-4.8c-4.2-13.1 5.5-26.5 19.2-26.5h5c15.6 0 25.3-16.9 17.5-30.4L687 534c-6.9-11.9-.1-27.1 13.3-29.9l4.9-1c15.2-3.2 21.3-21.8 10.8-33.3l-3.4-3.7c-9.2-10.2-5.8-26.4 6.8-32l4.6-2c14.2-6.3 16.3-25.7 3.7-34.9l-4.1-2.9c-11.3-8.2-11.3-24.8-.2-32.9zM405.8 681.8h-59.7c-1.4 0-2.8-.1-4.2-.4L283.6 669c-1.4-.3-2.7-.7-4-1.3l-54.5-24.3c-1.3-.6-2.5-1.3-3.7-2.1l-48.3-35.1c-1.1-.8-2.2-1.8-3.1-2.8L130.1 559c-.9-1.1-1.8-2.2-2.5-3.4l-29.8-51.7c-.7-1.2-1.3-2.5-1.7-3.9l-18.4-56.7c-.4-1.3-.7-2.7-.9-4.1l-6.2-59.3c-.1-1.4-.1-2.8 0-4.2l6.2-59.3c.1-1.4.4-2.8.9-4.1l18.4-56.7c.4-1.3 1-2.6 1.7-3.9l29.8-51.7c.7-1.2 1.5-2.4 2.5-3.4l39.9-44.3c.9-1.1 2-2 3.1-2.8l48.3-35.1c1.1-.8 2.4-1.5 3.7-2.1L279.6 88c1.3-.6 2.6-1 4-1.3l58.3-12.4c1.4-.3 2.8-.4 4.2-.4h59.7c1.4 0 2.8.1 4.2.4l58.3 12.4c1.4.3 2.7.7 4 1.3l54.5 24.3c1.3.6 2.5 1.3 3.7 2.1l48.3 35.1c1.1.8 2.2 1.8 3.1 2.8l39.9 44.3c.9 1.1 1.8 2.2 2.5 3.4l29.8 51.7c.7 1.2 1.3 2.5 1.7 3.9l18.4 56.7c.4 1.3.7 2.7.9 4.1l6.2 59.3c.1 1.4.1 2.8 0 4.2l-6.2 59.3c-.1 1.4-.4 2.8-.9 4.1L655.8 500c-.4 1.3-1 2.6-1.7 3.9l-29.8 51.7c-.7 1.2-1.5 2.4-2.5 3.4L582 603.4c-.9 1.1-2 2-3.1 2.8l-48.3 35.1c-1.1.8-2.4 1.5-3.7 2.1l-54.5 24.3c-1.3.6-2.6 1-4 1.3L410 681.3c-1.4.3-2.8.5-4.2.5z" fill="#DA232E"/><circle fill="#DB2128" cx="376" cy="377.8" r="319.6"/><path d="M376 668C211.7 668 78.1 534.3 78.1 370S211.8 72.1 376 72.1c164.3 0 297.9 133.7 297.9 297.9 0 164.3-133.6 298-297.9 298z" fill="#7C2222"/><path d="M376 682.4c-164.9 0-299.1-134.2-299.1-299.1C76.9 218.4 211.1 84.2 376 84.2c164.9 0 299.1 134.2 299.1 299.1 0 165-134.2 299.1-299.1 299.1z" fill="#7C2222"/><path d="M376 677.8c-164.3 0-297.9-133.7-297.9-297.9C78.1 215.6 211.7 82 376 82c164.3 0 297.9 133.7 297.9 297.9 0 164.3-133.6 297.9-297.9 297.9z" fill="#5B1918"/><path d="M376 675.6c-164.3 0-297.9-133.7-297.9-297.9C78.1 213.4 211.8 79.8 376 79.8c164.3 0 297.9 133.7 297.9 297.9S540.3 675.6 376 675.6z" fill="#DB2128"/><path d="M376 650.7c-151.8 0-275.4-123.5-275.4-275.4C100.6 223.6 224.2 100 376 100c151.8 0 275.4 123.5 275.4 275.4 0 151.8-123.6 275.3-275.4 275.3z" fill="#7C2222"/><path d="M376 659.8c-151.8 0-275.4-123.5-275.4-275.4C100.6 232.6 224.1 109 376 109c151.8 0 275.4 123.5 275.4 275.4 0 151.8-123.6 275.4-275.4 275.4z" fill="#EF7273"/><path d="M376 655.3c-151.8 0-275.4-123.5-275.4-275.4 0-151.8 123.5-275.4 275.4-275.4 151.8 0 275.4 123.5 275.4 275.4 0 151.8-123.6 275.4-275.4 275.4z" fill="#DA232E"/></g><path d="M546.9 262.4c-14.3-7.8-30.3 7.2-39.7 16.1-21.5 21.1-39.7 45.5-60 67.8-22.6 24.4-43.5 48.9-66.6 72.8-13.2 13.3-27.5 27.8-36.3 44.4-19.8-19.4-36.9-40.5-58.9-57.8-16-12.2-42.4-21.1-41.9 8.3 1.1 38.3 34.7 79.4 59.5 105.5 10.5 11.1 24.2 22.8 40.2 23.3 19.3 1.1 39.1-22.2 50.7-35 20.4-22.2 36.9-47.2 55.6-70 24.2-30 49-59.4 72.7-90 14.8-18.7 61.6-65.4 24.7-85.4zM267.7 411.8c-.6 0-1.1 0-2.2.6-2.2-.6-3.9-1.1-6.1-2.2 1.7-1.1 4.4-.6 8.3 1.6z" fill="#FFF"/></g></svg>